SplineFontDB: 3.0
FontName: Boon-700i
FullName: Boon 700 Oblique
FamilyName: Boon
Weight: 700
Copyright: Copyright 2013-2015, Sungsit Sawaiwan (https://fontuni.com | uni@fontuni.com). This Font Software is licensed under the SIL Open Font License, Version 1.1 (http://scripts.sil.org/OFL).
Version: 1.0-beta1
ItalicAngle: -12
UnderlinePosition: -120
UnderlineWidth: 60
Ascent: 960
Descent: 240
InvalidEm: 0
UFOAscent: 960
UFODescent: -240
LayerCount: 2
Layer: 0 0 "Back" 1
Layer: 1 0 "Fore" 0
StyleMap: 0x0000
FSType: 0
OS2Version: 0
OS2_WeightWidthSlopeOnly: 0
OS2_UseTypoMetrics: 0
CreationTime: 1369324892
ModificationTime: 1444829039
PfmFamily: 33
TTFWeight: 700
TTFWidth: 5
LineGap: 90
VLineGap: 0
Panose: 2 0 2 3 0 0 0 0 0 0
OS2TypoAscent: 960
OS2TypoAOffset: 0
OS2TypoDescent: -240
OS2TypoDOffset: 0
OS2TypoLinegap: 90
OS2WinAscent: 1320
OS2WinAOffset: 0
OS2WinDescent: 480
OS2WinDOffset: 0
HheadAscent: 1320
HheadAOffset: 0
HheadDescent: -480
HheadDOffset: 0
OS2SubXSize: 780
OS2SubYSize: 840
OS2SubXOff: 0
OS2SubYOff: 180
OS2SupXSize: 780
OS2SupYSize: 840
OS2SupXOff: 0
OS2SupYOff: 600
OS2StrikeYSize: 60
OS2StrikeYPos: 300
OS2CapHeight: 780
OS2XHeight: 600
OS2Vendor: 'FUni'
OS2CodePages: 00010000.00000000
OS2UnicodeRanges: 81000003.1000200a.00000000.00000000
Lookup: 1 0 0 "ThaiRC.rd" { "ThaiRC.rd subtable"  } ['ss01' ('thai' <'dflt' > ) 'salt' ('thai' <'dflt' > ) 'ccmp' ('thai' <'PAL ' 'SAN ' > ) 'locl' ('thai' <'PAL ' 'SAN ' > ) ]
Lookup: 6 0 0 "ThaiContextRC.rd" { "ThaiContextRC.rd subtable"  } ['ccmp' ('thai' <'dflt' > ) ]
Lookup: 2 0 0 "ThaiDecomp" { "ThaiDecomp subtable"  } ['ccmp' ('thai' <'dflt' > ) ]
Lookup: 1 0 0 "ThaiT.0E4D" { "ThaiT.0E4D subtable"  } []
Lookup: 1 0 0 "Thai0E4D.0E48" { "Thai0E4D.0E48 subtable"  } []
Lookup: 1 0 0 "Thai0E4D.0E49" { "Thai0E4D.0E49 subtable"  } []
Lookup: 1 0 0 "Thai0E4D.0E4A" { "Thai0E4D.0E4A subtable"  } []
Lookup: 1 0 0 "Thai0E4D.0E4B" { "Thai0E4D.0E4B subtable"  } []

StartChar: .notdef
Encoding: 1114112 -1 0
GlifName: _notdef
Width: 660
VWidth: 0
Flags: HMW
LayerCount: 2
Fore
SplineSet
20 0 m 1
 148 600 l 1
 398 600 l 1
 648 600 l 1
 520 0 l 1
 270 0 l 1
 20 0 l 1
296 120 m 1
 396 120 l 1
 472 480 l 1
 372 480 l 1
 272 480 l 1
 196 120 l 1
 296 120 l 1
EndSplineSet
PickledDataWithLists: "(dp0
Vcom.fontlab.hintData
p1
(dp2
Vvhints
p3
(lp4
(dp5
Vposition
p6
L160L
sVwidth
p7
L10L
sa(dp8
g6
L190L
sg7
L10L
sa(dp9
g6
L520L
sg7
L10L
sa(dp10
g6
L550L
sg7
L10L
sasVhhints
p11
(lp12
(dp13
g6
L0L
sg7
L10L
sa(dp14
g6
L30L
sg7
L10L
sa(dp15
g6
L560L
sg7
L10L
sa(dp16
g6
L590L
sg7
L10L
sass."
EndChar

StartChar: exclam
Encoding: 33 33 5
GlifName: exclam
Width: 330
VWidth: 0
Flags: HMW
LayerCount: 2
Fore
SplineSet
27 82 m 0
 38 136 87 170 141 170 c 0
 188 170 220 144 220 102 c 0
 220 96 219 89 217 82 c 0
 206 28 158 -6 104 -6 c 0
 57 -6 25 20 25 62 c 0
 25 68 25 75 27 82 c 0
107 270 m 1
 182 810 l 1
 372 810 l 1
 217 270 l 1
 107 270 l 1
EndSplineSet
PickledDataWithLists: "(dp0
Vcom.fontlab.hintData
p1
(dp2
Vvhints
p3
(lp4
(dp5
Vposition
p6
L81L
sVwidth
p7
L10L
sa(dp8
g6
L101L
sg7
L10L
sa(dp9
g6
L125L
sg7
L10L
sa(dp10
g6
L195L
sg7
L10L
sa(dp11
g6
L210L
sg7
L10L
sa(dp12
g6
L239L
sg7
L10L
sasVhhints
p13
(lp14
(dp15
g6
L-5L
sg7
L10L
sa(dp16
g6
L122L
sg7
L10L
sa(dp17
g6
L268L
sg7
L10L
sa(dp18
g6
L826L
sg7
L10L
sass."
EndChar

StartChar: quotedbl
Encoding: 34 34 6
GlifName: quotedbl
Width: 540
VWidth: 0
Flags: HMW
LayerCount: 2
Fore
SplineSet
366 900 m 1
 265 540 l 1
 165 540 l 1
 216 900 l 1
 366 900 l 1
586 900 m 1
 485 540 l 1
 385 540 l 1
 436 900 l 1
 586 900 l 1
EndSplineSet
PickledDataWithLists: "(dp0
Vcom.fontlab.hintData
p1
(dp2
Vvhints
p3
(lp4
(dp5
Vposition
p6
L107L
sVwidth
p7
L10L
sa(dp8
g6
L196L
sg7
L10L
sa(dp9
g6
L304L
sg7
L10L
sa(dp10
g6
L313L
sg7
L10L
sa(dp11
g6
L393L
sg7
L10L
sasVhhints
p12
(lp13
(dp14
g6
L548L
sg7
L10L
sa(dp15
g6
L553L
sg7
L10L
sa(dp16
g6
L829L
sg7
L10L
sass."
EndChar

StartChar: numbersign
Encoding: 35 35 7
GlifName: numbersign
Width: 810
VWidth: 0
Flags: HMW
LayerCount: 2
Fore
SplineSet
10 190 m 1
 34 300 l 1
 180 300 l 1
 266 480 l 1
 132 480 l 1
 155 590 l 1
 319 590 l 1
 411 780 l 1
 541 780 l 1
 449 590 l 1
 599 590 l 1
 691 780 l 1
 821 780 l 1
 729 590 l 1
 845 590 l 1
 822 480 l 1
 676 480 l 1
 590 300 l 1
 724 300 l 1
 700 190 l 1
 536 190 l 1
 445 0 l 1
 315 0 l 1
 406 190 l 1
 256 190 l 1
 165 0 l 1
 35 0 l 1
 126 190 l 1
 10 190 l 1
396 480 m 1
 310 300 l 1
 460 300 l 1
 546 480 l 1
 396 480 l 1
EndSplineSet
PickledDataWithLists: "(dp0
Vcom.fontlab.hintData
p1
(dp2
Vvhints
p3
(lp4
(dp5
Vposition
p6
L111L
sVwidth
p7
L10L
sa(dp8
g6
L329L
sg7
L10L
sa(dp9
g6
L381L
sg7
L10L
sa(dp10
g6
L599L
sg7
L10L
sa(dp11
g6
L649L
sg7
L10L
sa(dp12
g6
L689L
sg7
L10L
sasVhhints
p13
(lp14
(dp15
g6
L-29L
sg7
L10L
sa(dp16
g6
L-19L
sg7
L10L
sa(dp17
g6
L241L
sg7
L7L
sa(dp18
g6
L284L
sg7
L10L
sa(dp19
g6
L521L
sg7
L7L
sa(dp20
g6
L564L
sg7
L10L
sa(dp21
g6
L819L
sg7
L10L
sa(dp22
g6
L829L
sg7
L10L
sass."
EndChar

StartChar: dollar
Encoding: 36 36 8
GlifName: dollar
Width: 660
VWidth: 0
Flags: HMW
LayerCount: 2
Fore
SplineSet
26 191 m 1
 193 201 l 1
 193 199 193 196 193 194 c 0
 193 139 234 105 293 105 c 0
 363 105 418 132 435 210 c 0
 437 218 437 226 437 233 c 0
 437 283 396 300 380 306 c 0
 332 322 270 351 226 370 c 0
 172 395 119 446 119 528 c 0
 119 542 121 558 124 574 c 0
 145 675 237 772 383 792 c 1
 406 900 l 1
 526 900 l 1
 503 791 l 1
 633 767 665 666 665 603 c 0
 665 600 665 597 665 594 c 1
 498 582 l 1
 498 585 498 589 498 592 c 0
 498 647 465 675 414 675 c 0
 367 675 305 650 289 574 c 0
 288 568 287 561 287 556 c 0
 287 513 325 498 350 486 c 0
 394 467 455 441 492 428 c 0
 556 406 606 357 606 269 c 0
 606 251 605 231 600 210 c 0
 579 109 486 10 332 -12 c 1
 309 -120 l 1
 189 -120 l 1
 212 -12 l 1
 66 9 25 111 25 180 c 0
 25 184 26 188 26 191 c 1
EndSplineSet
PickledDataWithLists: "(dp0
Vcom.fontlab.hintData
p1
(dp2
Vvhints
p3
(lp4
(dp5
Vposition
p6
L70L
sVwidth
p7
L10L
sa(dp8
g6
L78L
sg7
L10L
sa(dp9
g6
L169L
sg7
L10L
sa(dp10
g6
L319L
sg7
L10L
sa(dp11
g6
L323L
sg7
L10L
sa(dp12
g6
L382L
sg7
L10L
sa(dp13
g6
L392L
sg7
L10L
sa(dp14
g6
L504L
sg7
L10L
sa(dp15
g6
L565L
sg7
L10L
sa(dp16
g6
L604L
sg7
L10L
sa(dp17
g6
L664L
sg7
L10L
sasVhhints
p18
(lp19
(dp20
g6
L-127L
sg7
L10L
sa(dp21
g6
L46L
sg7
L10L
sa(dp22
g6
L192L
sg7
L10L
sa(dp23
g6
L584L
sg7
L10L
sa(dp24
g6
L812L
sg7
L10L
sa(dp25
g6
L916L
sg7
L10L
sass."
EndChar

StartChar: percent
Encoding: 37 37 9
GlifName: percent
Width: 780
VWidth: 0
Flags: HMW
LayerCount: 2
Fore
SplineSet
0 0 m 1
 2 8 l 1
 726 780 l 1
 826 780 l 1
 824 772 l 1
 100 0 l 1
 0 0 l 1
202 458 m 0
 223 458 253 486 272 576 c 2
 276 595 l 2
 282 622 285 642 285 659 c 0
 285 698 271 712 256 712 c 0
 235 712 205 685 186 595 c 2
 182 576 l 2
 176 549 174 528 174 511 c 0
 174 472 187 458 202 458 c 0
273 791 m 0
 363 791 387 730 387 667 c 0
 387 642 383 617 378 595 c 2
 374 576 l 2
 358 499 312 379 186 379 c 0
 96 379 72 441 72 504 c 0
 72 529 75 554 80 576 c 2
 84 595 l 2
 100 672 147 791 273 791 c 0
569 68 m 0
 590 68 621 96 640 186 c 2
 644 205 l 2
 650 232 652 252 652 269 c 0
 652 308 638 322 623 322 c 0
 602 322 573 295 554 205 c 2
 550 186 l 2
 544 159 541 138 541 121 c 0
 541 82 554 68 569 68 c 0
640 401 m 0
 730 401 754 340 754 277 c 0
 754 252 751 227 746 205 c 2
 742 186 l 2
 726 109 679 -11 553 -11 c 0
 463 -11 439 51 439 114 c 0
 439 139 443 164 448 186 c 2
 452 205 l 2
 468 282 514 401 640 401 c 0
EndSplineSet
PickledDataWithLists: "(dp0
Vcom.fontlab.hintData
p1
(dp2
Vvhints
p3
(lp4
(dp5
Vposition
p6
L50L
sVwidth
p7
L10L
sa(dp8
g6
L70L
sg7
L10L
sa(dp9
g6
L120L
sg7
L10L
sa(dp10
g6
L246L
sg7
L10L
sa(dp11
g6
L290L
sg7
L10L
sa(dp12
g6
L320L
sg7
L10L
sa(dp13
g6
L360L
sg7
L10L
sa(dp14
g6
L410L
sg7
L10L
sa(dp15
g6
L480L
sg7
L10L
sa(dp16
g6
L606L
sg7
L10L
sa(dp17
g6
L650L
sg7
L10L
sa(dp18
g6
L680L
sg7
L10L
sa(dp19
g6
L699L
sg7
L10L
sa(dp20
g6
L720L
sg7
L10L
sasVhhints
p21
(lp22
(dp23
g6
L-14L
sg7
L10L
sa(dp24
g6
L6L
sg7
L10L
sa(dp25
g6
L34L
sg7
L10L
sa(dp26
g6
L369L
sg7
L10L
sa(dp27
g6
L374L
sg7
L10L
sa(dp28
g6
L416L
sg7
L10L
sa(dp29
g6
L422L
sg7
L10L
sa(dp30
g6
L757L
sg7
L10L
sa(dp31
g6
L784L
sg7
L10L
sa(dp32
g6
L804L
sg7
L10L
sass."
EndChar

StartChar: ampersand
Encoding: 38 38 10
GlifName: ampersand
Width: 810
VWidth: 0
Flags: HMW
LayerCount: 2
Fore
SplineSet
747 8 m 2
 745 0 l 1
 560 0 l 1
 560 0 542 26 515 64 c 1
 434 12 341 -21 246 -21 c 0
 90 -21 24 51 24 139 c 0
 24 152 25 166 28 180 c 0
 51 289 157 366 267 428 c 1
 245 472 227 524 227 575 c 0
 227 588 228 602 231 615 c 0
 257 736 359 801 470 801 c 0
 587 801 634 737 634 670 c 0
 634 659 633 649 631 638 c 0
 613 554 547 472 449 412 c 1
 478 373 519 315 562 256 c 1
 596 304 622 360 639 420 c 1
 775 400 l 1
 751 316 699 232 632 161 c 1
 695 77 747 8 747 8 c 2
322 338 m 1
 235 279 203 225 193 180 c 0
 191 172 191 165 191 159 c 0
 191 118 223 101 271 101 c 0
 341 101 401 119 452 151 c 1
 407 215 357 287 322 338 c 1
448 695 m 0
 407 695 384 655 375 611 c 0
 373 602 372 593 372 584 c 0
 372 557 379 529 392 501 c 1
 451 547 483 602 491 638 c 0
 492 644 493 650 493 655 c 0
 493 684 473 695 448 695 c 0
EndSplineSet
PickledDataWithLists: "(dp0
Vcom.fontlab.hintData
p1
(dp2
Vvhints
p3
(lp4
(dp5
Vposition
p6
L66L
sVwidth
p7
L10L
sa(dp8
g6
L164L
sg7
L10L
sa(dp9
g6
L202L
sg7
L10L
sa(dp10
g6
L296L
sg7
L10L
sa(dp11
g6
L450L
sg7
L10L
sa(dp12
g6
L538L
sg7
L10L
sa(dp13
g6
L695L
sg7
L10L
sa(dp14
g6
L749L
sg7
L10L
sasVhhints
p15
(lp16
(dp17
g6
L-25L
sg7
L10L
sa(dp18
g6
L39L
sg7
L10L
sa(dp19
g6
L389L
sg7
L10L
sa(dp20
g6
L734L
sg7
L10L
sa(dp21
g6
L796L
sg7
L10L
sass."
EndChar

StartChar: quotesingle
Encoding: 39 39 11
GlifName: quotesingle
Width: 330
VWidth: 0
Flags: HMW
LayerCount: 2
Fore
SplineSet
371 900 m 1
 270 540 l 1
 170 540 l 1
 221 900 l 1
 371 900 l 1
EndSplineSet
PickledDataWithLists: "(dp0
Vcom.fontlab.hintData
p1
(dp2
Vvhints
p3
(lp4
(dp5
Vposition
p6
L110L
sVwidth
p7
L10L
sa(dp8
g6
L209L
sg7
L10L
sasVhhints
p9
(lp10
(dp11
g6
L544L
sg7
L10L
sa(dp12
g6
L832L
sg7
L10L
sass."
EndChar

StartChar: parenleft
Encoding: 40 40 12
GlifName: parenleft
Width: 390
VWidth: 0
Flags: HMW
LayerCount: 2
Fore
SplineSet
73 390 m 0
 120 612 236 786 369 915 c 1
 461 875 l 1
 346 756 262 598 218 390 c 0
 201 311 193 239 193 174 c 0
 193 67 215 -21 255 -95 c 1
 146 -135 l 1
 90 -43 53 71 53 209 c 0
 53 265 59 326 73 390 c 0
EndSplineSet
PickledDataWithLists: "(dp0
Vcom.fontlab.hintData
p1
(dp2
Vvhints
p3
(lp4
(dp5
Vposition
p6
L55L
sVwidth
p7
L10L
sa(dp8
g6
L135L
sg7
L10L
sa(dp9
g6
L270L
sg7
L10L
sasVhhints
p10
(lp11
(dp12
g6
L-112L
sg7
L10L
sa(dp13
g6
L882L
sg7
L10L
sass."
Substitution2: "Latin.subs subtable" parenleft.subs
Substitution2: "Latin.subs subtable" parenleft.subs
Substitution2: "Latin.sups subtable" parenleft.sups
Substitution2: "Latin.sups subtable" parenleft.sups
EndChar

StartChar: parenright
Encoding: 41 41 13
GlifName: parenright
Width: 390
VWidth: 0
Flags: HMW
LayerCount: 2
Fore
SplineSet
363 390 m 0
 316 168 199 -6 66 -135 c 1
 -25 -95 l 1
 90 24 174 182 218 390 c 0
 235 469 243 541 243 606 c 0
 243 713 221 801 181 875 c 1
 289 915 l 1
 345 823 383 709 383 571 c 0
 383 515 377 454 363 390 c 0
EndSplineSet
PickledDataWithLists: "(dp0
Vcom.fontlab.hintData
p1
(dp2
Vvhints
p3
(lp4
(dp5
Vposition
p6
L79L
sVwidth
p7
L10L
sa(dp8
g6
L215L
sg7
L10L
sa(dp9
g6
L295L
sg7
L10L
sasVhhints
p10
(lp11
(dp12
g6
L-112L
sg7
L10L
sa(dp13
g6
L882L
sg7
L10L
sass."
Substitution2: "Latin.subs subtable" parenright.subs
Substitution2: "Latin.subs subtable" parenright.subs
Substitution2: "Latin.sups subtable" parenright.sups
Substitution2: "Latin.sups subtable" parenright.sups
EndChar

StartChar: asterisk
Encoding: 42 42 14
GlifName: asterisk
Width: 570
VWidth: 0
Flags: HMW
LayerCount: 2
Fore
SplineSet
117 668 m 1
 188 801 l 1
 337 715 l 1
 346 900 l 1
 486 900 l 1
 417 715 l 1
 602 801 l 1
 617 668 l 1
 426 639 l 1
 531 507 l 1
 400 425 l 1
 351 592 l 1
 230 425 l 1
 135 507 l 1
 296 639 l 1
 117 668 l 1
EndSplineSet
PickledDataWithLists: "(dp0
Vcom.fontlab.hintData
p1
(dp2
Vvhints
p3
(lp4
(dp5
Vposition
p6
L84L
sVwidth
p7
L10L
sa(dp8
g6
L89L
sg7
L10L
sa(dp9
g6
L256L
sg7
L10L
sa(dp10
g6
L265L
sg7
L10L
sa(dp11
g6
L272L
sg7
L10L
sa(dp12
g6
L326L
sg7
L10L
sa(dp13
g6
L335L
sg7
L10L
sa(dp14
g6
L501L
sg7
L10L
sa(dp15
g6
L506L
sg7
L10L
sasVhhints
p16
(lp17
(dp18
g6
L392L
sg7
L10L
sa(dp19
g6
L488L
sg7
L10L
sa(dp20
g6
L495L
sg7
L10L
sa(dp21
g6
L735L
sg7
L10L
sa(dp22
g6
L742L
sg7
L10L
sa(dp23
g6
L839L
sg7
L10L
sass."
EndChar

StartChar: plus
Encoding: 43 43 15
GlifName: plus
Width: 600
VWidth: 0
Flags: HMW
LayerCount: 2
Fore
SplineSet
103 415 m 17
 253 415 l 1
 286 570 l 1
 436 570 l 1
 403 415 l 1
 553 415 l 9
 530 305 l 17
 380 305 l 1
 347 150 l 1
 197 150 l 1
 230 305 l 1
 80 305 l 9
 103 415 l 17
EndSplineSet
PickledDataWithLists: "(dp0
Vcom.fontlab.hintData
p1
(dp2
Vvhints
p3
(lp4
(dp5
Vposition
p6
L80L
sVwidth
p7
L10L
sa(dp8
g6
L250L
sg7
L10L
sa(dp9
g6
L259L
sg7
L10L
sa(dp10
g6
L340L
sg7
L10L
sa(dp11
g6
L510L
sg7
L10L
sasVhhints
p12
(lp13
(dp14
g6
L145L
sg7
L10L
sa(dp15
g6
L302L
sg7
L10L
sa(dp16
g6
L362L
sg7
L10L
sa(dp17
g6
L370L
sg7
L10L
sa(dp18
g6
L525L
sg7
L10L
sass."
EndChar

StartChar: comma
Encoding: 44 44 16
GlifName: comma
Width: 330
VWidth: 0
Flags: HMW
LayerCount: 2
Fore
SplineSet
27 78 m 0
 38 131 81 170 141 170 c 0
 205 170 228 128 228 80 c 0
 228 69 227 57 225 45 c 0
 199 -78 95 -166 13 -210 c 1
 -21 -146 l 1
 29 -119 77 -74 104 -6 c 1
 102 -6 101 -6 99 -6 c 0
 55 -6 24 18 24 58 c 0
 24 64 26 71 27 78 c 0
EndSplineSet
PickledDataWithLists: "(dp0
Vcom.fontlab.hintData
p1
(dp2
Vvhints
p3
(lp4
(dp5
Vposition
p6
L61L
sVwidth
p7
L10L
sa(dp8
g6
L170L
sg7
L10L
sa(dp9
g6
L251L
sg7
L10L
sasVhhints
p10
(lp11
(dp12
g6
L-182L
sg7
L10L
sa(dp13
g6
L48L
sg7
L10L
sa(dp14
g6
L117L
sg7
L10L
sass."
EndChar

StartChar: hyphen
Encoding: 45 45 17
GlifName: hyphen
Width: 600
VWidth: 0
Flags: HMW
LayerCount: 2
Fore
SplineSet
104 420 m 25
 554 420 l 25
 529 300 l 25
 79 300 l 25
 104 420 l 25
EndSplineSet
PickledDataWithLists: "(dp0
Vcom.fontlab.hintData
p1
(dp2
Vvhints
p3
(lp4
(dp5
Vposition
p6
L75L
sVwidth
p7
L10L
sa(dp8
g6
L514L
sg7
L10L
sasVhhints
p9
(lp10
(dp11
g6
L301L
sg7
L10L
sa(dp12
g6
L363L
sg7
L10L
sa(dp13
g6
L371L
sg7
L10L
sass."
EndChar

StartChar: period
Encoding: 46 46 18
GlifName: period
Width: 330
VWidth: 0
Flags: HMW
LayerCount: 2
Fore
SplineSet
27 82 m 0
 38 136 87 170 141 170 c 0
 188 170 220 144 220 102 c 0
 220 96 219 89 217 82 c 0
 206 28 158 -6 104 -6 c 0
 57 -6 25 20 25 62 c 0
 25 68 25 75 27 82 c 0
EndSplineSet
PickledDataWithLists: "(dp0
Vcom.fontlab.hintData
p1
(dp2
Vvhints
p3
(lp4
(dp5
Vposition
p6
L81L
sVwidth
p7
L10L
sa(dp8
g6
L239L
sg7
L10L
sasVhhints
p9
(lp10
(dp11
g6
L-5L
sg7
L10L
sa(dp12
g6
L122L
sg7
L10L
sass."
EndChar

StartChar: slash
Encoding: 47 47 19
GlifName: slash
Width: 510
VWidth: 0
Flags: HMW
LayerCount: 2
Fore
SplineSet
105 0 m 1
 -40 0 l 1
 -38 8 l 1
 451 780 l 1
 596 780 l 1
 594 772 l 1
 105 0 l 1
EndSplineSet
PickledDataWithLists: "(dp0
Vcom.fontlab.hintData
p1
(dp2
Vvhints
p3
(lp4
(dp5
Vposition
p6
L41L
sVwidth
p7
L10L
sa(dp8
g6
L429L
sg7
L10L
sasVhhints
p9
(lp10
(dp11
g6
L-29L
sg7
L10L
sa(dp12
g6
L818L
sg7
L10L
sass."
Substitution2: "LatinSlash.frac subtable" fraction
EndChar

StartChar: zero
Encoding: 48 48 20
GlifName: zero
Width: 660
VWidth: 0
Flags: HMW
LayerCount: 2
Fore
SplineSet
64 370 m 2
 72 410 l 2
 106 570 197 801 440 801 c 0
 613 801 660 684 660 559 c 0
 660 508 652 456 642 410 c 2
 634 370 l 2
 600 210 509 -21 266 -21 c 0
 93 -21 46 96 46 221 c 0
 46 272 54 324 64 370 c 2
291 101 m 0
 351 101 428 182 468 370 c 2
 476 410 l 2
 487 461 492 505 492 541 c 0
 492 636 458 679 414 679 c 0
 354 679 278 598 238 410 c 2
 230 370 l 2
 219 319 214 275 214 239 c 0
 214 144 247 101 291 101 c 0
EndSplineSet
PickledDataWithLists: "(dp0
Vcom.fontlab.hintData
p1
(dp2
Vvhints
p3
(lp4
(dp5
Vposition
p6
L66L
sVwidth
p7
L10L
sa(dp8
g6
L164L
sg7
L10L
sa(dp9
g6
L456L
sg7
L10L
sa(dp10
g6
L546L
sg7
L10L
sa(dp11
g6
L564L
sg7
L10L
sa(dp12
g6
L644L
sg7
L10L
sasVhhints
p13
(lp14
(dp15
g6
L-24L
sg7
L10L
sa(dp16
g6
L46L
sg7
L10L
sa(dp17
g6
L742L
sg7
L10L
sa(dp18
g6
L811L
sg7
L10L
sass."
Substitution2: "Latin.dnom subtable" zero.dnom
Substitution2: "Latin.numr subtable" zero.numr
Substitution2: "Latin.subs subtable" zero.subs
Substitution2: "Latin.sups subtable" zero.sups
Substitution2: "Latin.pnum subtable" zero.pnum
EndChar

StartChar: one
Encoding: 49 49 21
GlifName: one
Width: 570
VWidth: 0
Flags: HMW
LayerCount: 2
Fore
SplineSet
154 630 m 1
 452 786 l 1
 569 774 l 1
 432 130 l 1
 573 130 l 1
 545 0 l 1
 60 0 l 1
 88 130 l 1
 268 130 l 1
 369 605 l 1
 199 512 l 1
 154 630 l 1
EndSplineSet
PickledDataWithLists: "(dp0
Vcom.fontlab.hintData
p1
(dp2
Vvhints
p3
(lp4
(dp5
Vposition
p6
L126L
sVwidth
p7
L10L
sa(dp8
g6
L364L
sg7
L10L
sa(dp9
g6
L371L
sg7
L10L
sa(dp10
g6
L462L
sg7
L10L
sa(dp11
g6
L469L
sg7
L10L
sa(dp12
g6
L677L
sg7
L10L
sasVhhints
p13
(lp14
(dp15
g6
L-19L
sg7
L10L
sa(dp16
g6
L-9L
sg7
L10L
sa(dp17
g6
L49L
sg7
L10L
sa(dp18
g6
L57L
sg7
L10L
sa(dp19
g6
L591L
sg7
L10L
sa(dp20
g6
L802L
sg7
L10L
sass."
Substitution2: "Latin.dnom subtable" one.dnom
Substitution2: "Latin.numr subtable" one.numr
Substitution2: "Latin.subs subtable" one.subs
Substitution2: "Latin.sups subtable" one.sups
Substitution2: "Latin.pnum subtable" one.pnum
EndChar

StartChar: two
Encoding: 50 50 22
GlifName: two
Width: 660
VWidth: 0
Flags: HMW
LayerCount: 2
Fore
SplineSet
8 60 m 0
 46 237 217 343 340 412 c 0
 425 460 485 504 499 570 c 0
 502 582 503 593 503 604 c 0
 503 648 480 679 417 679 c 0
 366 679 317 637 296 587 c 1
 128 603 l 1
 157 674 258 801 440 801 c 0
 629 801 666 694 666 618 c 0
 666 599 664 583 661 570 c 0
 633 440 503 356 420 308 c 0
 317 249 244 198 208 130 c 1
 573 130 l 1
 545 0 l 1
 4 0 l 1
 4 0 3 6 3 17 c 0
 3 28 4 42 8 60 c 0
EndSplineSet
PickledDataWithLists: "(dp0
Vcom.fontlab.hintData
p1
(dp2
Vvhints
p3
(lp4
(dp5
Vposition
p6
L71L
sVwidth
p7
L10L
sa(dp8
g6
L81L
sg7
L10L
sa(dp9
g6
L501L
sg7
L10L
sa(dp10
g6
L599L
sg7
L10L
sa(dp11
g6
L639L
sg7
L10L
sasVhhints
p12
(lp13
(dp14
g6
L-13L
sg7
L10L
sa(dp15
g6
L61L
sg7
L10L
sa(dp16
g6
L74L
sg7
L10L
sa(dp17
g6
L620L
sg7
L10L
sa(dp18
g6
L740L
sg7
L10L
sa(dp19
g6
L809L
sg7
L10L
sass."
Substitution2: "Latin.dnom subtable" two.dnom
Substitution2: "Latin.numr subtable" two.numr
Substitution2: "Latin.subs subtable" two.subs
Substitution2: "Latin.sups subtable" two.sups
Substitution2: "Latin.pnum subtable" two.pnum
EndChar

StartChar: three
Encoding: 51 51 23
GlifName: three
Width: 660
VWidth: 0
Flags: HMW
LayerCount: 2
Fore
SplineSet
103 603 m 1
 132 674 233 801 415 801 c 0
 604 801 641 694 641 618 c 0
 641 599 639 583 636 570 c 0
 619 489 564 437 507 402 c 1
 573 372 593 318 593 269 c 0
 593 255 592 242 589 230 c 0
 572 149 493 -21 239 -21 c 0
 49 -21 0 92 -6 137 c 1
 164 167 l 1
 168 140 186 99 264 99 c 0
 362 99 405 158 418 220 c 0
 420 231 421 242 421 252 c 0
 421 299 391 325 320 325 c 2
 204 325 l 1
 230 445 l 1
 330 445 l 2
 405 445 459 498 474 570 c 0
 477 582 478 593 478 604 c 0
 478 648 455 679 392 679 c 0
 341 679 292 637 271 587 c 1
 103 603 l 1
EndSplineSet
PickledDataWithLists: "(dp0
Vcom.fontlab.hintData
p1
(dp2
Vvhints
p3
(lp4
(dp5
Vposition
p6
L66L
sVwidth
p7
L10L
sa(dp8
g6
L76L
sg7
L10L
sa(dp9
g6
L203L
sg7
L10L
sa(dp10
g6
L491L
sg7
L10L
sa(dp11
g6
L546L
sg7
L10L
sa(dp12
g6
L589L
sg7
L10L
sa(dp13
g6
L644L
sg7
L10L
sasVhhints
p14
(lp15
(dp16
g6
L-27L
sg7
L10L
sa(dp17
g6
L44L
sg7
L10L
sa(dp18
g6
L150L
sg7
L10L
sa(dp19
g6
L361L
sg7
L10L
sa(dp20
g6
L372L
sg7
L10L
sa(dp21
g6
L630L
sg7
L10L
sa(dp22
g6
L741L
sg7
L10L
sa(dp23
g6
L810L
sg7
L10L
sass."
Substitution2: "Latin.dnom subtable" three.dnom
Substitution2: "Latin.numr subtable" three.numr
Substitution2: "Latin.subs subtable" three.subs
Substitution2: "Latin.sups subtable" three.sups
Substitution2: "Latin.pnum subtable" three.pnum
EndChar

StartChar: four
Encoding: 52 52 24
GlifName: four
Width: 650
VWidth: 0
Flags: HMW
LayerCount: 2
Fore
SplineSet
338 180 m 1
 5 180 l 1
 10 260 l 1
 487 786 l 1
 625 774 l 1
 524 300 l 1
 649 300 l 1
 623 180 l 1
 498 180 l 1
 460 0 l 1
 300 0 l 1
 338 180 l 1
369 300 m 1
 424 560 l 1
 194 300 l 1
 369 300 l 1
EndSplineSet
PickledDataWithLists: "(dp0
Vcom.fontlab.hintData
p1
(dp2
Vvhints
p3
(lp4
(dp5
Vposition
p6
L31L
sVwidth
p7
L10L
sa(dp8
g6
L276L
sg7
L10L
sa(dp9
g6
L374L
sg7
L10L
sa(dp10
g6
L455L
sg7
L10L
sa(dp11
g6
L554L
sg7
L10L
sa(dp12
g6
L679L
sg7
L10L
sasVhhints
p13
(lp14
(dp15
g6
L-30L
sg7
L10L
sa(dp16
g6
L174L
sg7
L10L
sa(dp17
g6
L243L
sg7
L10L
sa(dp18
g6
L259L
sg7
L10L
sa(dp19
g6
L609L
sg7
L10L
sa(dp20
g6
L819L
sg7
L10L
sass."
Substitution2: "Latin.dnom subtable" four.dnom
Substitution2: "Latin.numr subtable" four.numr
Substitution2: "Latin.subs subtable" four.subs
Substitution2: "Latin.sups subtable" four.sups
Substitution2: "Latin.pnum subtable" four.pnum
EndChar

StartChar: five
Encoding: 53 53 25
GlifName: five
Width: 660
VWidth: 0
Flags: HMW
LayerCount: 2
Fore
SplineSet
14 137 m 1
 184 167 l 1
 188 140 206 99 284 99 c 0
 382 99 427 168 442 240 c 0
 446 258 448 276 448 292 c 0
 448 344 425 381 359 381 c 0
 301 381 246 336 204 290 c 1
 203 291 l 1
 203 290 l 1
 96 354 l 1
 202 780 l 1
 679 780 l 1
 653 660 l 1
 331 660 l 1
 283 464 l 1
 319 482 362 496 416 496 c 0
 582 496 618 383 618 302 c 0
 618 282 616 264 613 250 c 0
 595 166 513 -21 259 -21 c 0
 69 -21 20 92 14 137 c 1
EndSplineSet
PickledDataWithLists: "(dp0
Vcom.fontlab.hintData
p1
(dp2
Vvhints
p3
(lp4
(dp5
Vposition
p6
L76L
sVwidth
p7
L10L
sa(dp8
g6
L106L
sg7
L10L
sa(dp9
g6
L125L
sg7
L10L
sa(dp10
g6
L226L
sg7
L10L
sa(dp11
g6
L541L
sg7
L10L
sa(dp12
g6
L614L
sg7
L10L
sa(dp13
g6
L639L
sg7
L10L
sasVhhints
p14
(lp15
(dp16
g6
L-26L
sg7
L10L
sa(dp17
g6
L43L
sg7
L10L
sa(dp18
g6
L150L
sg7
L10L
sa(dp19
g6
L334L
sg7
L10L
sa(dp20
g6
L409L
sg7
L10L
sa(dp21
g6
L477L
sg7
L10L
sa(dp22
g6
L716L
sg7
L10L
sa(dp23
g6
L784L
sg7
L10L
sa(dp24
g6
L795L
sg7
L10L
sass."
Substitution2: "Latin.dnom subtable" five.dnom
Substitution2: "Latin.numr subtable" five.numr
Substitution2: "Latin.subs subtable" five.subs
Substitution2: "Latin.sups subtable" five.sups
Substitution2: "Latin.pnum subtable" five.pnum
EndChar

StartChar: six
Encoding: 54 54 26
GlifName: six
Width: 660
VWidth: 0
Flags: HMW
LayerCount: 2
Fore
SplineSet
69 301 m 2
 97 434 l 2
 121 549 194 801 454 801 c 0
 642 801 671 674 675 632 c 1
 508 606 l 1
 505 642 488 679 428 679 c 0
 354 679 303 599 269 459 c 1
 310 482 358 495 413 495 c 0
 552 495 618 410 618 302 c 0
 618 282 616 261 611 240 c 0
 583 107 466 -21 280 -21 c 0
 124 -21 57 65 57 196 c 0
 57 228 61 264 69 301 c 2
446 240 m 0
 450 258 452 274 452 288 c 0
 452 356 410 381 359 381 c 0
 310 381 260 352 231 280 c 1
 226 251 223 226 223 206 c 0
 223 114 269 101 305 101 c 0
 359 101 423 133 446 240 c 0
EndSplineSet
PickledDataWithLists: "(dp0
Vcom.fontlab.hintData
p1
(dp2
Vvhints
p3
(lp4
(dp5
Vposition
p6
L32L
sVwidth
p7
L10L
sa(dp8
g6
L90L
sg7
L10L
sa(dp9
g6
L188L
sg7
L10L
sa(dp10
g6
L464L
sg7
L10L
sa(dp11
g6
L560L
sg7
L10L
sa(dp12
g6
L658L
sg7
L10L
sasVhhints
p13
(lp14
(dp15
g6
L-29L
sg7
L10L
sa(dp16
g6
L39L
sg7
L10L
sa(dp17
g6
L251L
sg7
L10L
sa(dp18
g6
L397L
sg7
L10L
sa(dp19
g6
L466L
sg7
L10L
sa(dp20
g6
L819L
sg7
L10L
sass."
Substitution2: "Latin.dnom subtable" six.dnom
Substitution2: "Latin.numr subtable" six.numr
Substitution2: "Latin.subs subtable" six.subs
Substitution2: "Latin.sups subtable" six.sups
Substitution2: "Latin.pnum subtable" six.pnum
EndChar

StartChar: seven
Encoding: 55 55 27
GlifName: seven
Width: 585
VWidth: 0
Flags: HMW
LayerCount: 2
Fore
SplineSet
128 650 m 1
 156 780 l 1
 694 780 l 0
 686 689 l 0
 555 554 370 291 321 60 c 0
 308 0 l 1
 133 0 l 1
 146 60 l 0
 189 261 347 485 483 650 c 1
 128 650 l 1
EndSplineSet
PickledDataWithLists: "(dp0
Vcom.fontlab.hintData
p1
(dp2
Vvhints
p3
(lp4
(dp5
Vposition
p6
L69L
sVwidth
p7
L10L
sa(dp8
g6
L199L
sg7
L10L
sa(dp9
g6
L274L
sg7
L10L
sa(dp10
g6
L648L
sg7
L10L
sasVhhints
p11
(lp12
(dp13
g6
L-19L
sg7
L10L
sa(dp14
g6
L554L
sg7
L10L
sa(dp15
g6
L716L
sg7
L10L
sa(dp16
g6
L784L
sg7
L10L
sa(dp17
g6
L795L
sg7
L10L
sass."
Substitution2: "Latin.dnom subtable" seven.dnom
Substitution2: "Latin.numr subtable" seven.numr
Substitution2: "Latin.subs subtable" seven.subs
Substitution2: "Latin.sups subtable" seven.sups
Substitution2: "Latin.pnum subtable" seven.pnum
EndChar

StartChar: eight
Encoding: 56 56 28
GlifName: eight
Width: 660
VWidth: 0
Flags: HMW
LayerCount: 2
Fore
SplineSet
266 -21 m 0
 105 -21 15 63 15 168 c 0
 15 182 17 196 20 210 c 0
 44 323 143 374 209 401 c 1
 165 427 127 468 127 533 c 0
 127 546 129 559 132 574 c 0
 157 693 276 801 440 801 c 0
 583 801 657 719 657 619 c 0
 657 604 655 589 652 574 c 0
 633 484 567 432 501 401 c 1
 548 377 614 335 614 250 c 0
 614 238 613 224 610 210 c 0
 584 86 448 -21 266 -21 c 0
291 99 m 0
 367 99 424 134 440 210 c 0
 442 222 443 232 443 241 c 0
 443 289 413 311 383 325 c 0
 373 330 359 336 343 343 c 1
 325 336 307 330 295 325 c 0
 251 308 205 281 190 210 c 0
 188 199 186 189 186 180 c 0
 186 125 226 99 291 99 c 0
415 681 m 0
 371 681 314 655 297 574 c 0
 295 563 294 554 294 545 c 0
 294 503 317 480 339 470 c 0
 347 467 356 462 367 458 c 1
 380 462 391 467 401 470 c 0
 433 482 474 513 487 574 c 0
 490 586 491 597 491 607 c 0
 491 663 452 681 415 681 c 0
EndSplineSet
PickledDataWithLists: "(dp0
Vcom.fontlab.hintData
p1
(dp2
Vvhints
p3
(lp4
(dp5
Vposition
p6
L76L
sVwidth
p7
L10L
sa(dp8
g6
L87L
sg7
L10L
sa(dp9
g6
L174L
sg7
L10L
sa(dp10
g6
L185L
sg7
L10L
sa(dp11
g6
L549L
sg7
L10L
sa(dp12
g6
L584L
sg7
L10L
sa(dp13
g6
L594L
sg7
L10L
sa(dp14
g6
L649L
sg7
L10L
sasVhhints
p15
(lp16
(dp17
g6
L-24L
sg7
L10L
sa(dp18
g6
L44L
sg7
L10L
sa(dp19
g6
L394L
sg7
L9L
sa(dp20
g6
L610L
sg7
L10L
sa(dp21
g6
L651L
sg7
L10L
sa(dp22
g6
L741L
sg7
L10L
sa(dp23
g6
L809L
sg7
L10L
sass."
Substitution2: "Latin.dnom subtable" eight.dnom
Substitution2: "Latin.numr subtable" eight.numr
Substitution2: "Latin.subs subtable" eight.subs
Substitution2: "Latin.sups subtable" eight.sups
Substitution2: "Latin.pnum subtable" eight.pnum
EndChar

StartChar: nine
Encoding: 57 57 29
GlifName: nine
Width: 660
VWidth: 0
Flags: HMW
LayerCount: 2
Fore
SplineSet
637 479 m 2
 609 346 l 2
 585 231 512 -21 252 -21 c 0
 64 -21 34 106 30 148 c 1
 198 174 l 1
 201 138 217 101 277 101 c 0
 351 101 403 181 437 321 c 1
 396 298 348 285 293 285 c 0
 154 285 88 370 88 478 c 0
 88 498 90 519 95 540 c 0
 123 673 240 801 426 801 c 0
 582 801 649 715 649 584 c 0
 649 552 645 516 637 479 c 2
260 540 m 0
 256 522 254 506 254 492 c 0
 254 424 296 399 347 399 c 0
 396 399 446 428 475 500 c 1
 480 529 483 554 483 574 c 0
 483 666 436 679 400 679 c 0
 346 679 283 647 260 540 c 0
EndSplineSet
PickledDataWithLists: "(dp0
Vcom.fontlab.hintData
p1
(dp2
Vvhints
p3
(lp4
(dp5
Vposition
p6
L52L
sVwidth
p7
L10L
sa(dp8
g6
L150L
sg7
L10L
sa(dp9
g6
L246L
sg7
L10L
sa(dp10
g6
L521L
sg7
L10L
sa(dp11
g6
L620L
sg7
L10L
sa(dp12
g6
L678L
sg7
L10L
sasVhhints
p13
(lp14
(dp15
g6
L-29L
sg7
L10L
sa(dp16
g6
L324L
sg7
L10L
sa(dp17
g6
L393L
sg7
L10L
sa(dp18
g6
L539L
sg7
L10L
sa(dp19
g6
L751L
sg7
L10L
sa(dp20
g6
L819L
sg7
L10L
sass."
Substitution2: "Latin.dnom subtable" nine.dnom
Substitution2: "Latin.numr subtable" nine.numr
Substitution2: "Latin.subs subtable" nine.subs
Substitution2: "Latin.sups subtable" nine.sups
Substitution2: "Latin.pnum subtable" nine.pnum
EndChar

StartChar: colon
Encoding: 58 58 30
GlifName: colon
Width: 330
VWidth: 0
Flags: HMW
LayerCount: 2
Fore
SplineSet
27 82 m 0
 38 136 87 170 141 170 c 0
 188 170 220 144 220 102 c 0
 220 96 219 89 217 82 c 0
 206 28 158 -6 104 -6 c 0
 57 -6 25 20 25 62 c 0
 25 68 25 75 27 82 c 0
117 502 m 0
 128 556 176 590 230 590 c 0
 277 590 309 564 309 522 c 0
 309 516 309 509 307 502 c 0
 296 448 247 414 193 414 c 0
 146 414 114 440 114 482 c 0
 114 488 115 495 117 502 c 0
EndSplineSet
PickledDataWithLists: "(dp0
Vcom.fontlab.hintData
p1
(dp2
Vvhints
p3
(lp4
(dp5
Vposition
p6
L81L
sVwidth
p7
L10L
sa(dp8
g6
L238L
sg7
L10L
sasVhhints
p9
(lp10
(dp11
g6
L-5L
sg7
L10L
sa(dp12
g6
L122L
sg7
L10L
sa(dp13
g6
L475L
sg7
L10L
sa(dp14
g6
L602L
sg7
L10L
sass."
EndChar

StartChar: semicolon
Encoding: 59 59 31
GlifName: semicolon
Width: 330
VWidth: 0
Flags: HMW
LayerCount: 2
Fore
SplineSet
27 78 m 0
 38 131 81 170 141 170 c 0
 205 170 228 128 228 80 c 0
 228 69 227 57 225 45 c 0
 199 -78 95 -166 13 -210 c 1
 -21 -146 l 1
 29 -119 77 -74 104 -6 c 1
 102 -6 101 -6 99 -6 c 0
 55 -6 24 18 24 58 c 0
 24 64 26 71 27 78 c 0
117 502 m 0
 128 556 176 590 230 590 c 0
 277 590 309 564 309 522 c 0
 309 516 309 509 307 502 c 0
 296 448 247 414 193 414 c 0
 146 414 114 440 114 482 c 0
 114 488 115 495 117 502 c 0
EndSplineSet
PickledDataWithLists: "(dp0
Vcom.fontlab.hintData
p1
(dp2
Vvhints
p3
(lp4
(dp5
Vposition
p6
L61L
sVwidth
p7
L10L
sa(dp8
g6
L81L
sg7
L10L
sa(dp9
g6
L170L
sg7
L10L
sa(dp10
g6
L239L
sg7
L10L
sa(dp11
g6
L251L
sg7
L10L
sasVhhints
p12
(lp13
(dp14
g6
L-182L
sg7
L10L
sa(dp15
g6
L48L
sg7
L10L
sa(dp16
g6
L117L
sg7
L10L
sa(dp17
g6
L475L
sg7
L10L
sa(dp18
g6
L602L
sg7
L10L
sass."
EndChar

StartChar: less
Encoding: 60 60 32
GlifName: less
Width: 600
VWidth: 0
Flags: HMW
LayerCount: 2
Fore
SplineSet
82 315 m 1
 92 360 l 1
 101 405 l 1
 575 660 l 1
 579 535 l 1
 242 360 l 1
 504 185 l 1
 448 60 l 1
 82 315 l 1
EndSplineSet
PickledDataWithLists: "(dp0
Vcom.fontlab.hintData
p1
(dp2
Vvhints
p3
(lp4
(dp5
Vposition
p6
L63L
sVwidth
p7
L10L
sa(dp8
g6
L514L
sg7
L10L
sa(dp9
g6
L524L
sg7
L10L
sasVhhints
p10
(lp11
(dp12
g6
L65L
sg7
L10L
sa(dp13
g6
L606L
sg7
L10L
sass."
EndChar

StartChar: equal
Encoding: 61 61 33
GlifName: equal
Width: 600
VWidth: 0
Flags: HMW
LayerCount: 2
Fore
SplineSet
79 300 m 25
 529 300 l 25
 504 185 l 25
 54 185 l 25
 79 300 l 25
129 535 m 25
 579 535 l 25
 554 420 l 25
 104 420 l 25
 129 535 l 25
EndSplineSet
PickledDataWithLists: "(dp0
Vcom.fontlab.hintData
p1
(dp2
Vvhints
p3
(lp4
(dp5
Vposition
p6
L75L
sVwidth
p7
L10L
sa(dp8
g6
L514L
sg7
L10L
sasVhhints
p9
(lp10
(dp11
g6
L201L
sg7
L10L
sa(dp12
g6
L263L
sg7
L10L
sa(dp13
g6
L271L
sg7
L10L
sa(dp14
g6
L401L
sg7
L10L
sa(dp15
g6
L463L
sg7
L10L
sa(dp16
g6
L471L
sg7
L10L
sass."
EndChar

StartChar: greater
Encoding: 62 62 34
GlifName: greater
Width: 600
VWidth: 0
Flags: HMW
LayerCount: 2
Fore
SplineSet
551 405 m 1
 542 360 l 1
 532 315 l 1
 58 60 l 1
 54 185 l 1
 392 360 l 1
 129 535 l 1
 185 660 l 1
 551 405 l 1
EndSplineSet
PickledDataWithLists: "(dp0
Vcom.fontlab.hintData
p1
(dp2
Vvhints
p3
(lp4
(dp5
Vposition
p6
L66L
sVwidth
p7
L10L
sa(dp8
g6
L76L
sg7
L10L
sa(dp9
g6
L527L
sg7
L10L
sasVhhints
p10
(lp11
(dp12
g6
L64L
sg7
L10L
sa(dp13
g6
L605L
sg7
L10L
sass."
EndChar

StartChar: question
Encoding: 63 63 35
GlifName: question
Width: 570
VWidth: 0
Flags: HMW
LayerCount: 2
Fore
SplineSet
147 82 m 0
 158 136 207 170 261 170 c 0
 308 170 340 144 340 102 c 0
 340 96 339 89 337 82 c 0
 326 28 278 -6 224 -6 c 0
 177 -6 145 20 145 62 c 0
 145 68 145 75 147 82 c 0
116 640 m 0
 138 744 249 831 402 831 c 0
 529 831 599 770 599 676 c 0
 599 662 597 646 594 630 c 0
 559 467 361 431 340 330 c 0
 338 322 338 315 338 308 c 0
 338 300 339 292 341 285 c 1
 207 270 l 1
 202 284 199 298 199 313 c 0
 199 322 200 331 202 340 c 0
 235 494 399 510 423 625 c 0
 425 636 426 645 426 653 c 0
 426 698 395 708 370 708 c 0
 331 708 296 689 286 640 c 0
 284 631 283 621 283 612 c 0
 283 604 283 597 285 590 c 1
 117 550 l 1
 113 565 112 581 112 597 c 0
 112 611 113 626 116 640 c 0
EndSplineSet
PickledDataWithLists: "(dp0
Vcom.fontlab.hintData
p1
(dp2
Vvhints
p3
(lp4
(dp5
Vposition
p6
L11L
sVwidth
p7
L10L
sa(dp8
g6
L98L
sg7
L10L
sa(dp9
g6
L120L
sg7
L10L
sa(dp10
g6
L152L
sg7
L10L
sa(dp11
g6
L161L
sg7
L10L
sa(dp12
g6
L241L
sg7
L10L
sa(dp13
g6
L254L
sg7
L10L
sa(dp14
g6
L310L
sg7
L10L
sa(dp15
g6
L351L
sg7
L10L
sa(dp16
g6
L439L
sg7
L10L
sasVhhints
p17
(lp18
(dp19
g6
L-5L
sg7
L10L
sa(dp20
g6
L122L
sg7
L10L
sa(dp21
g6
L255L
sg7
L10L
sa(dp22
g6
L594L
sg7
L10L
sa(dp23
g6
L784L
sg7
L10L
sa(dp24
g6
L846L
sg7
L10L
sass."
EndChar

StartChar: at
Encoding: 64 64 36
GlifName: at
Width: 1020
VWidth: 0
Flags: HMW
LayerCount: 2
Fore
SplineSet
61 238 m 0
 114 489 349 780 664 780 c 0
 886 780 984 648 984 487 c 0
 984 457 981 426 974 395 c 0
 940 234 804 31 645 31 c 0
 588 31 564 57 557 88 c 1
 516 51 467 25 415 25 c 0
 295 25 258 100 258 176 c 0
 258 194 260 213 264 230 c 0
 292 363 428 567 639 567 c 0
 725 567 752 513 752 462 c 0
 752 451 751 441 749 431 c 0
 739 386 696 294 696 292 c 0
 673 232 657 187 651 157 c 0
 649 147 648 138 648 131 c 0
 648 118 653 111 662 111 c 0
 725 111 851 240 884 395 c 0
 890 424 893 452 893 478 c 0
 893 608 816 700 647 700 c 0
 406 700 200 467 151 238 c 0
 144 205 140 173 140 143 c 0
 140 -1 222 -110 419 -110 c 0
 483 -110 571 -76 598 -62 c 1
 634 -128 l 1
 593 -150 496 -190 402 -190 c 0
 150 -190 49 -42 49 132 c 0
 49 167 53 202 61 238 c 0
434 115 m 0
 495 115 544 180 591 308 c 0
 591 309 633 405 639 431 c 0
 641 439 641 446 641 451 c 0
 641 474 628 477 619 477 c 0
 532 477 411 357 384 230 c 0
 381 214 379 200 379 188 c 0
 379 136 406 115 434 115 c 0
EndSplineSet
PickledDataWithLists: "(dp0
Vcom.fontlab.hintData
p1
(dp2
Vvhints
p3
(lp4
(dp5
Vposition
p6
L74L
sVwidth
p7
L10L
sa(dp8
g6
L143L
sg7
L10L
sa(dp9
g6
L293L
sg7
L10L
sa(dp10
g6
L372L
sg7
L10L
sa(dp11
g6
L622L
sg7
L10L
sa(dp12
g6
L670L
sg7
L10L
sa(dp13
g6
L702L
sg7
L10L
sa(dp14
g6
L726L
sg7
L10L
sa(dp15
g6
L865L
sg7
L10L
sa(dp16
g6
L935L
sg7
L10L
sasVhhints
p17
(lp18
(dp19
g6
L-179L
sg7
L10L
sa(dp20
g6
L-131L
sg7
L10L
sa(dp21
g6
L-76L
sg7
L10L
sa(dp22
g6
L38L
sg7
L10L
sa(dp23
g6
L92L
sg7
L10L
sa(dp24
g6
L352L
sg7
L10L
sa(dp25
g6
L399L
sg7
L10L
sa(dp26
g6
L490L
sg7
L10L
sa(dp27
g6
L544L
sg7
L10L
sa(dp28
g6
L711L
sg7
L10L
sa(dp29
g6
L759L
sg7
L10L
sass."
EndChar

StartChar: A
Encoding: 65 65 37
GlifName: A_
Width: 750
VWidth: 0
Flags: HMW
AnchorPoint: "LatinOgonek.mark" 610 0 basechar 0
AnchorPoint: "LatinBelow.mark" 315 0 basechar 0
AnchorPoint: "LatinAbove.mark" 347 150 basechar 0
LayerCount: 2
Fore
SplineSet
690 0 m 1
 500 0 l 1
 483 150 l 1
 211 150 l 1
 130 0 l 1
 -60 0 l 1
 -58 11 l 1
 411 780 l 1
 551 780 l 1
 692 11 l 1
 690 0 l 1
469 270 m 1
 435 566 l 1
 275 270 l 1
 469 270 l 1
EndSplineSet
PickledDataWithLists: "(dp0
Vcom.fontlab.hintData
p1
(dp2
Vvhints
p3
(lp4
(dp5
Vposition
p6
L33L
sVwidth
p7
L10L
sa(dp8
g6
L39L
sg7
L10L
sa(dp9
g6
L763L
sg7
L10L
sasVhhints
p10
(lp11
(dp12
g6
L-16L
sg7
L10L
sa(dp13
g6
L3L
sg7
L10L
sa(dp14
g6
L179L
sg7
L10L
sa(dp15
g6
L209L
sg7
L10L
sa(dp16
g6
L271L
sg7
L10L
sa(dp17
g6
L810L
sg7
L10L
sass."
EndChar

StartChar: B
Encoding: 66 66 38
GlifName: B_
Width: 745
VWidth: 0
Flags: HMW
AnchorPoint: "LatinBelow.mark" 260 0 basechar 0
AnchorPoint: "LatinAbove.mark" 292 150 basechar 0
LayerCount: 2
Fore
SplineSet
575 440 m 1
 655 411 700 359 700 282 c 0
 700 267 698 251 695 235 c 0
 663 85 508 -9 308 -9 c 0
 170 -9 15 0 15 0 c 1
 181 780 l 1
 181 780 329 789 453 789 c 0
 593 789 699 730 699 626 c 0
 699 614 698 603 695 590 c 0
 680 519 634 471 575 440 c 1
409 464 m 1
 455 470 511 502 527 575 c 0
 529 583 530 591 530 598 c 0
 530 649 484 670 407 670 c 0
 368 670 330 668 317 667 c 1
 273 462 l 1
 314 463 362 464 409 464 c 1
199 115 m 1
 230 113 275 111 314 111 c 0
 416 111 508 136 529 235 c 0
 531 245 532 255 532 264 c 0
 532 338 456 354 365 354 c 0
 326 354 280 352 249 350 c 1
 199 115 l 1
EndSplineSet
PickledDataWithLists: "(dp0
Vcom.fontlab.hintData
p1
(dp2
Vvhints
p3
(lp4
(dp5
Vposition
p6
L26L
sVwidth
p7
L10L
sa(dp8
g6
L116L
sg7
L10L
sa(dp9
g6
L121L
sg7
L10L
sa(dp10
g6
L223L
sg7
L10L
sa(dp11
g6
L537L
sg7
L10L
sa(dp12
g6
L636L
sg7
L10L
sa(dp13
g6
L735L
sg7
L10L
sasVhhints
p14
(lp15
(dp16
g6
L-22L
sg7
L10L
sa(dp17
g6
L49L
sg7
L10L
sa(dp18
g6
L395L
sg7
L10L
sa(dp19
g6
L634L
sg7
L10L
sa(dp20
g6
L661L
sg7
L10L
sa(dp21
g6
L742L
sg7
L10L
sa(dp22
g6
L809L
sg7
L10L
sass."
Colour: ff00
EndChar

StartChar: C
Encoding: 67 67 39
GlifName: C_
Width: 755
VWidth: 0
Flags: HMW
AnchorPoint: "LatinCedilla.mark" 352 0 basechar 0
AnchorPoint: "LatinBelow.mark" 350 0 basechar 0
AnchorPoint: "LatinAbove.mark" 382 150 basechar 0
LayerCount: 2
Fore
SplineSet
65 375 m 2
 71 405 l 2
 108 580 233 801 522 801 c 0
 731 801 794 668 794 586 c 0
 794 585 794 583 794 582 c 1
 616 566 l 1
 616 567 616 569 616 570 c 0
 616 619 579 673 495 673 c 0
 378 673 287 582 249 405 c 2
 243 375 l 2
 235 337 231 303 231 273 c 0
 231 163 283 107 375 107 c 0
 461 107 521 164 541 214 c 1
 712 198 l 1
 680 116 560 -21 348 -21 c 0
 120 -21 52 117 52 261 c 0
 52 299 57 338 65 375 c 2
EndSplineSet
PickledDataWithLists: "(dp0
Vcom.fontlab.hintData
p1
(dp2
Vvhints
p3
(lp4
(dp5
Vposition
p6
L68L
sVwidth
p7
L10L
sa(dp8
g6
L172L
sg7
L10L
sa(dp9
g6
L569L
sg7
L10L
sa(dp10
g6
L673L
sg7
L10L
sa(dp11
g6
L707L
sg7
L10L
sasVhhints
p12
(lp13
(dp14
g6
L-20L
sg7
L10L
sa(dp15
g6
L52L
sg7
L10L
sa(dp16
g6
L169L
sg7
L10L
sa(dp17
g6
L586L
sg7
L10L
sa(dp18
g6
L739L
sg7
L10L
sa(dp19
g6
L811L
sg7
L10L
sass."
Colour: ff00
EndChar

StartChar: D
Encoding: 68 68 40
GlifName: D_
Width: 770
VWidth: 0
Flags: HMW
AnchorPoint: "LatinBelow.mark" 260 0 basechar 0
AnchorPoint: "LatinAbove.mark" 292 150 basechar 0
LayerCount: 2
Fore
SplineSet
209 114 m 1
 228 114 248 113 264 113 c 0
 449 113 541 215 576 380 c 2
 580 400 l 2
 587 433 591 463 591 490 c 0
 591 601 530 667 382 667 c 0
 366 667 346 666 327 666 c 1
 209 114 l 1
181 780 m 1
 181 780 295 789 408 789 c 0
 674 789 760 647 760 495 c 0
 760 463 757 431 750 400 c 2
 746 380 l 2
 707 197 559 -9 238 -9 c 0
 125 -9 15 0 15 0 c 1
 181 780 l 1
EndSplineSet
PickledDataWithLists: "(dp0
Vcom.fontlab.hintData
p1
(dp2
Vvhints
p3
(lp4
(dp5
Vposition
p6
L26L
sVwidth
p7
L10L
sa(dp8
g6
L116L
sg7
L10L
sa(dp9
g6
L121L
sg7
L10L
sa(dp10
g6
L223L
sg7
L10L
sa(dp11
g6
L630L
sg7
L10L
sa(dp12
g6
L729L
sg7
L10L
sasVhhints
p13
(lp14
(dp15
g6
L-21L
sg7
L10L
sa(dp16
g6
L49L
sg7
L10L
sa(dp17
g6
L634L
sg7
L10L
sa(dp18
g6
L661L
sg7
L10L
sa(dp19
g6
L742L
sg7
L10L
sa(dp20
g6
L810L
sg7
L10L
sass."
EndChar

StartChar: E
Encoding: 69 69 41
GlifName: E_
Width: 675
VWidth: 0
Flags: HMW
AnchorPoint: "LatinOgonek.mark" 485 0 basechar 0
AnchorPoint: "LatinBelow.mark" 290 0 basechar 0
AnchorPoint: "LatinAbove.mark" 322 150 basechar 0
LayerCount: 2
Fore
SplineSet
15 0 m 1
 181 780 l 1
 726 780 l 1
 698 650 l 1
 323 650 l 1
 280 445 l 1
 615 445 l 1
 589 325 l 1
 254 325 l 1
 213 130 l 1
 603 130 l 1
 575 0 l 1
 15 0 l 1
EndSplineSet
PickledDataWithLists: "(dp0
Vcom.fontlab.hintData
p1
(dp2
Vvhints
p3
(lp4
(dp5
Vposition
p6
L66L
sVwidth
p7
L10L
sa(dp8
g6
L106L
sg7
L10L
sa(dp9
g6
L121L
sg7
L10L
sa(dp10
g6
L204L
sg7
L10L
sa(dp11
g6
L220L
sg7
L10L
sa(dp12
g6
L564L
sg7
L10L
sa(dp13
g6
L644L
sg7
L10L
sa(dp14
g6
L674L
sg7
L10L
sasVhhints
p15
(lp16
(dp17
g6
L-24L
sg7
L10L
sa(dp18
g6
L-9L
sg7
L10L
sa(dp19
g6
L46L
sg7
L10L
sa(dp20
g6
L59L
sg7
L10L
sa(dp21
g6
L361L
sg7
L10L
sa(dp22
g6
L423L
sg7
L10L
sa(dp23
g6
L726L
sg7
L10L
sa(dp24
g6
L794L
sg7
L10L
sa(dp25
g6
L799L
sg7
L10L
sa(dp26
g6
L804L
sg7
L10L
sass."
Colour: ff00
EndChar

StartChar: F
Encoding: 70 70 42
GlifName: F_
Width: 640
VWidth: 0
Flags: HMW
AnchorPoint: "LatinBelow.mark" 100 0 basechar 0
AnchorPoint: "LatinAbove.mark" 312 150 basechar 0
LayerCount: 2
Fore
SplineSet
15 0 m 1
 181 780 l 1
 716 780 l 1
 688 650 l 1
 325 650 l 1
 283 450 l 1
 606 450 l 1
 578 320 l 1
 255 320 l 1
 187 0 l 1
 15 0 l 1
EndSplineSet
PickledDataWithLists: "(dp0
Vcom.fontlab.hintData
p1
(dp2
Vvhints
p3
(lp4
(dp5
Vposition
p6
L59L
sVwidth
p7
L10L
sa(dp8
g6
L66L
sg7
L10L
sa(dp9
g6
L116L
sg7
L10L
sa(dp10
g6
L124L
sg7
L10L
sa(dp11
g6
L214L
sg7
L10L
sa(dp12
g6
L222L
sg7
L10L
sa(dp13
g6
L564L
sg7
L10L
sa(dp14
g6
L644L
sg7
L10L
sasVhhints
p15
(lp16
(dp17
g6
L-14L
sg7
L10L
sa(dp18
g6
L355L
sg7
L10L
sa(dp19
g6
L360L
sg7
L10L
sa(dp20
g6
L423L
sg7
L10L
sa(dp21
g6
L726L
sg7
L10L
sa(dp22
g6
L794L
sg7
L10L
sa(dp23
g6
L799L
sg7
L10L
sa(dp24
g6
L804L
sg7
L10L
sass."
Colour: ff00
EndChar

StartChar: G
Encoding: 71 71 43
GlifName: G_
Width: 770
VWidth: 0
Flags: HMW
AnchorPoint: "LatinBelow.mark" 350 0 basechar 0
AnchorPoint: "LatinAbove.mark" 382 150 basechar 0
LayerCount: 2
Fore
SplineSet
416 285 m 1
 441 405 l 1
 751 405 l 1
 694 135 l 1
 638 66 522 -21 348 -21 c 0
 120 -21 52 117 52 261 c 0
 52 299 57 338 65 375 c 2
 71 405 l 2
 108 580 233 801 522 801 c 0
 731 801 794 668 794 586 c 0
 794 585 794 583 794 582 c 1
 618 566 l 1
 618 567 618 569 618 570 c 0
 618 619 581 675 495 675 c 0
 374 675 283 586 245 405 c 2
 239 375 l 2
 231 336 226 302 226 271 c 0
 226 160 279 105 374 105 c 0
 460 105 512 131 544 160 c 1
 571 285 l 1
 416 285 l 1
EndSplineSet
PickledDataWithLists: "(dp0
Vcom.fontlab.hintData
p1
(dp2
Vvhints
p3
(lp4
(dp5
Vposition
p6
L71L
sVwidth
p7
L10L
sa(dp8
g6
L169L
sg7
L10L
sa(dp9
g6
L386L
sg7
L10L
sa(dp10
g6
L572L
sg7
L10L
sa(dp11
g6
L615L
sg7
L10L
sa(dp12
g6
L670L
sg7
L10L
sa(dp13
g6
L715L
sg7
L10L
sasVhhints
p14
(lp15
(dp16
g6
L-24L
sg7
L10L
sa(dp17
g6
L44L
sg7
L10L
sa(dp18
g6
L290L
sg7
L10L
sa(dp19
g6
L390L
sg7
L10L
sa(dp20
g6
L587L
sg7
L10L
sa(dp21
g6
L741L
sg7
L10L
sa(dp22
g6
L810L
sg7
L10L
sass."
Colour: ff00
EndChar

StartChar: H
Encoding: 72 72 44
GlifName: H_
Width: 790
VWidth: 0
Flags: HMW
AnchorPoint: "LatinBelow.mark" 335 0 basechar 0
AnchorPoint: "LatinAbove.mark" 367 150 basechar 0
LayerCount: 2
Fore
SplineSet
15 0 m 1
 181 780 l 1
 351 780 l 1
 282 455 l 1
 582 455 l 1
 651 780 l 1
 821 780 l 1
 655 0 l 1
 485 0 l 1
 554 325 l 1
 254 325 l 1
 185 0 l 1
 15 0 l 1
EndSplineSet
PickledDataWithLists: "(dp0
Vcom.fontlab.hintData
p1
(dp2
Vvhints
p3
(lp4
(dp5
Vposition
p6
L66L
sVwidth
p7
L10L
sa(dp8
g6
L101L
sg7
L10L
sa(dp9
g6
L111L
sg7
L10L
sa(dp10
g6
L211L
sg7
L10L
sa(dp11
g6
L605L
sg7
L10L
sa(dp12
g6
L704L
sg7
L10L
sa(dp13
g6
L744L
sg7
L10L
sasVhhints
p14
(lp15
(dp16
g6
L-14L
sg7
L10L
sa(dp17
g6
L355L
sg7
L10L
sa(dp18
g6
L423L
sg7
L10L
sa(dp19
g6
L794L
sg7
L10L
sa(dp20
g6
L799L
sg7
L10L
sass."
Colour: ff00
EndChar

StartChar: I
Encoding: 73 73 45
GlifName: I_
Width: 320
VWidth: 0
Flags: HMW
AnchorPoint: "LatinOgonek.mark" 105 0 basechar 0
AnchorPoint: "LatinBelow.mark" 100 0 basechar 0
AnchorPoint: "LatinAbove.mark" 132 150 basechar 0
LayerCount: 2
Fore
SplineSet
15 0 m 1
 181 780 l 1
 351 780 l 1
 185 0 l 1
 15 0 l 1
EndSplineSet
PickledDataWithLists: "(dp0
Vcom.fontlab.hintData
p1
(dp2
Vvhints
p3
(lp4
(dp5
Vposition
p6
L53L
sVwidth
p7
L10L
sa(dp8
g6
L77L
sg7
L10L
sa(dp9
g6
L188L
sg7
L10L
sa(dp10
g6
L194L
sg7
L10L
sa(dp11
g6
L282L
sg7
L10L
sa(dp12
g6
L288L
sg7
L10L
sa(dp13
g6
L414L
sg7
L10L
sasVhhints
p14
(lp15
(dp16
g6
L-3L
sg7
L10L
sa(dp17
g6
L3L
sg7
L10L
sa(dp18
g6
L59L
sg7
L10L
sa(dp19
g6
L67L
sg7
L10L
sa(dp20
g6
L729L
sg7
L10L
sa(dp21
g6
L788L
sg7
L10L
sass."
Colour: ff00
EndChar

StartChar: J
Encoding: 74 74 46
GlifName: J_
Width: 520
VWidth: 0
Flags: HMW
AnchorPoint: "LatinBelow.mark" 170 0 basechar 0
AnchorPoint: "LatinAbove.mark" 332 150 basechar 0
LayerCount: 2
Fore
SplineSet
-25 143 m 1
 148 155 l 1
 148 152 148 150 148 147 c 0
 148 108 166 99 186 99 c 0
 206 99 238 106 251 169 c 2
 381 780 l 1
 551 780 l 1
 421 169 l 2
 400 72 305 -21 161 -21 c 0
 24 -21 -25 61 -25 133 c 0
 -25 136 -25 140 -25 143 c 1
EndSplineSet
PickledDataWithLists: "(dp0
Vcom.fontlab.hintData
p1
(dp2
Vvhints
p3
(lp4
(dp5
Vposition
p6
L16L
sVwidth
p7
L10L
sa(dp8
g6
L152L
sg7
L10L
sa(dp9
g6
L318L
sg7
L10L
sa(dp10
g6
L412L
sg7
L10L
sa(dp11
g6
L492L
sg7
L10L
sasVhhints
p12
(lp13
(dp14
g6
L-14L
sg7
L10L
sa(dp15
g6
L55L
sg7
L9L
sa(dp16
g6
L129L
sg7
L10L
sa(dp17
g6
L730L
sg7
L10L
sa(dp18
g6
L788L
sg7
L10L
sass."
Colour: ff00
EndChar

StartChar: K
Encoding: 75 75 47
GlifName: K_
Width: 715
VWidth: 0
Flags: HMW
AnchorPoint: "LatinBelow.mark" 300 0 basechar 0
AnchorPoint: "LatinAbove.mark" 332 150 basechar 0
LayerCount: 2
Fore
SplineSet
15 0 m 1
 181 780 l 1
 345 780 l 1
 278 467 l 1
 611 780 l 1
 798 767 l 1
 796 759 l 1
 427 445 l 1
 667 8 l 1
 665 0 l 1
 466 0 l 1
 294 332 l 1
 240 287 l 1
 179 0 l 1
 15 0 l 1
EndSplineSet
PickledDataWithLists: "(dp0
Vcom.fontlab.hintData
p1
(dp2
Vvhints
p3
(lp4
(dp5
Vposition
p6
L64L
sVwidth
p7
L10L
sa(dp8
g6
L86L
sg7
L10L
sa(dp9
g6
L116L
sg7
L10L
sa(dp10
g6
L211L
sg7
L10L
sa(dp11
g6
L219L
sg7
L10L
sa(dp12
g6
L679L
sg7
L10L
sa(dp13
g6
L734L
sg7
L10L
sasVhhints
p14
(lp15
(dp16
g6
L-14L
sg7
L10L
sa(dp17
g6
L-9L
sg7
L10L
sa(dp18
g6
L799L
sg7
L10L
sass."
Colour: ff00
EndChar

StartChar: L
Encoding: 76 76 48
GlifName: L_
Width: 570
VWidth: 0
Flags: HMW
AnchorPoint: "LatinBelow.mark" 260 0 basechar 0
AnchorPoint: "LatinAbove.mark" 132 150 basechar 0
LayerCount: 2
Fore
SplineSet
15 0 m 1
 181 780 l 1
 353 780 l 1
 215 130 l 1
 528 130 l 1
 500 0 l 1
 15 0 l 1
EndSplineSet
PickledDataWithLists: "(dp0
Vcom.fontlab.hintData
p1
(dp2
Vvhints
p3
(lp4
(dp5
Vposition
p6
L126L
sVwidth
p7
L10L
sa(dp8
g6
L131L
sg7
L10L
sa(dp9
g6
L144L
sg7
L10L
sa(dp10
g6
L224L
sg7
L10L
sa(dp11
g6
L242L
sg7
L10L
sa(dp12
g6
L624L
sg7
L10L
sasVhhints
p13
(lp14
(dp15
g6
L-23L
sg7
L10L
sa(dp16
g6
L-9L
sg7
L10L
sa(dp17
g6
L45L
sg7
L10L
sa(dp18
g6
L59L
sg7
L10L
sa(dp19
g6
L794L
sg7
L10L
sass."
Colour: ff00
EndChar

StartChar: M
Encoding: 77 77 49
GlifName: M_
Width: 880
VWidth: 0
Flags: HMW
AnchorPoint: "LatinBelow.mark" 380 0 basechar 0
AnchorPoint: "LatinAbove.mark" 412 150 basechar 0
LayerCount: 2
Fore
SplineSet
745 0 m 1
 577 0 l 1
 676 466 l 1
 461 195 l 1
 381 195 l 1
 282 466 l 1
 183 0 l 1
 15 0 l 1
 178 765 l 1
 321 780 l 1
 458 368 l 1
 771 780 l 1
 908 765 l 1
 745 0 l 1
EndSplineSet
PickledDataWithLists: "(dp0
Vcom.fontlab.hintData
p1
(dp2
Vvhints
p3
(lp4
(dp5
Vposition
p6
L66L
sVwidth
p7
L10L
sa(dp8
g6
L102L
sg7
L10L
sa(dp9
g6
L197L
sg7
L10L
sa(dp10
g6
L691L
sg7
L10L
sa(dp11
g6
L785L
sg7
L10L
sa(dp12
g6
L824L
sg7
L10L
sasVhhints
p13
(lp14
(dp15
g6
L-19L
sg7
L10L
sa(dp16
g6
L-9L
sg7
L10L
sa(dp17
g6
L137L
sg7
L10L
sa(dp18
g6
L604L
sg7
L20L
sa(dp19
g6
L783L
sg7
L10L
sa(dp20
g6
L795L
sg7
L10L
sass."
Colour: ff00
EndChar

StartChar: N
Encoding: 78 78 50
GlifName: N_
Width: 790
VWidth: 0
Flags: HMW
AnchorPoint: "LatinBelow.mark" 335 0 basechar 0
AnchorPoint: "LatinAbove.mark" 367 150 basechar 0
LayerCount: 2
Fore
SplineSet
15 0 m 1
 178 765 l 1
 326 780 l 1
 547 273 l 1
 655 780 l 1
 821 780 l 1
 655 0 l 1
 510 0 l 1
 289 507 l 1
 181 0 l 1
 15 0 l 1
EndSplineSet
PickledDataWithLists: "(dp0
Vcom.fontlab.hintData
p1
(dp2
Vvhints
p3
(lp4
(dp5
Vposition
p6
L97L
sVwidth
p7
L10L
sa(dp8
g6
L111L
sg7
L10L
sa(dp9
g6
L209L
sg7
L10L
sa(dp10
g6
L601L
sg7
L10L
sa(dp11
g6
L613L
sg7
L10L
sa(dp12
g6
L699L
sg7
L10L
sa(dp13
g6
L711L
sg7
L10L
sasVhhints
p14
(lp15
(dp16
g6
L-14L
sg7
L10L
sa(dp17
g6
L-8L
sg7
L10L
sa(dp18
g6
L794L
sg7
L10L
sass."
Colour: ff00
EndChar

StartChar: O
Encoding: 79 79 51
GlifName: O_
Width: 820
VWidth: 0
Flags: HMW
AnchorPoint: "LatinOgonek.mark" 420 0 basechar 0
AnchorPoint: "LatinBelow.mark" 350 0 basechar 0
AnchorPoint: "LatinAbove.mark" 382 150 basechar 0
LayerCount: 2
Fore
SplineSet
64 373 m 2
 72 407 l 2
 109 581 231 801 520 801 c 0
 747 801 814 665 814 522 c 0
 814 483 810 444 802 407 c 2
 794 373 l 2
 757 199 635 -21 346 -21 c 0
 119 -21 52 115 52 258 c 0
 52 297 56 336 64 373 c 2
372 104 m 0
 493 104 583 197 620 373 c 2
 628 407 l 2
 636 445 640 480 640 510 c 0
 640 619 589 676 494 676 c 0
 373 676 283 583 246 407 c 2
 238 373 l 2
 230 335 226 300 226 270 c 0
 226 161 277 104 372 104 c 0
EndSplineSet
PickledDataWithLists: "(dp0
Vcom.fontlab.hintData
p1
(dp2
Vvhints
p3
(lp4
(dp5
Vposition
p6
L66L
sVwidth
p7
L10L
sa(dp8
g6
L164L
sg7
L10L
sa(dp9
g6
L572L
sg7
L10L
sa(dp10
g6
L659L
sg7
L10L
sa(dp11
g6
L690L
sg7
L10L
sa(dp12
g6
L757L
sg7
L10L
sasVhhints
p13
(lp14
(dp15
g6
L-22L
sg7
L10L
sa(dp16
g6
L47L
sg7
L10L
sa(dp17
g6
L742L
sg7
L10L
sa(dp18
g6
L811L
sg7
L10L
sass."
Colour: ff00
EndChar

StartChar: P
Encoding: 80 80 52
GlifName: P_
Width: 710
VWidth: 0
Flags: HMW
AnchorPoint: "LatinBelow.mark" 100 0 basechar 0
AnchorPoint: "LatinAbove.mark" 332 150 basechar 0
LayerCount: 2
Fore
SplineSet
273 424 m 1
 297 423 327 421 359 421 c 0
 461 421 552 446 573 545 c 0
 575 556 576 566 576 575 c 0
 576 649 503 669 412 669 c 0
 380 669 349 667 325 666 c 1
 273 424 l 1
247 303 m 1
 183 0 l 1
 15 0 l 1
 81 310 l 1
 181 780 l 1
 181 780 320 789 458 789 c 0
 636 789 746 715 746 593 c 0
 746 578 745 562 741 545 c 0
 709 395 554 301 354 301 c 0
 317 301 281 302 247 303 c 1
EndSplineSet
PickledDataWithLists: "(dp0
Vcom.fontlab.hintData
p1
(dp2
Vvhints
p3
(lp4
(dp5
Vposition
p6
L26L
sVwidth
p7
L10L
sa(dp8
g6
L36L
sg7
L10L
sa(dp9
g6
L116L
sg7
L10L
sa(dp10
g6
L130L
sg7
L10L
sa(dp11
g6
L228L
sg7
L10L
sa(dp12
g6
L592L
sg7
L10L
sa(dp13
g6
L693L
sg7
L10L
sasVhhints
p14
(lp15
(dp16
g6
L-24L
sg7
L10L
sa(dp17
g6
L302L
sg7
L10L
sa(dp18
g6
L369L
sg7
L10L
sa(dp19
g6
L429L
sg7
L10L
sa(dp20
g6
L634L
sg7
L10L
sa(dp21
g6
L661L
sg7
L10L
sa(dp22
g6
L744L
sg7
L10L
sa(dp23
g6
L813L
sg7
L10L
sass."
Colour: ff00
EndChar

StartChar: Q
Encoding: 81 81 53
GlifName: Q_
Width: 820
VWidth: 0
Flags: HMW
AnchorPoint: "LatinBelow.mark" 350 0 basechar 0
AnchorPoint: "LatinAbove.mark" 382 150 basechar 0
LayerCount: 2
Fore
SplineSet
368 250 m 1
 451 335 l 1
 567 227 l 1
 589 266 608 315 620 373 c 2
 628 407 l 2
 636 445 640 480 640 510 c 0
 640 619 589 676 494 676 c 0
 373 676 283 583 246 407 c 2
 238 373 l 2
 230 335 226 300 226 270 c 0
 226 161 277 104 372 104 c 0
 413 104 452 115 485 136 c 1
 368 250 l 1
64 373 m 2
 72 407 l 2
 109 581 231 801 520 801 c 0
 747 801 814 665 814 522 c 0
 814 483 810 444 802 407 c 2
 794 373 l 2
 777 292 741 200 678 126 c 1
 760 49 l 1
 670 -45 l 1
 581 42 l 1
 519 3 442 -21 346 -21 c 0
 119 -21 52 115 52 258 c 0
 52 297 56 336 64 373 c 2
EndSplineSet
PickledDataWithLists: "(dp0
Vcom.fontlab.hintData
p1
(dp2
Vvhints
p3
(lp4
(dp5
Vposition
p6
L66L
sVwidth
p7
L10L
sa(dp8
g6
L164L
sg7
L10L
sa(dp9
g6
L407L
sg7
L10L
sa(dp10
g6
L491L
sg7
L10L
sa(dp11
g6
L675L
sg7
L10L
sa(dp12
g6
L690L
sg7
L10L
sa(dp13
g6
L760L
sg7
L10L
sa(dp14
g6
L769L
sg7
L10L
sasVhhints
p15
(lp16
(dp17
g6
L-206L
sg7
L10L
sa(dp18
g6
L-17L
sg7
L10L
sa(dp19
g6
L46L
sg7
L10L
sa(dp20
g6
L514L
sg7
L10L
sa(dp21
g6
L576L
sg7
L10L
sa(dp22
g6
L598L
sg7
L10L
sa(dp23
g6
L742L
sg7
L10L
sa(dp24
g6
L811L
sg7
L10L
sass."
Colour: ff00
EndChar

StartChar: R
Encoding: 82 82 54
GlifName: R_
Width: 730
VWidth: 0
Flags: HMW
AnchorPoint: "LatinBelow.mark" 300 0 basechar 0
AnchorPoint: "LatinAbove.mark" 332 150 basechar 0
LayerCount: 2
Fore
SplineSet
284 302 m 1
 272 302 259 303 247 303 c 1
 183 0 l 1
 15 0 l 1
 81 310 l 1
 181 780 l 1
 181 780 320 789 458 789 c 0
 636 789 746 715 746 593 c 0
 746 578 745 562 741 545 c 0
 715 425 611 341 468 312 c 1
 657 8 l 1
 655 0 l 1
 463 0 l 1
 284 302 l 1
273 424 m 1
 297 423 327 421 359 421 c 0
 461 421 552 446 573 545 c 0
 575 556 576 566 576 575 c 0
 576 649 503 669 412 669 c 0
 380 669 349 667 325 666 c 1
 273 424 l 1
EndSplineSet
PickledDataWithLists: "(dp0
Vcom.fontlab.hintData
p1
(dp2
Vvhints
p3
(lp4
(dp5
Vposition
p6
L26L
sVwidth
p7
L10L
sa(dp8
g6
L116L
sg7
L10L
sa(dp9
g6
L126L
sg7
L10L
sa(dp10
g6
L228L
sg7
L10L
sa(dp11
g6
L605L
sg7
L10L
sa(dp12
g6
L705L
sg7
L10L
sa(dp13
g6
L734L
sg7
L10L
sasVhhints
p14
(lp15
(dp16
g6
L-29L
sg7
L10L
sa(dp17
g6
L-24L
sg7
L10L
sa(dp18
g6
L332L
sg7
L10L
sa(dp19
g6
L401L
sg7
L10L
sa(dp20
g6
L430L
sg7
L10L
sa(dp21
g6
L634L
sg7
L10L
sa(dp22
g6
L661L
sg7
L10L
sa(dp23
g6
L745L
sg7
L10L
sa(dp24
g6
L812L
sg7
L10L
sass."
Colour: ff00
EndChar

StartChar: S
Encoding: 83 83 55
GlifName: S_
Width: 710
VWidth: 0
Flags: HMW
AnchorPoint: "LatinCedilla.mark" 320 0 basechar 0
AnchorPoint: "LatinBelow.mark" 295 0 basechar 0
AnchorPoint: "LatinAbove.mark" 327 150 basechar 0
LayerCount: 2
Fore
SplineSet
19 184 m 1
 192 208 l 1
 192 207 192 205 192 204 c 0
 192 153 229 101 316 101 c 0
 415 101 475 139 489 207 c 0
 491 215 492 223 492 230 c 0
 492 275 456 289 431 297 c 0
 378 312 300 340 247 360 c 0
 188 384 113 433 113 527 c 0
 113 540 115 554 118 569 c 0
 146 701 288 801 465 801 c 0
 651 801 718 681 718 603 c 0
 718 602 718 601 718 600 c 1
 544 576 l 1
 544 577 544 579 544 580 c 0
 544 631 508 679 439 679 c 0
 358 679 298 639 285 577 c 0
 284 571 283 566 283 561 c 0
 283 524 315 510 349 496 c 0
 397 478 475 452 521 437 c 0
 591 414 661 364 661 266 c 0
 661 250 660 233 656 215 c 0
 628 82 486 -21 291 -21 c 0
 89 -21 19 101 19 181 c 0
 19 182 19 183 19 184 c 1
EndSplineSet
PickledDataWithLists: "(dp0
Vcom.fontlab.hintData
p1
(dp2
Vvhints
p3
(lp4
(dp5
Vposition
p6
L60L
sVwidth
p7
L10L
sa(dp8
g6
L68L
sg7
L10L
sa(dp9
g6
L159L
sg7
L10L
sa(dp10
g6
L494L
sg7
L10L
sa(dp11
g6
L555L
sg7
L10L
sa(dp12
g6
L594L
sg7
L10L
sa(dp13
g6
L654L
sg7
L10L
sasVhhints
p14
(lp15
(dp16
g6
L-22L
sg7
L10L
sa(dp17
g6
L46L
sg7
L10L
sa(dp18
g6
L192L
sg7
L10L
sa(dp19
g6
L584L
sg7
L10L
sa(dp20
g6
L744L
sg7
L10L
sa(dp21
g6
L812L
sg7
L10L
sass."
Colour: ff00
EndChar

StartChar: T
Encoding: 84 84 56
GlifName: T_
Width: 620
VWidth: 0
Flags: HMW
AnchorPoint: "LatinCedilla.mark" 260 0 basechar 0
AnchorPoint: "LatinBelow.mark" 250 0 basechar 0
AnchorPoint: "LatinAbove.mark" 282 150 basechar 0
LayerCount: 2
Fore
SplineSet
94 655 m 1
 121 780 l 1
 711 780 l 1
 684 655 l 1
 474 655 l 1
 335 0 l 1
 165 0 l 1
 304 655 l 1
 94 655 l 1
EndSplineSet
PickledDataWithLists: "(dp0
Vcom.fontlab.hintData
p1
(dp2
Vvhints
p3
(lp4
(dp5
Vposition
p6
L25L
sVwidth
p7
L10L
sa(dp8
g6
L301L
sg7
L10L
sa(dp9
g6
L306L
sg7
L10L
sa(dp10
g6
L407L
sg7
L10L
sa(dp11
g6
L674L
sg7
L10L
sasVhhints
p12
(lp13
(dp14
g6
L-19L
sg7
L10L
sa(dp15
g6
L722L
sg7
L10L
sa(dp16
g6
L731L
sg7
L10L
sa(dp17
g6
L790L
sg7
L10L
sa(dp18
g6
L800L
sg7
L10L
sass."
Colour: ff00
EndChar

StartChar: U
Encoding: 85 85 57
GlifName: U_
Width: 770
VWidth: 0
Flags: HMW
AnchorPoint: "LatinOgonek.mark" 420 0 basechar 0
AnchorPoint: "LatinBelow.mark" 325 0 basechar 0
AnchorPoint: "LatinAbove.mark" 357 150 basechar 0
LayerCount: 2
Fore
SplineSet
57 246 m 2
 171 780 l 1
 343 780 l 1
 229 246 l 2
 226 231 225 217 225 205 c 0
 225 132 276 103 347 103 c 0
 430 103 503 143 525 246 c 2
 639 780 l 1
 811 780 l 1
 697 246 l 2
 666 99 518 -21 321 -21 c 0
 148 -21 52 71 52 193 c 0
 52 210 53 228 57 246 c 2
EndSplineSet
PickledDataWithLists: "(dp0
Vcom.fontlab.hintData
p1
(dp2
Vvhints
p3
(lp4
(dp5
Vposition
p6
L96L
sVwidth
p7
L10L
sa(dp8
g6
L107L
sg7
L10L
sa(dp9
g6
L194L
sg7
L10L
sa(dp10
g6
L205L
sg7
L10L
sa(dp11
g6
L603L
sg7
L10L
sa(dp12
g6
L616L
sg7
L10L
sa(dp13
g6
L704L
sg7
L10L
sa(dp14
g6
L714L
sg7
L10L
sasVhhints
p15
(lp16
(dp17
g6
L-24L
sg7
L10L
sa(dp18
g6
L44L
sg7
L10L
sa(dp19
g6
L789L
sg7
L10L
sass."
EndChar

StartChar: V
Encoding: 86 86 58
GlifName: V_
Width: 750
VWidth: 0
Flags: HMW
AnchorPoint: "LatinBelow.mark" 315 0 basechar 0
AnchorPoint: "LatinAbove.mark" 347 150 basechar 0
LayerCount: 2
Fore
SplineSet
105 754 m 1
 108 765 l 1
 311 780 l 1
 363 228 l 1
 651 780 l 1
 848 765 l 1
 845 754 l 1
 385 0 l 1
 245 0 l 1
 105 754 l 1
EndSplineSet
PickledDataWithLists: "(dp0
Vcom.fontlab.hintData
p1
(dp2
Vvhints
p3
(lp4
(dp5
Vposition
p6
L41L
sVwidth
p7
L10L
sa(dp8
g6
L759L
sg7
L10L
sasVhhints
p9
(lp10
(dp11
g6
L-21L
sg7
L10L
sa(dp12
g6
L781L
sg7
L10L
sa(dp13
g6
L794L
sg7
L10L
sass."
EndChar

StartChar: W
Encoding: 87 87 59
GlifName: W_
Width: 1060
VWidth: 0
Flags: HMW
AnchorPoint: "LatinBelow.mark" 470 0 basechar 0
AnchorPoint: "LatinAbove.mark" 502 150 basechar 0
LayerCount: 2
Fore
SplineSet
110 754 m 1
 112 764 l 1
 301 780 l 1
 314 247 l 1
 562 760 l 1
 702 760 l 1
 732 247 l 1
 971 780 l 1
 1152 764 l 1
 1150 754 l 1
 765 0 l 1
 620 0 l 1
 580 518 l 1
 320 0 l 1
 175 0 l 1
 110 754 l 1
EndSplineSet
PickledDataWithLists: "(dp0
Vcom.fontlab.hintData
p1
(dp2
Vvhints
p3
(lp4
(dp5
Vposition
p6
L46L
sVwidth
p7
L10L
sa(dp8
g6
L1045L
sg7
L10L
sasVhhints
p9
(lp10
(dp11
g6
L-10L
sg7
L10L
sa(dp12
g6
L762L
sg7
L10L
sa(dp13
g6
L790L
sg7
L10L
sass."
Colour: ff00
EndChar

StartChar: X
Encoding: 88 88 60
GlifName: X_
Width: 740
VWidth: 0
Flags: HMW
AnchorPoint: "LatinBelow.mark" 310 0 basechar 0
AnchorPoint: "LatinAbove.mark" 342 150 basechar 0
LayerCount: 2
Fore
SplineSet
140 754 m 1
 142 764 l 1
 334 780 l 1
 422 526 l 1
 618 780 l 1
 802 764 l 1
 800 754 l 1
 493 414 l 1
 692 8 l 1
 690 0 l 1
 493 0 l 1
 368 274 l 1
 127 0 l 1
 -70 0 l 1
 -68 8 l 1
 303 414 l 1
 140 754 l 1
EndSplineSet
PickledDataWithLists: "(dp0
Vcom.fontlab.hintData
p1
(dp2
Vvhints
p3
(lp4
(dp5
Vposition
p6
L31L
sVwidth
p7
L10L
sa(dp8
g6
L91L
sg7
L10L
sa(dp9
g6
L687L
sg7
L10L
sa(dp10
g6
L734L
sg7
L10L
sasVhhints
p11
(lp12
(dp13
g6
L-9L
sg7
L10L
sa(dp14
g6
L4L
sg7
L10L
sa(dp15
g6
L789L
sg7
L10L
sass."
Colour: ff00
EndChar

StartChar: Y
Encoding: 89 89 61
GlifName: Y_
Width: 670
VWidth: 0
Flags: HMW
AnchorPoint: "LatinBelow.mark" 275 0 basechar 0
AnchorPoint: "LatinAbove.mark" 307 150 basechar 0
LayerCount: 2
Fore
SplineSet
95 754 m 1
 98 765 l 1
 291 780 l 1
 371 450 l 1
 591 780 l 1
 778 765 l 1
 775 754 l 1
 422 290 l 1
 360 0 l 1
 190 0 l 1
 252 290 l 1
 95 754 l 1
EndSplineSet
PickledDataWithLists: "(dp0
Vcom.fontlab.hintData
p1
(dp2
Vvhints
p3
(lp4
(dp5
Vposition
p6
L35L
sVwidth
p7
L10L
sa(dp8
g6
L310L
sg7
L10L
sa(dp9
g6
L408L
sg7
L10L
sa(dp10
g6
L414L
sg7
L10L
sa(dp11
g6
L675L
sg7
L10L
sasVhhints
p12
(lp13
(dp14
g6
L-20L
sg7
L10L
sa(dp15
g6
L789L
sg7
L10L
sa(dp16
g6
L800L
sg7
L10L
sass."
EndChar

StartChar: Z
Encoding: 90 90 62
GlifName: Z_
Width: 670
VWidth: 0
Flags: HMW
AnchorPoint: "LatinBelow.mark" 275 0 basechar 0
AnchorPoint: "LatinAbove.mark" 307 150 basechar 0
LayerCount: 2
Fore
SplineSet
-20 96 m 1
 491 650 l 1
 128 650 l 1
 156 780 l 1
 733 780 l 1
 724 684 l 1
 216 130 l 1
 618 130 l 1
 590 0 l 1
 -28 0 l 1
 -20 96 l 1
EndSplineSet
PickledDataWithLists: "(dp0
Vcom.fontlab.hintData
p1
(dp2
Vvhints
p3
(lp4
(dp5
Vposition
p6
L46L
sVwidth
p7
L10L
sa(dp8
g6
L66L
sg7
L10L
sa(dp9
g6
L679L
sg7
L10L
sa(dp10
g6
L699L
sg7
L10L
sasVhhints
p11
(lp12
(dp13
g6
L-13L
sg7
L10L
sa(dp14
g6
L64L
sg7
L10L
sa(dp15
g6
L75L
sg7
L10L
sa(dp16
g6
L709L
sg7
L10L
sa(dp17
g6
L779L
sg7
L10L
sa(dp18
g6
L785L
sg7
L10L
sa(dp19
g6
L790L
sg7
L10L
sass."
Colour: ff00
EndChar

StartChar: bracketleft
Encoding: 91 91 63
GlifName: bracketleft
Width: 435
VWidth: 0
Flags: HMW
LayerCount: 2
Fore
SplineSet
19 -120 m 1
 236 900 l 1
 491 900 l 1
 471 805 l 1
 351 805 l 1
 175 -25 l 1
 293 -25 l 1
 272 -120 l 1
 19 -120 l 1
EndSplineSet
PickledDataWithLists: "(dp0
Vcom.fontlab.hintData
p1
(dp2
Vvhints
p3
(lp4
(dp5
Vposition
p6
L71L
sVwidth
p7
L10L
sa(dp8
g6
L92L
sg7
L10L
sa(dp9
g6
L161L
sg7
L10L
sa(dp10
g6
L289L
sg7
L10L
sasVhhints
p11
(lp12
(dp13
g6
L-91L
sg7
L10L
sa(dp14
g6
L-44L
sg7
L10L
sa(dp15
g6
L830L
sg7
L10L
sa(dp16
g6
L877L
sg7
L10L
sass."
EndChar

StartChar: backslash
Encoding: 92 92 64
GlifName: backslash
Width: 510
VWidth: 0
Flags: HMW
LayerCount: 2
Fore
SplineSet
295 0 m 1
 134 772 l 1
 136 780 l 1
 261 780 l 1
 422 8 l 1
 420 0 l 1
 295 0 l 1
EndSplineSet
PickledDataWithLists: "(dp0
Vcom.fontlab.hintData
p1
(dp2
Vvhints
p3
(lp4
(dp5
Vposition
p6
L40L
sVwidth
p7
L10L
sa(dp8
g6
L430L
sg7
L10L
sasVhhints
p9
(lp10
(dp11
g6
L-29L
sg7
L10L
sa(dp12
g6
L819L
sg7
L10L
sass."
EndChar

StartChar: bracketright
Encoding: 93 93 65
GlifName: bracketright
Width: 435
VWidth: 0
Flags: HMW
LayerCount: 2
Fore
SplineSet
461 900 m 1
 244 -120 l 1
 -11 -120 l 1
 10 -25 l 1
 130 -25 l 1
 306 805 l 1
 188 805 l 1
 208 900 l 1
 461 900 l 1
EndSplineSet
PickledDataWithLists: "(dp0
Vcom.fontlab.hintData
p1
(dp2
Vvhints
p3
(lp4
(dp5
Vposition
p6
L61L
sVwidth
p7
L10L
sa(dp8
g6
L189L
sg7
L10L
sa(dp9
g6
L258L
sg7
L10L
sa(dp10
g6
L279L
sg7
L10L
sasVhhints
p11
(lp12
(dp13
g6
L-90L
sg7
L10L
sa(dp14
g6
L-42L
sg7
L10L
sa(dp15
g6
L829L
sg7
L10L
sa(dp16
g6
L879L
sg7
L10L
sass."
EndChar

StartChar: asciicircum
Encoding: 94 94 66
GlifName: asciicircum
Width: 630
VWidth: 0
Flags: HMW
LayerCount: 2
Fore
SplineSet
81 595 m 1
 416 900 l 1
 476 900 l 1
 681 595 l 1
 590 540 l 1
 411 732 l 1
 150 540 l 1
 81 595 l 1
EndSplineSet
PickledDataWithLists: "(dp0
Vcom.fontlab.hintData
p1
(dp2
Vvhints
p3
(lp4
(dp5
Vposition
p6
L23L
sVwidth
p7
L10L
sasVhhints
p8
(lp9
(dp10
g6
L532L
sg7
L10L
sa(dp11
g6
L839L
sg7
L10L
sass."
EndChar

StartChar: underscore
Encoding: 95 95 67
GlifName: underscore
Width: 600
VWidth: 0
Flags: HMW
LayerCount: 2
Fore
SplineSet
-60 0 m 25
 540 0 l 25
 514 -120 l 25
 -86 -120 l 25
 -60 0 l 25
EndSplineSet
PickledDataWithLists: "(dp0
Vcom.fontlab.hintData
p1
(dp2
Vvhints
p3
(lp4
(dp5
Vposition
p6
L30L
sVwidth
p7
L10L
sa(dp8
g6
L559L
sg7
L10L
sasVhhints
p9
(lp10
(dp11
g6
L-69L
sg7
L10L
sa(dp12
g6
L-6L
sg7
L10L
sa(dp13
g6
L1L
sg7
L10L
sass."
EndChar

StartChar: grave
Encoding: 96 96 68
GlifName: grave
Width: 390
VWidth: 0
Flags: HMW
LayerCount: 2
Fore
SplineSet
441 595 m 1
 350 540 l 1
 97 811 l 1
 236 900 l 1
 441 595 l 1
EndSplineSet
PickledDataWithLists: "(dp0
Vcom.fontlab.hintData
p1
(dp2
Vvhints
p3
(lp4
(dp5
Vposition
p6
L20L
sVwidth
p7
L10L
sasVhhints
p8
(lp9
(dp10
g6
L541L
sg7
L10L
sa(dp11
g6
L838L
sg7
L10L
sass."
EndChar

StartChar: a
Encoding: 97 97 69
GlifName: a
Width: 625
VWidth: 0
Flags: HMW
AnchorPoint: "LatinOgonek.mark" 455 0 basechar 0
AnchorPoint: "LatinBelow.mark" 270 0 basechar 0
AnchorPoint: "LatinAbove.mark" 250 0 basechar 0
LayerCount: 2
Fore
SplineSet
17 174 m 0
 33 249 113 330 263 330 c 0
 315 330 366 327 409 323 c 1
 428 412 l 2
 430 423 431 432 431 441 c 0
 431 492 393 507 348 507 c 0
 301 507 256 481 233 415 c 1
 76 427 l 1
 109 519 209 621 372 621 c 0
 510 621 587 549 587 453 c 0
 587 440 586 426 583 412 c 2
 528 155 l 2
 525 143 524 132 524 124 c 0
 524 101 535 91 568 87 c 1
 507 -16 l 1
 472 -11 412 2 393 56 c 1
 348 15 288 -16 207 -16 c 0
 80 -16 12 41 12 131 c 0
 12 145 14 159 17 174 c 0
397 230 m 1
 357 235 304 239 253 239 c 0
 225 239 183 222 172 172 c 0
 170 162 169 154 169 146 c 0
 169 95 208 79 247 79 c 0
 324 79 367 135 391 203 c 1
 397 230 l 1
EndSplineSet
PickledDataWithLists: "(dp0
Vcom.fontlab.hintData
p1
(dp2
Vvhints
p3
(lp4
(dp5
Vposition
p6
L60L
sVwidth
p7
L10L
sa(dp8
g6
L149L
sg7
L10L
sa(dp9
g6
L441L
sg7
L10L
sa(dp10
g6
L529L
sg7
L10L
sa(dp11
g6
L649L
sg7
L10L
sasVhhints
p12
(lp13
(dp14
g6
L-21L
sg7
L10L
sa(dp15
g6
L-11L
sg7
L10L
sa(dp16
g6
L41L
sg7
L10L
sa(dp17
g6
L362L
sg7
L10L
sa(dp18
g6
L432L
sg7
L10L
sa(dp19
g6
L549L
sg7
L10L
sa(dp20
g6
L611L
sg7
L10L
sass."
Substitution2: "Latin.ss20 subtable" uni0251
Substitution2: "Latin.ss19 subtable" uni0251
Colour: ff00
EndChar

StartChar: b
Encoding: 98 98 70
GlifName: b
Width: 675
VWidth: 0
Flags: HMW
AnchorPoint: "LatinBelow.mark" 300 0 basechar 0
AnchorPoint: "LatinAbove.mark" 113 180 basechar 0
LayerCount: 2
Fore
SplineSet
146 0 m 1
 10 0 l 1
 182 810 l 1
 337 810 l 1
 280 539 l 1
 327 584 384 616 451 616 c 0
 601 616 650 505 650 394 c 0
 650 365 647 337 641 310 c 2
 637 290 l 2
 609 160 506 -16 317 -16 c 0
 244 -16 199 22 172 73 c 1
 146 0 l 1
242 364 m 1
 215 236 l 1
 216 157 250 100 321 100 c 0
 386 100 448 153 477 290 c 2
 481 310 l 2
 488 342 491 369 491 392 c 0
 491 469 456 500 406 500 c 0
 335 500 277 443 242 364 c 1
EndSplineSet
PickledDataWithLists: "(dp0
Vcom.fontlab.hintData
p1
(dp2
Vvhints
p3
(lp4
(dp5
Vposition
p6
L81L
sVwidth
p7
L10L
sa(dp8
g6
L91L
sg7
L10L
sa(dp9
g6
L179L
sg7
L10L
sa(dp10
g6
L211L
sg7
L10L
sa(dp11
g6
L504L
sg7
L10L
sa(dp12
g6
L593L
sg7
L10L
sasVhhints
p13
(lp14
(dp15
g6
L-21L
sg7
L10L
sa(dp16
g6
L41L
sg7
L10L
sa(dp17
g6
L524L
sg7
L10L
sa(dp18
g6
L546L
sg7
L10L
sa(dp19
g6
L607L
sg7
L10L
sa(dp20
g6
L836L
sg7
L10L
sass."
Colour: ff00
EndChar

StartChar: c
Encoding: 99 99 71
GlifName: c
Width: 605
VWidth: 0
Flags: HMW
AnchorPoint: "LatinCedilla.mark" 270 0 basechar 0
AnchorPoint: "LatinBelow.mark" 270 0 basechar 0
AnchorPoint: "LatinAbove.mark" 270 0 basechar 0
LayerCount: 2
Fore
SplineSet
400 168 m 1
 558 154 l 1
 533 90 439 -21 266 -21 c 0
 82 -21 31 88 31 198 c 0
 31 229 35 259 41 288 c 0
 46 312 l 0
 74 442 166 621 402 621 c 0
 570 621 620 517 620 452 c 0
 620 450 620 448 620 446 c 1
 456 432 l 1
 456 433 456 433 456 434 c 0
 456 469 427 505 377 505 c 0
 307 505 238 446 210 312 c 0
 205 288 l 0
 199 260 196 235 196 213 c 0
 196 132 235 95 290 95 c 0
 341 95 385 132 400 168 c 1
EndSplineSet
PickledDataWithLists: "(dp0
Vcom.fontlab.hintData
p1
(dp2
Vvhints
p3
(lp4
(dp5
Vposition
p6
L58L
sVwidth
p7
L10L
sa(dp8
g6
L152L
sg7
L10L
sa(dp9
g6
L433L
sg7
L10L
sa(dp10
g6
L527L
sg7
L10L
sa(dp11
g6
L552L
sg7
L10L
sasVhhints
p12
(lp13
(dp14
g6
L-22L
sg7
L10L
sa(dp15
g6
L44L
sg7
L10L
sa(dp16
g6
L133L
sg7
L10L
sa(dp17
g6
L433L
sg7
L10L
sa(dp18
g6
L548L
sg7
L10L
sa(dp19
g6
L614L
sg7
L10L
sass."
Colour: ff00
EndChar

StartChar: d
Encoding: 100 100 72
GlifName: d
Width: 680
VWidth: 0
Flags: HMW
AnchorPoint: "LatinBelow.mark" 300 0 basechar 0
AnchorPoint: "LatinAbove.mark" 503 180 basechar 0
LayerCount: 2
Fore
SplineSet
42 290 m 2
 46 310 l 2
 74 440 177 616 366 616 c 0
 433 616 478 584 505 539 c 1
 562 810 l 1
 717 810 l 1
 578 155 l 2
 575 143 574 132 574 124 c 0
 574 101 585 91 618 87 c 1
 557 -16 l 1
 516 -10 438 7 438 90 c 0
 438 93 438 97 438 100 c 1
 386 36 317 -16 232 -16 c 0
 82 -16 33 95 33 206 c 0
 33 235 36 263 42 290 c 2
467 364 m 1
 466 443 432 500 361 500 c 0
 296 500 235 447 206 310 c 2
 202 290 l 2
 195 258 192 231 192 208 c 0
 192 131 226 100 276 100 c 0
 347 100 405 157 440 236 c 1
 467 364 l 1
EndSplineSet
PickledDataWithLists: "(dp0
Vcom.fontlab.hintData
p1
(dp2
Vvhints
p3
(lp4
(dp5
Vposition
p6
L61L
sVwidth
p7
L10L
sa(dp8
g6
L149L
sg7
L10L
sa(dp9
g6
L476L
sg7
L10L
sa(dp10
g6
L564L
sg7
L10L
sa(dp11
g6
L679L
sg7
L10L
sasVhhints
p12
(lp13
(dp14
g6
L-21L
sg7
L10L
sa(dp15
g6
L41L
sg7
L10L
sa(dp16
g6
L544L
sg7
L10L
sa(dp17
g6
L606L
sg7
L10L
sa(dp18
g6
L836L
sg7
L10L
sass."
Colour: ff00
EndChar

StartChar: e
Encoding: 101 101 73
GlifName: e
Width: 640
VWidth: 0
Flags: HMW
AnchorPoint: "LatinOgonek.mark" 350 0 basechar 0
AnchorPoint: "LatinBelow.mark" 270 0 basechar 0
AnchorPoint: "LatinAbove.mark" 270 0 basechar 0
LayerCount: 2
Fore
SplineSet
41 287 m 2
 47 313 l 2
 75 444 172 621 400 621 c 0
 557 621 622 524 622 417 c 0
 622 397 620 377 616 357 c 0
 609 326 598 295 586 265 c 1
 193 265 l 1
 190 245 189 227 189 211 c 0
 189 130 226 91 287 91 c 0
 346 91 392 131 406 167 c 1
 558 153 l 1
 532 87 435 -21 264 -21 c 0
 82 -21 31 87 31 197 c 0
 31 228 35 258 41 287 c 2
217 365 m 1
 468 365 l 1
 471 382 473 398 473 412 c 0
 473 483 430 509 376 509 c 0
 310 509 251 462 217 365 c 1
EndSplineSet
PickledDataWithLists: "(dp0
Vcom.fontlab.hintData
p1
(dp2
Vvhints
p3
(lp4
(dp5
Vposition
p6
L45L
sVwidth
p7
L10L
sa(dp8
g6
L71L
sg7
L10L
sa(dp9
g6
L159L
sg7
L10L
sa(dp10
g6
L471L
sg7
L10L
sa(dp11
g6
L559L
sg7
L10L
sa(dp12
g6
L570L
sg7
L10L
sasVhhints
p13
(lp14
(dp15
g6
L-20L
sg7
L10L
sa(dp16
g6
L42L
sg7
L10L
sa(dp17
g6
L131L
sg7
L10L
sa(dp18
g6
L552L
sg7
L10L
sa(dp19
g6
L613L
sg7
L10L
sass."
Colour: ff00
EndChar

StartChar: f
Encoding: 102 102 74
GlifName: f
Width: 400
VWidth: 0
Flags: HMW
AnchorPoint: "LatinBelow.mark" 120 0 basechar 0
AnchorPoint: "LatinAbove.mark" 248 180 basechar 0
LayerCount: 2
Fore
SplineSet
66 500 m 1
 88 600 l 1
 168 600 l 1
 182 667 l 2
 194 725 254 831 400 831 c 0
 484 831 529 791 541 780 c 1
 457 695 l 1
 447 703 421 721 388 721 c 0
 364 721 344 701 337 667 c 2
 323 600 l 1
 458 600 l 1
 436 500 l 1
 306 500 l 1
 200 0 l 1
 40 0 l 1
 146 500 l 1
 66 500 l 1
EndSplineSet
PickledDataWithLists: "(dp0
Vcom.fontlab.hintData
p1
(dp2
Vvhints
p3
(lp4
(dp5
Vposition
p6
L20L
sVwidth
p7
L10L
sa(dp8
g6
L132L
sg7
L10L
sa(dp9
g6
L166L
sg7
L10L
sa(dp10
g6
L219L
sg7
L9L
sa(dp11
g6
L255L
sg7
L10L
sa(dp12
g6
L399L
sg7
L10L
sa(dp13
g6
L469L
sg7
L10L
sasVhhints
p14
(lp15
(dp16
g6
L-20L
sg7
L10L
sa(dp17
g6
L521L
sg7
L10L
sa(dp18
g6
L586L
sg7
L10L
sa(dp19
g6
L591L
sg7
L10L
sa(dp20
g6
L759L
sg7
L10L
sa(dp21
g6
L803L
sg7
L10L
sa(dp22
g6
L864L
sg7
L10L
sass."
Colour: ff00
EndChar

StartChar: h
Encoding: 104 104 76
GlifName: h
Width: 665
VWidth: 0
Flags: HMW
AnchorPoint: "LatinBelow.mark" 300 0 basechar 0
AnchorPoint: "LatinAbove.mark" 113 180 basechar 0
LayerCount: 2
Fore
SplineSet
10 0 m 1
 182 810 l 1
 337 810 l 1
 267 482 l 1
 325 555 405 616 506 616 c 0
 604 616 643 548 643 467 c 0
 643 447 640 426 636 406 c 2
 550 0 l 1
 390 0 l 1
 475 400 l 2
 478 415 479 427 479 437 c 0
 479 483 453 490 434 490 c 0
 367 490 275 403 234 303 c 1
 170 0 l 1
 10 0 l 1
EndSplineSet
PickledDataWithLists: "(dp0
Vcom.fontlab.hintData
p1
(dp2
Vvhints
p3
(lp4
(dp5
Vposition
p6
L65L
sVwidth
p7
L10L
sa(dp8
g6
L106L
sg7
L10L
sa(dp9
g6
L187L
sg7
L10L
sa(dp10
g6
L491L
sg7
L10L
sa(dp11
g6
L496L
sg7
L10L
sa(dp12
g6
L579L
sg7
L10L
sa(dp13
g6
L584L
sg7
L10L
sasVhhints
p14
(lp15
(dp16
g6
L-14L
sg7
L10L
sa(dp17
g6
L549L
sg7
L10L
sa(dp18
g6
L611L
sg7
L10L
sa(dp19
g6
L836L
sg7
L10L
sass."
Colour: ff00
EndChar

StartChar: i
Encoding: 105 105 77
GlifName: i
Width: 300
VWidth: 0
GlyphClass: 3
Flags: HMW
AnchorPoint: "LatinOgonek.mark" 95 0 basechar 0
AnchorPoint: "LatinBelow.mark" 90 0 basechar 0
AnchorPoint: "LatinAbove.mark" 128 180 basechar 0
LayerCount: 2
Fore
SplineSet
161 780 m 0
 172 834 220 868 274 868 c 0
 321 868 353 842 353 800 c 0
 353 794 353 787 351 780 c 0
 340 726 291 692 237 692 c 0
 190 692 159 718 159 760 c 0
 159 766 159 773 161 780 c 0
10 0 m 1
 138 600 l 1
 298 600 l 1
 170 0 l 1
 10 0 l 1
EndSplineSet
PickledDataWithLists: "(dp0
Vcom.fontlab.hintData
p1
(dp2
Vvhints
p3
(lp4
(dp5
Vposition
p6
L86L
sVwidth
p7
L10L
sa(dp8
g6
L116L
sg7
L10L
sa(dp9
g6
L204L
sg7
L10L
sa(dp10
g6
L234L
sg7
L10L
sa(dp11
g6
L244L
sg7
L10L
sasVhhints
p12
(lp13
(dp14
g6
L-21L
sg7
L10L
sa(dp15
g6
L595L
sg7
L10L
sa(dp16
g6
L725L
sg7
L10L
sa(dp17
g6
L826L
sg7
L20L
sa(dp18
g6
L852L
sg7
L10L
sass."
Substitution2: "Latin.ij.dotless subtable" dotlessi
Ligature2: "Latin.ij subtable" dotlessi uni0307
EndChar

StartChar: j
Encoding: 106 106 78
GlifName: j
Width: 310
VWidth: 0
GlyphClass: 3
Flags: HMW
AnchorPoint: "LatinBelow.mark" 52 -180 basechar 0
AnchorPoint: "LatinAbove.mark" 128 180 basechar 0
LayerCount: 2
Fore
SplineSet
171 780 m 0
 182 834 230 868 284 868 c 0
 331 868 363 842 363 800 c 0
 363 794 363 787 361 780 c 0
 350 726 299 692 245 692 c 0
 198 692 168 717 168 759 c 0
 168 766 169 773 171 780 c 0
-73 -226 m 1
 -102 -125 l 1
 -34 -109 3 -82 19 -5 c 0
 148 600 l 1
 308 600 l 1
 177 -15 l 0
 151 -136 36 -204 -73 -226 c 1
EndSplineSet
PickledDataWithLists: "(dp0
Vcom.fontlab.hintData
p1
(dp2
Vvhints
p3
(lp4
(dp5
Vposition
p6
L31L
sVwidth
p7
L10L
sa(dp8
g6
L86L
sg7
L10L
sa(dp9
g6
L126L
sg7
L10L
sa(dp10
g6
L146L
sg7
L10L
sa(dp11
g6
L234L
sg7
L10L
sa(dp12
g6
L244L
sg7
L10L
sasVhhints
p13
(lp14
(dp15
g6
L-246L
sg7
L10L
sa(dp16
g6
L596L
sg7
L10L
sa(dp17
g6
L725L
sg7
L10L
sa(dp18
g6
L826L
sg7
L20L
sa(dp19
g6
L852L
sg7
L10L
sass."
Substitution2: "Latin.ij.dotless subtable" uni0237
Ligature2: "Latin.ij subtable" uni0237 uni200D uni0307
Ligature2: "Latin.ij subtable" uni0237 uni0307
Ligature2: "Latin.ij subtable" dotlessi uni200D uni0307
EndChar

StartChar: k
Encoding: 107 107 79
GlifName: k
Width: 605
VWidth: 0
Flags: HMW
AnchorPoint: "LatinBelow.mark" 300 0 basechar 0
AnchorPoint: "LatinAbove.mark" 113 180 basechar 0
LayerCount: 2
Fore
SplineSet
20 0 m 1
 192 810 l 1
 344 810 l 1
 253 382 l 1
 488 600 l 1
 660 590 l 1
 659 584 l 1
 369 341 l 1
 556 6 l 1
 555 0 l 1
 373 0 l 1
 247 238 l 1
 217 213 l 1
 172 0 l 1
 20 0 l 1
EndSplineSet
PickledDataWithLists: "(dp0
Vcom.fontlab.hintData
p1
(dp2
Vvhints
p3
(lp4
(dp5
Vposition
p6
L75L
sVwidth
p7
L10L
sa(dp8
g6
L105L
sg7
L10L
sa(dp9
g6
L194L
sg7
L10L
sa(dp10
g6
L539L
sg7
L10L
sa(dp11
g6
L580L
sg7
L10L
sasVhhints
p12
(lp13
(dp14
g6
L-11L
sg7
L10L
sa(dp15
g6
L596L
sg7
L10L
sa(dp16
g6
L836L
sg7
L10L
sass."
Colour: ff00
EndChar

StartChar: l
Encoding: 108 108 80
GlifName: l
Width: 315
VWidth: 0
Flags: HMW
AnchorPoint: "LatinBelow.mark" 130 0 basechar 0
AnchorPoint: "LatinAbove.mark" 118 180 basechar 0
LayerCount: 2
Fore
SplineSet
40 140 m 0
 182 810 l 1
 342 810 l 1
 203 155 l 0
 201 148 201 141 201 135 c 0
 201 104 222 92 273 87 c 1
 222 -16 l 1
 144 -11 36 10 36 107 c 0
 36 117 37 128 40 140 c 0
EndSplineSet
PickledDataWithLists: "(dp0
Vcom.fontlab.hintData
p1
(dp2
Vvhints
p3
(lp4
(dp5
Vposition
p6
L106L
sVwidth
p7
L10L
sa(dp8
g6
L111L
sg7
L10L
sa(dp9
g6
L194L
sg7
L10L
sa(dp10
g6
L199L
sg7
L10L
sa(dp11
g6
L315L
sg7
L10L
sasVhhints
p12
(lp13
(dp14
g6
L-23L
sg7
L10L
sa(dp15
g6
L830L
sg7
L10L
sass."
EndChar

StartChar: m
Encoding: 109 109 81
GlifName: m
Width: 945
VWidth: 0
Flags: HMW
AnchorPoint: "LatinBelow.mark" 420 0 basechar 0
AnchorPoint: "LatinAbove.mark" 420 0 basechar 0
LayerCount: 2
Fore
SplineSet
126 591 m 1
 273 603 l 1
 266 506 l 1
 313 568 377 616 461 616 c 0
 545 616 583 566 591 501 c 1
 639 565 704 616 791 616 c 0
 887 616 923 550 923 471 c 0
 923 450 921 428 916 406 c 2
 830 0 l 1
 670 0 l 1
 755 400 l 2
 758 416 760 429 760 440 c 0
 760 483 737 490 719 490 c 0
 665 490 606 415 569 323 c 1
 500 0 l 1
 340 0 l 1
 425 400 l 2
 428 416 430 429 430 440 c 0
 430 483 407 490 389 490 c 0
 335 490 276 415 239 323 c 1
 170 0 l 1
 10 0 l 1
 99 420 l 1
 126 591 l 1
EndSplineSet
PickledDataWithLists: "(dp0
Vcom.fontlab.hintData
p1
(dp2
Vvhints
p3
(lp4
(dp5
Vposition
p6
L76L
sVwidth
p7
L10L
sa(dp8
g6
L96L
sg7
L10L
sa(dp9
g6
L167L
sg7
L10L
sa(dp10
g6
L436L
sg7
L10L
sa(dp11
g6
L441L
sg7
L10L
sa(dp12
g6
L776L
sg7
L10L
sa(dp13
g6
L781L
sg7
L10L
sa(dp14
g6
L864L
sg7
L10L
sa(dp15
g6
L869L
sg7
L10L
sasVhhints
p16
(lp17
(dp18
g6
L-19L
sg7
L10L
sa(dp19
g6
L-10L
sg7
L10L
sa(dp20
g6
L549L
sg7
L10L
sa(dp21
g6
L606L
sg7
L10L
sa(dp22
g6
L611L
sg7
L10L
sass."
Colour: ff00
EndChar

StartChar: n
Encoding: 110 110 82
GlifName: n
Width: 655
VWidth: 0
Flags: HMW
AnchorPoint: "LatinBelow.mark" 300 0 basechar 0
AnchorPoint: "LatinAbove.mark" 270 0 basechar 0
LayerCount: 2
Fore
SplineSet
10 0 m 1
 99 420 l 1
 126 591 l 1
 273 603 l 1
 264 484 l 1
 319 556 396 616 496 616 c 0
 594 616 633 548 633 467 c 0
 633 447 630 426 626 406 c 2
 540 0 l 1
 380 0 l 1
 465 400 l 2
 468 415 469 427 469 437 c 0
 469 483 443 490 424 490 c 0
 357 490 275 405 235 305 c 1
 170 0 l 1
 10 0 l 1
EndSplineSet
PickledDataWithLists: "(dp0
Vcom.fontlab.hintData
p1
(dp2
Vvhints
p3
(lp4
(dp5
Vposition
p6
L55L
sVwidth
p7
L10L
sa(dp8
g6
L96L
sg7
L10L
sa(dp9
g6
L481L
sg7
L10L
sa(dp10
g6
L486L
sg7
L10L
sa(dp11
g6
L569L
sg7
L10L
sa(dp12
g6
L574L
sg7
L10L
sasVhhints
p13
(lp14
(dp15
g6
L-15L
sg7
L10L
sa(dp16
g6
L-10L
sg7
L10L
sa(dp17
g6
L549L
sg7
L10L
sa(dp18
g6
L606L
sg7
L10L
sa(dp19
g6
L611L
sg7
L10L
sass."
Substitution2: "Latin.sups subtable" n.sups
Substitution2: "Latin.sups subtable" n.sups
Colour: ff00
EndChar

StartChar: o
Encoding: 111 111 83
GlifName: o
Width: 660
VWidth: 0
Flags: HMW
AnchorPoint: "LatinOgonek.mark" 340 0 basechar 0
AnchorPoint: "LatinBelow.mark" 270 0 basechar 0
AnchorPoint: "LatinAbove.mark" 270 0 basechar 0
LayerCount: 2
Fore
SplineSet
41 287 m 2
 47 313 l 2
 75 443 167 621 402 621 c 0
 586 621 636 512 636 402 c 0
 636 372 633 341 627 313 c 2
 621 287 l 2
 593 157 501 -21 266 -21 c 0
 82 -21 31 88 31 198 c 0
 31 228 35 259 41 287 c 2
290 93 m 0
 365 93 433 153 461 287 c 2
 467 313 l 2
 473 342 475 367 475 389 c 0
 475 470 437 507 378 507 c 0
 303 507 235 447 207 313 c 2
 201 287 l 2
 195 258 192 233 192 211 c 0
 192 130 231 93 290 93 c 0
EndSplineSet
PickledDataWithLists: "(dp0
Vcom.fontlab.hintData
p1
(dp2
Vvhints
p3
(lp4
(dp5
Vposition
p6
L61L
sVwidth
p7
L10L
sa(dp8
g6
L149L
sg7
L10L
sa(dp9
g6
L441L
sg7
L10L
sa(dp10
g6
L506L
sg7
L10L
sa(dp11
g6
L594L
sg7
L10L
sasVhhints
p12
(lp13
(dp14
g6
L-21L
sg7
L10L
sa(dp15
g6
L42L
sg7
L9L
sa(dp16
g6
L552L
sg7
L10L
sa(dp17
g6
L614L
sg7
L10L
sass."
Colour: ff00
EndChar

StartChar: p
Encoding: 112 112 84
GlifName: p
Width: 675
VWidth: 0
Flags: HMW
AnchorPoint: "LatinBelow.mark" 52 -180 basechar 0
AnchorPoint: "LatinAbove.mark" 270 0 basechar 0
LayerCount: 2
Fore
SplineSet
637 290 m 2
 609 160 506 -16 317 -16 c 0
 253 -16 209 13 182 55 c 1
 125 -210 l 1
 -35 -210 l 1
 99 420 l 1
 126 591 l 1
 273 603 l 1
 267 526 l 1
 316 577 378 616 451 616 c 0
 601 616 650 505 650 394 c 0
 650 365 647 337 641 310 c 2
 637 290 l 2
216 217 m 1
 222 148 255 100 321 100 c 0
 386 100 448 153 477 290 c 2
 481 310 l 2
 488 342 491 369 491 392 c 0
 491 469 456 500 406 500 c 0
 340 500 287 452 251 383 c 1
 216 217 l 1
EndSplineSet
PickledDataWithLists: "(dp0
Vcom.fontlab.hintData
p1
(dp2
Vvhints
p3
(lp4
(dp5
Vposition
p6
L41L
sVwidth
p7
L10L
sa(dp8
g6
L101L
sg7
L10L
sa(dp9
g6
L108L
sg7
L10L
sa(dp10
g6
L193L
sg7
L10L
sa(dp11
g6
L523L
sg7
L10L
sa(dp12
g6
L612L
sg7
L10L
sasVhhints
p13
(lp14
(dp15
g6
L-246L
sg7
L10L
sa(dp16
g6
L-16L
sg7
L10L
sa(dp17
g6
L46L
sg7
L10L
sa(dp18
g6
L549L
sg7
L10L
sa(dp19
g6
L610L
sg7
L10L
sass."
Colour: ff00
EndChar

StartChar: q
Encoding: 113 113 85
GlifName: q
Width: 675
VWidth: 0
Flags: HMW
AnchorPoint: "LatinBelow.mark" 424 -240 basechar 0
AnchorPoint: "LatinAbove.mark" 300 0 basechar 0
LayerCount: 2
Fore
SplineSet
537 600 m 1
 673 600 l 1
 500 -210 l 1
 345 -210 l 1
 403 61 l 1
 356 16 299 -16 232 -16 c 0
 82 -16 33 95 33 206 c 0
 33 235 36 263 42 290 c 2
 46 310 l 2
 74 440 177 616 366 616 c 0
 439 616 484 578 511 527 c 1
 537 600 l 1
440 236 m 1
 467 364 l 1
 466 443 432 500 361 500 c 0
 296 500 235 447 206 310 c 2
 202 290 l 2
 195 258 192 231 192 208 c 0
 192 131 226 100 276 100 c 0
 347 100 405 157 440 236 c 1
EndSplineSet
PickledDataWithLists: "(dp0
Vcom.fontlab.hintData
p1
(dp2
Vvhints
p3
(lp4
(dp5
Vposition
p6
L59L
sVwidth
p7
L10L
sa(dp8
g6
L149L
sg7
L10L
sa(dp9
g6
L444L
sg7
L10L
sa(dp10
g6
L459L
sg7
L10L
sa(dp11
g6
L471L
sg7
L10L
sa(dp12
g6
L547L
sg7
L10L
sa(dp13
g6
L559L
sg7
L10L
sa(dp14
g6
L649L
sg7
L10L
sasVhhints
p15
(lp16
(dp17
g6
L-261L
sg7
L10L
sa(dp18
g6
L-184L
sg7
L10L
sa(dp19
g6
L-17L
sg7
L10L
sa(dp20
g6
L44L
sg7
L10L
sa(dp21
g6
L66L
sg7
L10L
sa(dp22
g6
L549L
sg7
L10L
sa(dp23
g6
L611L
sg7
L10L
sass."
Colour: ff00
EndChar

StartChar: r
Encoding: 114 114 86
GlifName: r
Width: 435
VWidth: 0
Flags: HMW
AnchorPoint: "LatinBelow.mark" 110 0 basechar 0
AnchorPoint: "LatinAbove.mark" 180 0 basechar 0
LayerCount: 2
Fore
SplineSet
120 588 m 1
 257 603 l 1
 265 483 l 1
 306 555 365 616 450 616 c 0
 478 616 499 609 517 599 c 1
 430 469 l 1
 420 476 409 480 393 480 c 0
 344 480 291 407 257 314 c 1
 190 0 l 1
 30 0 l 1
 126 450 l 1
 120 588 l 1
EndSplineSet
PickledDataWithLists: "(dp0
Vcom.fontlab.hintData
p1
(dp2
Vvhints
p3
(lp4
(dp5
Vposition
p6
L20L
sVwidth
p7
L10L
sa(dp8
g6
L171L
sg7
L10L
sa(dp9
g6
L261L
sg7
L10L
sa(dp10
g6
L479L
sg7
L10L
sasVhhints
p11
(lp12
(dp13
g6
L-13L
sg7
L10L
sa(dp14
g6
L524L
sg7
L10L
sa(dp15
g6
L549L
sg7
L10L
sa(dp16
g6
L596L
sg7
L10L
sa(dp17
g6
L611L
sg7
L10L
sass."
Colour: ff00
EndChar

StartChar: s
Encoding: 115 115 87
GlifName: s
Width: 570
VWidth: 0
Flags: HMW
AnchorPoint: "LatinCedilla.mark" 250 0 basechar 0
AnchorPoint: "LatinBelow.mark" 225 0 basechar 0
AnchorPoint: "LatinAbove.mark" 225 0 basechar 0
LayerCount: 2
Fore
SplineSet
0 143 m 1
 160 163 l 1
 160 162 160 160 160 159 c 0
 160 122 189 91 250 91 c 0
 311 91 353 118 362 162 c 0
 363 167 364 172 364 176 c 0
 364 208 337 220 321 225 c 0
 280 238 222 254 182 270 c 0
 134 289 73 322 73 399 c 0
 73 410 74 422 77 435 c 0
 99 539 212 621 357 621 c 0
 512 621 563 528 563 464 c 0
 563 463 563 461 563 460 c 1
 404 440 l 1
 404 442 404 444 404 446 c 0
 404 482 383 509 333 509 c 0
 281 509 240 483 231 441 c 0
 230 438 230 435 230 432 c 0
 230 406 256 392 277 385 c 0
 315 372 375 354 406 344 c 0
 464 325 521 292 521 212 c 0
 521 199 519 184 516 168 c 0
 493 62 378 -21 221 -21 c 0
 55 -21 0 73 -0 139 c 0
 0 140 0 142 0 143 c 1
EndSplineSet
PickledDataWithLists: "(dp0
Vcom.fontlab.hintData
p1
(dp2
Vvhints
p3
(lp4
(dp5
Vposition
p6
L60L
sVwidth
p7
L10L
sa(dp8
g6
L139L
sg7
L10L
sa(dp9
g6
L381L
sg7
L10L
sa(dp10
g6
L431L
sg7
L10L
sa(dp11
g6
L470L
sg7
L10L
sa(dp12
g6
L516L
sg7
L10L
sasVhhints
p13
(lp14
(dp15
g6
L-20L
sg7
L10L
sa(dp16
g6
L42L
sg7
L10L
sa(dp17
g6
L151L
sg7
L10L
sa(dp18
g6
L434L
sg7
L10L
sa(dp19
g6
L554L
sg7
L10L
sa(dp20
g6
L616L
sg7
L10L
sass."
Colour: ff00
EndChar

StartChar: t
Encoding: 116 116 88
GlifName: t
Width: 415
VWidth: 0
Flags: HMW
AnchorPoint: "LatinCedilla.mark" 210 0 basechar 0
AnchorPoint: "LatinBelow.mark" 220 0 basechar 0
AnchorPoint: "LatinAbove.mark" 146 120 basechar 0
LayerCount: 2
Fore
SplineSet
66 500 m 1
 88 600 l 1
 174 600 l 1
 200 723 l 1
 353 735 l 1
 325 600 l 1
 458 600 l 1
 436 500 l 1
 306 500 l 1
 235 164 l 2
 232 148 230 136 230 127 c 0
 230 105 240 98 260 98 c 0
 295 98 333 111 348 119 c 1
 363 15 l 1
 328 -1 279 -16 215 -16 c 0
 125 -16 65 16 65 96 c 0
 65 109 67 124 70 140 c 2
 146 500 l 1
 66 500 l 1
EndSplineSet
PickledDataWithLists: "(dp0
Vcom.fontlab.hintData
p1
(dp2
Vvhints
p3
(lp4
(dp5
Vposition
p6
L20L
sVwidth
p7
L10L
sa(dp8
g6
L131L
sg7
L10L
sa(dp9
g6
L136L
sg7
L10L
sa(dp10
g6
L141L
sg7
L10L
sa(dp11
g6
L219L
sg7
L10L
sa(dp12
g6
L225L
sg7
L10L
sa(dp13
g6
L399L
sg7
L10L
sa(dp14
g6
L439L
sg7
L10L
sasVhhints
p15
(lp16
(dp17
g6
L-18L
sg7
L10L
sa(dp18
g6
L41L
sg7
L10L
sa(dp19
g6
L86L
sg7
L10L
sa(dp20
g6
L524L
sg7
L10L
sa(dp21
g6
L586L
sg7
L10L
sa(dp22
g6
L741L
sg7
L10L
sass."
Colour: ff00
EndChar

StartChar: u
Encoding: 117 117 89
GlifName: u
Width: 620
VWidth: 0
Flags: HMW
AnchorPoint: "LatinOgonek.mark" 320 0 basechar 0
AnchorPoint: "LatinBelow.mark" 250 0 basechar 0
AnchorPoint: "LatinAbove.mark" 250 0 basechar 0
LayerCount: 2
Fore
SplineSet
31 194 m 2
 118 600 l 1
 278 600 l 1
 191 194 l 2
 189 183 188 172 188 163 c 0
 188 111 224 93 270 93 c 0
 324 93 375 118 391 194 c 2
 478 600 l 1
 638 600 l 1
 551 194 l 2
 526 78 408 -21 246 -21 c 0
 104 -21 27 55 27 152 c 0
 27 166 28 180 31 194 c 2
EndSplineSet
PickledDataWithLists: "(dp0
Vcom.fontlab.hintData
p1
(dp2
Vvhints
p3
(lp4
(dp5
Vposition
p6
L81L
sVwidth
p7
L10L
sa(dp8
g6
L86L
sg7
L10L
sa(dp9
g6
L174L
sg7
L10L
sa(dp10
g6
L471L
sg7
L10L
sa(dp11
g6
L649L
sg7
L10L
sasVhhints
p12
(lp13
(dp14
g6
L-21L
sg7
L10L
sa(dp15
g6
L-16L
sg7
L10L
sa(dp16
g6
L41L
sg7
L10L
sa(dp17
g6
L601L
sg7
L10L
sass."
EndChar

StartChar: v
Encoding: 118 118 90
GlifName: v
Width: 600
VWidth: 0
Flags: HMW
AnchorPoint: "LatinBelow.mark" 240 0 basechar 0
AnchorPoint: "LatinAbove.mark" 240 0 basechar 0
LayerCount: 2
Fore
SplineSet
63 580 m 1
 65 588 l 1
 243 600 l 1
 284 205 l 1
 493 600 l 1
 665 588 l 1
 663 580 l 1
 305 0 l 1
 175 0 l 1
 63 580 l 1
EndSplineSet
PickledDataWithLists: "(dp0
Vcom.fontlab.hintData
p1
(dp2
Vvhints
p3
(lp4
(dp5
Vposition
p6
L35L
sVwidth
p7
L10L
sa(dp8
g6
L584L
sg7
L10L
sasVhhints
p9
(lp10
(dp11
g6
L-18L
sg7
L10L
sa(dp12
g6
L581L
sg7
L10L
sa(dp13
g6
L591L
sg7
L10L
sass."
Colour: ff00
EndChar

StartChar: w
Encoding: 119 119 91
GlifName: w
Width: 830
VWidth: 0
Flags: HMW
AnchorPoint: "LatinBelow.mark" 355 0 basechar 0
AnchorPoint: "LatinAbove.mark" 355 0 basechar 0
LayerCount: 2
Fore
SplineSet
888 580 m 1
 592 0 l 1
 457 0 l 1
 432 362 l 1
 253 0 l 1
 118 0 l 1
 68 580 l 1
 70 588 l 1
 243 600 l 1
 249 236 l 1
 416 585 l 1
 542 585 l 1
 561 236 l 1
 723 600 l 1
 890 588 l 1
 888 580 l 1
EndSplineSet
PickledDataWithLists: "(dp0
Vcom.fontlab.hintData
p1
(dp2
Vvhints
p3
(lp4
(dp5
Vposition
p6
L41L
sVwidth
p7
L10L
sa(dp8
g6
L790L
sg7
L10L
sasVhhints
p9
(lp10
(dp11
g6
L-11L
sg7
L10L
sa(dp12
g6
L568L
sg7
L10L
sa(dp13
g6
L590L
sg7
L10L
sass."
Colour: ff00
EndChar

StartChar: x
Encoding: 120 120 92
GlifName: x
Width: 600
VWidth: 0
Flags: HMW
AnchorPoint: "LatinBelow.mark" 240 0 basechar 0
AnchorPoint: "LatinAbove.mark" 240 0 basechar 0
LayerCount: 2
Fore
SplineSet
98 580 m 1
 100 588 l 1
 272 600 l 1
 331 428 l 1
 464 600 l 1
 630 588 l 1
 628 580 l 1
 396 323 l 1
 546 6 l 1
 545 0 l 1
 366 0 l 1
 281 193 l 1
 114 0 l 1
 -65 0 l 1
 -64 6 l 1
 222 323 l 1
 98 580 l 1
EndSplineSet
PickledDataWithLists: "(dp0
Vcom.fontlab.hintData
p1
(dp2
Vvhints
p3
(lp4
(dp5
Vposition
p6
L26L
sVwidth
p7
L10L
sa(dp8
g6
L71L
sg7
L10L
sa(dp9
g6
L524L
sg7
L10L
sa(dp10
g6
L559L
sg7
L10L
sasVhhints
p11
(lp12
(dp13
g6
L-6L
sg7
L10L
sa(dp14
g6
L5L
sg7
L10L
sa(dp15
g6
L591L
sg7
L10L
sass."
Colour: ff00
EndChar

StartChar: y
Encoding: 121 121 93
GlifName: y
Width: 600
VWidth: 0
Flags: HMW
AnchorPoint: "LatinBelow.mark" 202 -180 basechar 0
AnchorPoint: "LatinAbove.mark" 240 0 basechar 0
LayerCount: 2
Fore
SplineSet
63 580 m 1
 65 588 l 1
 243 600 l 1
 285 200 l 1
 493 600 l 1
 665 588 l 1
 663 580 l 1
 302 -15 l 1
 229 -124 169 -231 29 -231 c 0
 -29 -231 -67 -209 -90 -189 c 1
 5 -95 l 1
 17 -108 30 -121 47 -121 c 0
 86 -121 116 -81 174 8 c 1
 63 580 l 1
EndSplineSet
PickledDataWithLists: "(dp0
Vcom.fontlab.hintData
p1
(dp2
Vvhints
p3
(lp4
(dp5
Vposition
p6
L56L
sVwidth
p7
L10L
sa(dp8
g6
L130L
sg7
L10L
sasVhhints
p9
(lp10
(dp11
g6
L-257L
sg7
L10L
sa(dp12
g6
L-195L
sg7
L10L
sa(dp13
g6
L-164L
sg7
L10L
sa(dp14
g6
L4L
sg7
L10L
sa(dp15
g6
L584L
sg7
L10L
sa(dp16
g6
L595L
sg7
L10L
sass."
Colour: ff00
EndChar

StartChar: z
Encoding: 122 122 94
GlifName: z
Width: 530
VWidth: 0
Flags: HMW
AnchorPoint: "LatinBelow.mark" 205 0 basechar 0
AnchorPoint: "LatinAbove.mark" 205 0 basechar 0
LayerCount: 2
Fore
SplineSet
-28 79 m 1
 344 490 l 1
 84 490 l 1
 108 600 l 1
 568 600 l 1
 560 521 l 1
 187 110 l 1
 478 110 l 1
 455 0 l 1
 -36 0 l 1
 -28 79 l 1
EndSplineSet
PickledDataWithLists: "(dp0
Vcom.fontlab.hintData
p1
(dp2
Vvhints
p3
(lp4
(dp5
Vposition
p6
L46L
sVwidth
p7
L10L
sa(dp8
g6
L61L
sg7
L10L
sa(dp9
g6
L531L
sg7
L10L
sa(dp10
g6
L544L
sg7
L10L
sasVhhints
p11
(lp12
(dp13
g6
L-17L
sg7
L10L
sa(dp14
g6
L51L
sg7
L10L
sa(dp15
g6
L59L
sg7
L10L
sa(dp16
g6
L525L
sg7
L15L
sa(dp17
g6
L587L
sg7
L10L
sa(dp18
g6
L592L
sg7
L10L
sass."
Colour: ff00
EndChar

StartChar: braceleft
Encoding: 123 123 95
GlifName: braceleft
Width: 390
VWidth: 0
Flags: HMW
LayerCount: 2
Fore
SplineSet
48 365 m 1
 53 390 l 1
 58 415 l 1
 107 429 162 457 180 540 c 0
 182 548 182 559 182 572 c 0
 182 598 180 632 180 664 c 0
 180 688 181 710 185 730 c 0
 203 817 280 900 401 900 c 2
 461 900 l 1
 444 820 l 1
 404 820 l 2
 385 820 343 813 323 720 c 0
 313 672 323 577 312 525 c 0
 297 453 253 411 196 390 c 1
 235 373 259 343 259 294 c 0
 259 282 257 269 254 255 c 0
 243 203 193 108 183 60 c 0
 179 42 177 28 177 16 c 0
 177 -35 206 -40 221 -40 c 2
 261 -40 l 1
 244 -120 l 1
 184 -120 l 2
 81 -120 36 -60 36 11 c 0
 36 24 38 37 41 50 c 0
 54 110 108 204 116 240 c 0
 119 253 120 264 120 275 c 0
 120 331 84 353 48 365 c 1
EndSplineSet
PickledDataWithLists: "(dp0
Vcom.fontlab.hintData
p1
(dp2
Vvhints
p3
(lp4
(dp5
Vposition
p6
L22L
sVwidth
p7
L10L
sa(dp8
g6
L112L
sg7
L10L
sa(dp9
g6
L128L
sg7
L10L
sa(dp10
g6
L182L
sg7
L10L
sa(dp11
g6
L197L
sg7
L10L
sa(dp12
g6
L205L
sg7
L10L
sa(dp13
g6
L289L
sg7
L10L
sasVhhints
p14
(lp15
(dp16
g6
L-89L
sg7
L10L
sa(dp17
g6
L-41L
sg7
L10L
sa(dp18
g6
L830L
sg7
L10L
sa(dp19
g6
L879L
sg7
L10L
sass."
EndChar

StartChar: bar
Encoding: 124 124 96
GlifName: bar
Width: 360
VWidth: 0
Flags: HMW
LayerCount: 2
Fore
SplineSet
24 -120 m 1
 241 900 l 1
 381 900 l 1
 164 -120 l 1
 24 -120 l 1
EndSplineSet
PickledDataWithLists: "(dp0
Vcom.fontlab.hintData
p1
(dp2
Vvhints
p3
(lp4
(dp5
Vposition
p6
L131L
sVwidth
p7
L10L
sa(dp8
g6
L209L
sg7
L10L
sa(dp9
g6
L216L
sg7
L10L
sasVhhints
p10
(lp11
(dp12
g6
L-92L
sg7
L10L
sa(dp13
g6
L882L
sg7
L10L
sass."
EndChar

StartChar: braceright
Encoding: 125 125 97
GlifName: braceright
Width: 390
VWidth: 0
Flags: HMW
LayerCount: 2
Fore
SplineSet
388 415 m 1
 383 390 l 1
 378 365 l 1
 329 351 274 323 256 240 c 0
 254 232 254 221 254 208 c 0
 254 182 256 148 256 116 c 0
 256 92 255 70 251 50 c 0
 233 -37 155 -120 34 -120 c 2
 -26 -120 l 1
 -9 -40 l 1
 31 -40 l 2
 50 -40 93 -33 113 60 c 0
 123 108 113 203 124 255 c 0
 139 327 183 369 240 390 c 1
 201 407 177 437 177 486 c 0
 177 498 179 511 182 525 c 0
 193 577 243 672 253 720 c 0
 257 738 258 752 258 764 c 0
 258 815 229 820 214 820 c 2
 174 820 l 1
 191 900 l 1
 251 900 l 2
 354 900 399 840 399 769 c 0
 399 756 398 743 395 730 c 0
 382 670 328 576 320 540 c 0
 317 527 316 516 316 505 c 0
 316 449 352 427 388 415 c 1
EndSplineSet
PickledDataWithLists: "(dp0
Vcom.fontlab.hintData
p1
(dp2
Vvhints
p3
(lp4
(dp5
Vposition
p6
L61L
sVwidth
p7
L10L
sa(dp8
g6
L145L
sg7
L10L
sa(dp9
g6
L153L
sg7
L10L
sa(dp10
g6
L166L
sg7
L10L
sa(dp11
g6
L216L
sg7
L10L
sa(dp12
g6
L222L
sg7
L10L
sa(dp13
g6
L237L
sg7
L10L
sa(dp14
g6
L328L
sg7
L10L
sasVhhints
p15
(lp16
(dp17
g6
L-89L
sg7
L10L
sa(dp18
g6
L-41L
sg7
L10L
sa(dp19
g6
L831L
sg7
L10L
sa(dp20
g6
L879L
sg7
L10L
sass."
EndChar

StartChar: asciitilde
Encoding: 126 126 98
GlifName: asciitilde
Width: 600
VWidth: 0
Flags: HMW
LayerCount: 2
Fore
SplineSet
37 315 m 1
 89 409 147 505 251 505 c 0
 320 505 354 458 374 432 c 0
 398 402 412 390 424 390 c 0
 454 390 487 436 515 495 c 1
 609 465 l 1
 557 371 498 275 394 275 c 0
 325 275 292 322 272 348 c 0
 248 378 234 390 222 390 c 0
 192 390 159 344 131 285 c 1
 37 315 l 1
EndSplineSet
PickledDataWithLists: "(dp0
Vcom.fontlab.hintData
p1
(dp2
Vvhints
p3
(lp4
(dp5
Vposition
p6
L51L
sVwidth
p7
L10L
sa(dp8
g6
L539L
sg7
L10L
sasVhhints
p9
(lp10
(dp11
g6
L249L
sg7
L10L
sa(dp12
g6
L260L
sg7
L10L
sa(dp13
g6
L311L
sg7
L10L
sa(dp14
g6
L359L
sg7
L10L
sa(dp15
g6
L411L
sg7
L10L
sa(dp16
g6
L421L
sg7
L10L
sass."
EndChar

StartChar: copyright
Encoding: 169 169 100
GlifName: copyright
Width: 1020
VWidth: 0
Flags: HMW
LayerCount: 2
Fore
SplineSet
731 498 m 1
 627 489 l 1
 627 490 627 490 627 491 c 0
 627 515 607 538 575 538 c 0
 529 538 483 499 464 411 c 2
 461 395 l 2
 457 377 455 360 455 346 c 0
 455 292 482 268 518 268 c 0
 551 268 581 292 590 317 c 1
 690 308 l 1
 673 268 615 197 503 197 c 0
 385 197 353 266 353 337 c 0
 353 357 355 377 359 395 c 2
 362 411 l 2
 380 495 439 609 590 609 c 0
 700 609 731 540 731 500 c 0
 731 499 731 499 731 498 c 1
446 -20 m 0
 219 -20 90 115 90 305 c 0
 90 337 94 370 101 405 c 0
 152 646 361 830 626 830 c 0
 853 830 982 695 982 505 c 0
 982 473 978 440 971 405 c 0
 920 164 711 -20 446 -20 c 0
463 60 m 0
 672 60 837 198 881 405 c 0
 888 436 891 465 891 493 c 0
 891 650 787 750 609 750 c 0
 400 750 235 612 191 405 c 0
 184 374 181 345 181 317 c 0
 181 160 285 60 463 60 c 0
EndSplineSet
PickledDataWithLists: "(dp0
Vcom.fontlab.hintData
p1
(dp2
Vvhints
p3
(lp4
(dp5
Vposition
p6
L83L
sVwidth
p7
L10L
sa(dp8
g6
L147L
sg7
L10L
sa(dp9
g6
L315L
sg7
L10L
sa(dp10
g6
L395L
sg7
L10L
sa(dp11
g6
L565L
sg7
L10L
sa(dp12
g6
L645L
sg7
L10L
sa(dp13
g6
L661L
sg7
L10L
sa(dp14
g6
L798L
sg7
L10L
sa(dp15
g6
L863L
sg7
L10L
sa(dp16
g6
L927L
sg7
L10L
sasVhhints
p17
(lp18
(dp19
g6
L-27L
sg7
L10L
sa(dp20
g6
L17L
sg7
L10L
sa(dp21
g6
L170L
sg7
L10L
sa(dp22
g6
L224L
sg7
L10L
sa(dp23
g6
L283L
sg7
L10L
sa(dp24
g6
L472L
sg7
L10L
sa(dp25
g6
L549L
sg7
L10L
sa(dp26
g6
L603L
sg7
L10L
sa(dp27
g6
L773L
sg7
L10L
sa(dp28
g6
L817L
sg7
L10L
sass."
EndChar

StartChar: registered
Encoding: 174 174 101
GlifName: registered
Width: 870
VWidth: 0
Flags: HMW
LayerCount: 2
Fore
SplineSet
430 259 m 0
 246 259 143 369 143 521 c 0
 143 546 146 573 152 600 c 0
 193 792 360 941 575 941 c 0
 759 941 862 831 862 679 c 0
 862 654 860 627 854 600 c 0
 813 408 645 259 430 259 c 0
443 319 m 0
 610 319 746 430 782 600 c 0
 787 625 790 649 790 672 c 0
 790 801 704 881 562 881 c 0
 395 881 260 770 224 600 c 0
 219 575 216 551 216 528 c 0
 216 399 301 319 443 319 c 0
685 673 m 0
 672 613 619 570 548 556 c 1
 642 404 l 1
 641 400 l 1
 534 400 l 1
 445 551 l 2
 444 551 444 551 443 551 c 2
 411 400 l 1
 314 400 l 1
 347 555 l 1
 397 790 l 1
 397 790 474 795 543 795 c 0
 632 795 688 758 688 697 c 0
 688 689 687 681 685 673 c 0
588 673 m 0
 589 678 590 682 590 686 c 0
 590 721 553 727 507 727 c 0
 498 727 488 726 480 726 c 1
 458 619 l 1
 466 619 475 619 484 619 c 0
 535 619 578 626 588 673 c 0
EndSplineSet
PickledDataWithLists: "(dp0
Vcom.fontlab.hintData
p1
(dp2
Vvhints
p3
(lp4
(dp5
Vposition
p6
L90L
sVwidth
p7
L10L
sa(dp8
g6
L140L
sg7
L10L
sa(dp9
g6
L263L
sg7
L10L
sa(dp10
g6
L301L
sg7
L10L
sa(dp11
g6
L303L
sg7
L10L
sa(dp12
g6
L363L
sg7
L10L
sa(dp13
g6
L480L
sg7
L10L
sa(dp14
g6
L544L
sg7
L10L
sa(dp15
g6
L557L
sg7
L10L
sa(dp16
g6
L628L
sg7
L10L
sa(dp17
g6
L677L
sg7
L10L
sa(dp18
g6
L727L
sg7
L10L
sasVhhints
p19
(lp20
(dp21
g6
L319L
sg7
L10L
sa(dp22
g6
L351L
sg7
L10L
sa(dp23
g6
L469L
sg7
L10L
sa(dp24
g6
L596L
sg7
L20L
sa(dp25
g6
L644L
sg7
L10L
sa(dp26
g6
L654L
sg7
L10L
sa(dp27
g6
L725L
sg7
L11L
sa(dp28
g6
L757L
sg7
L10L
sa(dp29
g6
L799L
sg7
L10L
sa(dp30
g6
L919L
sg7
L10L
sa(dp31
g6
L951L
sg7
L10L
sass."
EndChar

StartChar: guillemotleft
Encoding: 171 171 102
GlifName: guillemotleft
Width: 780
VWidth: 0
Flags: HMW
LayerCount: 2
Fore
SplineSet
70 330 m 1
 83 390 l 1
 445 660 l 1
 483 580 l 1
 245 360 l 1
 390 140 l 1
 318 60 l 1
 70 330 l 1
370 330 m 1
 383 390 l 1
 745 660 l 1
 783 580 l 1
 545 360 l 1
 690 140 l 1
 618 60 l 1
 370 330 l 1
EndSplineSet
PickledDataWithLists: "(dp0
Vcom.fontlab.hintData
p1
(dp2
Vvhints
p3
(lp4
(dp5
Vposition
p6
L66L
sVwidth
p7
L10L
sa(dp8
g6
L336L
sg7
L10L
sa(dp9
g6
L356L
sg7
L10L
sa(dp10
g6
L368L
sg7
L10L
sa(dp11
g6
L626L
sg7
L10L
sa(dp12
g6
L638L
sg7
L10L
sasVhhints
p13
(lp14
(dp15
g6
L65L
sg7
L10L
sa(dp16
g6
L605L
sg7
L10L
sass."
EndChar

StartChar: guillemotright
Encoding: 187 187 103
GlifName: guillemotright
Width: 780
VWidth: 0
Flags: HMW
LayerCount: 2
Fore
SplineSet
743 390 m 1
 730 330 l 1
 368 60 l 1
 330 140 l 1
 569 360 l 1
 423 580 l 1
 495 660 l 1
 743 390 l 1
443 390 m 1
 430 330 l 1
 68 60 l 1
 30 140 l 1
 269 360 l 1
 123 580 l 1
 195 660 l 1
 443 390 l 1
EndSplineSet
PickledDataWithLists: "(dp0
Vcom.fontlab.hintData
p1
(dp2
Vvhints
p3
(lp4
(dp5
Vposition
p6
L72L
sVwidth
p7
L10L
sa(dp8
g6
L84L
sg7
L10L
sa(dp9
g6
L342L
sg7
L10L
sa(dp10
g6
L354L
sg7
L10L
sa(dp11
g6
L374L
sg7
L10L
sa(dp12
g6
L644L
sg7
L10L
sasVhhints
p13
(lp14
(dp15
g6
L64L
sg7
L10L
sa(dp16
g6
L605L
sg7
L10L
sass."
EndChar

StartChar: uni2010
Encoding: 8208 8208 111
GlifName: uni2010
Width: 600
VWidth: 0
Flags: HMW
LayerCount: 2
Fore
SplineSet
104 420 m 25
 554 420 l 25
 529 300 l 25
 79 300 l 25
 104 420 l 25
EndSplineSet
PickledDataWithLists: "(dp0
Vcom.fontlab.hintData
p1
(dp2
Vvhints
p3
(lp4
(dp5
Vposition
p6
L75L
sVwidth
p7
L10L
sa(dp8
g6
L514L
sg7
L10L
sasVhhints
p9
(lp10
(dp11
g6
L301L
sg7
L10L
sa(dp12
g6
L363L
sg7
L10L
sa(dp13
g6
L371L
sg7
L10L
sass."
EndChar

StartChar: uni2011
Encoding: 8209 8209 112
GlifName: uni2011
Width: 600
VWidth: 0
Flags: HMW
LayerCount: 2
Fore
SplineSet
104 420 m 25
 554 420 l 25
 529 300 l 25
 79 300 l 25
 104 420 l 25
EndSplineSet
PickledDataWithLists: "(dp0
Vcom.fontlab.hintData
p1
(dp2
Vvhints
p3
(lp4
(dp5
Vposition
p6
L75L
sVwidth
p7
L10L
sa(dp8
g6
L514L
sg7
L10L
sasVhhints
p9
(lp10
(dp11
g6
L301L
sg7
L10L
sa(dp12
g6
L363L
sg7
L10L
sa(dp13
g6
L371L
sg7
L10L
sass."
EndChar

StartChar: figuredash
Encoding: 8210 8210 113
GlifName: figuredash
Width: 660
VWidth: 0
Flags: HMW
LayerCount: 2
Fore
SplineSet
104 420 m 25
 614 420 l 25
 589 300 l 25
 79 300 l 25
 104 420 l 25
EndSplineSet
PickledDataWithLists: "(dp0
Vcom.fontlab.hintData
p1
(dp2
Vvhints
p3
(lp4
(dp5
Vposition
p6
L105L
sVwidth
p7
L10L
sa(dp8
g6
L604L
sg7
L10L
sasVhhints
p9
(lp10
(dp11
g6
L301L
sg7
L10L
sa(dp12
g6
L364L
sg7
L10L
sa(dp13
g6
L371L
sg7
L10L
sass."
EndChar

StartChar: uni2015
Encoding: 8213 8213 114
GlifName: uni2015
Width: 1200
VWidth: 0
Flags: HMW
LayerCount: 2
Fore
SplineSet
104 420 m 25
 1154 420 l 25
 1129 300 l 25
 79 300 l 25
 104 420 l 25
EndSplineSet
PickledDataWithLists: "(dp0
Vcom.fontlab.hintData
p1
(dp2
Vvhints
p3
(lp4
(dp5
Vposition
p6
L90L
sVwidth
p7
L10L
sa(dp8
g6
L1099L
sg7
L10L
sasVhhints
p9
(lp10
(dp11
g6
L299L
sg7
L10L
sa(dp12
g6
L304L
sg7
L10L
sa(dp13
g6
L309L
sg7
L10L
sa(dp14
g6
L361L
sg7
L10L
sa(dp15
g6
L366L
sg7
L10L
sa(dp16
g6
L371L
sg7
L10L
sass."
EndChar

StartChar: endash
Encoding: 8211 8211 115
GlifName: endash
Width: 660
VWidth: 0
Flags: HMW
LayerCount: 2
Fore
SplineSet
104 420 m 25
 614 420 l 25
 589 300 l 25
 79 300 l 25
 104 420 l 25
EndSplineSet
PickledDataWithLists: "(dp0
Vcom.fontlab.hintData
p1
(dp2
Vvhints
p3
(lp4
(dp5
Vposition
p6
L75L
sVwidth
p7
L10L
sa(dp8
g6
L574L
sg7
L10L
sasVhhints
p9
(lp10
(dp11
g6
L301L
sg7
L10L
sa(dp12
g6
L364L
sg7
L10L
sa(dp13
g6
L371L
sg7
L10L
sass."
EndChar

StartChar: emdash
Encoding: 8212 8212 116
GlifName: emdash
Width: 1200
VWidth: 0
Flags: HMW
LayerCount: 2
Fore
SplineSet
104 420 m 25
 1154 420 l 25
 1129 300 l 25
 79 300 l 25
 104 420 l 25
EndSplineSet
PickledDataWithLists: "(dp0
Vcom.fontlab.hintData
p1
(dp2
Vvhints
p3
(lp4
(dp5
Vposition
p6
L90L
sVwidth
p7
L10L
sa(dp8
g6
L1099L
sg7
L10L
sasVhhints
p9
(lp10
(dp11
g6
L299L
sg7
L10L
sa(dp12
g6
L304L
sg7
L10L
sa(dp13
g6
L309L
sg7
L10L
sa(dp14
g6
L361L
sg7
L10L
sa(dp15
g6
L366L
sg7
L10L
sa(dp16
g6
L371L
sg7
L10L
sass."
EndChar

StartChar: quoteleft
Encoding: 8216 8216 117
GlifName: quoteleft
Width: 330
VWidth: 0
Flags: HMW
LayerCount: 2
Fore
SplineSet
334 632 m 0
 323 579 280 540 220 540 c 0
 156 540 133 582 133 630 c 0
 133 641 134 653 136 665 c 0
 162 788 266 876 348 920 c 1
 382 856 l 1
 332 829 284 784 257 716 c 1
 259 716 260 716 262 716 c 0
 306 716 337 692 337 652 c 0
 337 646 335 639 334 632 c 0
EndSplineSet
PickledDataWithLists: "(dp0
Vcom.fontlab.hintData
p1
(dp2
Vvhints
p3
(lp4
(dp5
Vposition
p6
L69L
sVwidth
p7
L10L
sa(dp8
g6
L150L
sg7
L10L
sa(dp9
g6
L255L
sg7
L10L
sasVhhints
p10
(lp11
(dp12
g6
L533L
sg7
L10L
sa(dp13
g6
L602L
sg7
L10L
sa(dp14
g6
L832L
sg7
L10L
sass."
EndChar

StartChar: quoteright
Encoding: 8217 8217 118
GlifName: quoteright
Width: 330
VWidth: 0
Flags: HMW
LayerCount: 2
Fore
SplineSet
184 818 m 0
 195 871 238 910 298 910 c 0
 362 910 386 868 386 820 c 0
 386 809 384 797 382 785 c 0
 356 662 253 574 171 530 c 1
 136 594 l 1
 186 621 234 666 261 734 c 1
 259 734 258 734 256 734 c 0
 212 734 182 758 182 798 c 0
 182 804 183 811 184 818 c 0
EndSplineSet
PickledDataWithLists: "(dp0
Vcom.fontlab.hintData
p1
(dp2
Vvhints
p3
(lp4
(dp5
Vposition
p6
L61L
sVwidth
p7
L10L
sa(dp8
g6
L170L
sg7
L10L
sa(dp9
g6
L251L
sg7
L10L
sasVhhints
p10
(lp11
(dp12
g6
L538L
sg7
L10L
sa(dp13
g6
L768L
sg7
L10L
sa(dp14
g6
L837L
sg7
L10L
sass."
EndChar

StartChar: quotedblleft
Encoding: 8220 8220 119
GlifName: quotedblleft
Width: 570
VWidth: 0
Flags: HMW
LayerCount: 2
Fore
SplineSet
334 632 m 0
 323 579 280 540 220 540 c 0
 156 540 133 582 133 630 c 0
 133 641 134 653 136 665 c 0
 162 788 266 876 348 920 c 1
 382 856 l 1
 332 829 284 784 257 716 c 1
 259 716 260 716 262 716 c 0
 306 716 337 692 337 652 c 0
 337 646 335 639 334 632 c 0
574 632 m 0
 563 579 520 540 460 540 c 0
 396 540 373 582 373 630 c 0
 373 641 374 653 376 665 c 0
 402 788 506 876 588 920 c 1
 622 856 l 1
 572 829 524 784 497 716 c 1
 499 716 500 716 502 716 c 0
 546 716 577 692 577 652 c 0
 577 646 575 639 574 632 c 0
EndSplineSet
PickledDataWithLists: "(dp0
Vcom.fontlab.hintData
p1
(dp2
Vvhints
p3
(lp4
(dp5
Vposition
p6
L69L
sVwidth
p7
L10L
sa(dp8
g6
L150L
sg7
L10L
sa(dp9
g6
L255L
sg7
L10L
sa(dp10
g6
L309L
sg7
L10L
sa(dp11
g6
L390L
sg7
L10L
sa(dp12
g6
L495L
sg7
L10L
sasVhhints
p13
(lp14
(dp15
g6
L533L
sg7
L10L
sa(dp16
g6
L602L
sg7
L10L
sa(dp17
g6
L832L
sg7
L10L
sass."
EndChar

StartChar: quotedblright
Encoding: 8221 8221 120
GlifName: quotedblright
Width: 570
VWidth: 0
Flags: HMW
LayerCount: 2
Fore
SplineSet
184 818 m 0
 195 871 238 910 298 910 c 0
 362 910 386 868 386 820 c 0
 386 809 384 797 382 785 c 0
 356 662 253 574 171 530 c 1
 136 594 l 1
 186 621 234 666 261 734 c 1
 259 734 258 734 256 734 c 0
 212 734 182 758 182 798 c 0
 182 804 183 811 184 818 c 0
424 818 m 0
 435 871 478 910 538 910 c 0
 602 910 626 868 626 820 c 0
 626 809 624 797 622 785 c 0
 596 662 493 574 411 530 c 1
 376 594 l 1
 426 621 474 666 501 734 c 1
 499 734 498 734 496 734 c 0
 452 734 422 758 422 798 c 0
 422 804 423 811 424 818 c 0
EndSplineSet
PickledDataWithLists: "(dp0
Vcom.fontlab.hintData
p1
(dp2
Vvhints
p3
(lp4
(dp5
Vposition
p6
L61L
sVwidth
p7
L10L
sa(dp8
g6
L170L
sg7
L10L
sa(dp9
g6
L251L
sg7
L10L
sa(dp10
g6
L301L
sg7
L10L
sa(dp11
g6
L410L
sg7
L10L
sa(dp12
g6
L491L
sg7
L10L
sasVhhints
p13
(lp14
(dp15
g6
L538L
sg7
L10L
sa(dp16
g6
L768L
sg7
L10L
sa(dp17
g6
L837L
sg7
L10L
sass."
EndChar

StartChar: bullet
Encoding: 8226 8226 121
GlifName: bullet
Width: 660
VWidth: 0
Flags: HMW
LayerCount: 2
Fore
SplineSet
204 360 m 0
 221 441 294 492 375 492 c 0
 445 492 493 453 493 390 c 0
 493 380 492 371 490 360 c 0
 473 279 399 228 318 228 c 0
 248 228 200 267 200 330 c 0
 200 340 202 349 204 360 c 0
EndSplineSet
PickledDataWithLists: "(dp0
Vcom.fontlab.hintData
p1
(dp2
Vvhints
p3
(lp4
(dp5
Vposition
p6
L231L
sVwidth
p7
L10L
sa(dp8
g6
L479L
sg7
L10L
sasVhhints
p9
(lp10
(dp11
g6
L234L
sg7
L10L
sa(dp12
g6
L456L
sg7
L10L
sass."
EndChar

StartChar: ellipsis
Encoding: 8230 8230 122
GlifName: ellipsis
Width: 870
VWidth: 0
GlyphClass: 3
Flags: HMW
LayerCount: 2
Fore
SplineSet
27 82 m 0
 38 136 87 170 141 170 c 0
 188 170 220 144 220 102 c 0
 220 96 219 89 217 82 c 0
 206 28 158 -6 104 -6 c 0
 57 -6 25 20 25 62 c 0
 25 68 25 75 27 82 c 0
297 82 m 0
 308 136 357 170 411 170 c 0
 458 170 490 144 490 102 c 0
 490 96 489 89 487 82 c 0
 476 28 428 -6 374 -6 c 0
 327 -6 295 20 295 62 c 0
 295 68 295 75 297 82 c 0
567 82 m 0
 578 136 627 170 681 170 c 0
 728 170 760 144 760 102 c 0
 760 96 759 89 757 82 c 0
 746 28 698 -6 644 -6 c 0
 597 -6 565 20 565 62 c 0
 565 68 565 75 567 82 c 0
EndSplineSet
PickledDataWithLists: "(dp0
Vcom.fontlab.hintData
p1
(dp2
Vvhints
p3
(lp4
(dp5
Vposition
p6
L60L
sVwidth
p7
L10L
sa(dp8
g6
L200L
sg7
L10L
sa(dp9
g6
L285L
sg7
L10L
sa(dp10
g6
L425L
sg7
L10L
sa(dp11
g6
L510L
sg7
L10L
sa(dp12
g6
L650L
sg7
L10L
sasVhhints
p13
(lp14
(dp15
g6
L2L
sg7
L10L
sa(dp16
g6
L115L
sg7
L10L
sass."
Ligature2: "Latin.liga subtable" period uni200D period uni200D period
Ligature2: "Latin.liga subtable" period period period
EndChar

StartChar: Euro
Encoding: 8364 8364 124
GlifName: E_uro
Width: 660
VWidth: 0
Flags: HMW
LayerCount: 2
Fore
SplineSet
-3 270 m 1
 17 360 l 1
 97 360 l 1
 98 365 98 369 99 374 c 2
 106 406 l 2
 107 411 108 415 109 420 c 1
 29 420 l 1
 48 510 l 1
 135 510 l 1
 186 655 289 801 488 801 c 0
 665 801 704 670 704 595 c 0
 704 591 704 587 704 583 c 1
 542 569 l 1
 542 572 542 576 542 579 c 0
 542 635 511 679 462 679 c 0
 403 679 339 625 296 510 c 1
 528 510 l 1
 509 420 l 1
 269 420 l 1
 268 415 267 411 266 406 c 2
 259 374 l 2
 258 369 258 365 257 360 c 1
 497 360 l 1
 477 270 l 1
 245 270 l 1
 245 263 245 256 245 250 c 0
 245 149 284 101 339 101 c 0
 391 101 444 151 466 211 c 1
 622 197 l 1
 596 125 501 -21 314 -21 c 0
 134 -21 83 99 83 229 c 0
 83 243 83 256 84 270 c 1
 -3 270 l 1
EndSplineSet
PickledDataWithLists: "(dp0
Vcom.fontlab.hintData
p1
(dp2
Vvhints
p3
(lp4
(dp5
Vposition
p6
L21L
sVwidth
p7
L10L
sa(dp8
g6
L115L
sg7
L10L
sa(dp9
g6
L203L
sg7
L10L
sa(dp10
g6
L484L
sg7
L10L
sa(dp11
g6
L659L
sg7
L10L
sasVhhints
p12
(lp13
(dp14
g6
L-15L
sg7
L10L
sa(dp15
g6
L48L
sg7
L9L
sa(dp16
g6
L165L
sg7
L10L
sa(dp17
g6
L268L
sg7
L10L
sa(dp18
g6
L323L
sg7
L10L
sa(dp19
g6
L448L
sg7
L10L
sa(dp20
g6
L453L
sg7
L10L
sa(dp21
g6
L503L
sg7
L10L
sa(dp22
g6
L590L
sg7
L10L
sa(dp23
g6
L745L
sg7
L10L
sa(dp24
g6
L806L
sg7
L10L
sass."
EndChar

StartChar: trademark
Encoding: 8482 8482 125
GlifName: trademark
Width: 765
VWidth: 0
Flags: HMW
LayerCount: 2
Fore
SplineSet
121 825 m 1
 137 900 l 1
 440 900 l 1
 424 825 l 1
 325 825 l 1
 258 510 l 1
 153 510 l 1
 220 825 l 1
 121 825 l 1
774 510 m 1
 670 510 l 1
 713 709 l 1
 637 608 l 1
 581 608 l 1
 549 709 l 1
 506 510 l 1
 402 510 l 1
 484 892 l 1
 569 900 l 1
 628 698 l 1
 773 900 l 1
 856 892 l 1
 774 510 l 1
EndSplineSet
PickledDataWithLists: "(dp0
Vcom.fontlab.hintData
p1
(dp2
Vvhints
p3
(lp4
(dp5
Vposition
p6
L39L
sVwidth
p7
L10L
sa(dp8
g6
L180L
sg7
L10L
sa(dp9
g6
L251L
sg7
L10L
sa(dp10
g6
L383L
sg7
L10L
sa(dp11
g6
L421L
sg7
L10L
sa(dp12
g6
L440L
sg7
L10L
sa(dp13
g6
L504L
sg7
L10L
sa(dp14
g6
L735L
sg7
L10L
sa(dp15
g6
L800L
sg7
L10L
sa(dp16
g6
L819L
sg7
L10L
sasVhhints
p17
(lp18
(dp19
g6
L381L
sg7
L10L
sa(dp20
g6
L390L
sg7
L10L
sa(dp21
g6
L395L
sg7
L10L
sa(dp22
g6
L473L
sg7
L10L
sa(dp23
g6
L745L
sg7
L10L
sa(dp24
g6
L751L
sg7
L10L
sa(dp25
g6
L803L
sg7
L10L
sass."
EndChar

StartChar: uni25CC
Encoding: 9676 9676 126
GlifName: uni25C_C_
Width: 720
VWidth: 0
GlyphClass: 2
Flags: HMW
AnchorPoint: "LatinCedilla.mark" 320 0 basechar 0
AnchorPoint: "LatinBelow.mark" 300 0 basechar 0
AnchorPoint: "LatinAbove.mark" 300 0 basechar 0
LayerCount: 2
Fore
SplineSet
333 15 m 0
 329 -2 314 -15 297 -15 c 0
 282 -15 272 -6 272 8 c 0
 272 10 273 13 273 15 c 0
 277 32 293 45 310 45 c 0
 325 45 334 36 334 22 c 0
 334 20 333 17 333 15 c 0
454 585 m 0
 450 568 435 555 418 555 c 0
 403 555 394 564 394 578 c 0
 394 580 394 583 394 585 c 0
 398 602 414 615 431 615 c 0
 446 615 455 606 455 592 c 0
 455 590 454 587 454 585 c 0
655 330 m 0
 670 330 679 321 679 307 c 0
 679 305 679 302 679 300 c 0
 675 283 659 270 642 270 c 0
 627 270 618 279 618 293 c 0
 618 295 619 298 619 300 c 0
 623 317 638 330 655 330 c 0
85 330 m 0
 100 330 109 321 109 307 c 0
 109 305 109 302 109 300 c 0
 105 283 89 270 72 270 c 0
 57 270 48 279 48 293 c 0
 48 295 49 298 49 300 c 0
 53 317 68 330 85 330 c 0
130 439 m 0
 145 439 155 430 155 416 c 0
 155 414 154 411 154 409 c 0
 150 392 135 379 118 379 c 0
 103 379 93 388 93 402 c 0
 93 404 94 407 94 409 c 0
 98 426 113 439 130 439 c 0
84 221 m 0
 99 221 108 212 108 198 c 0
 108 196 108 193 108 191 c 0
 104 174 88 161 71 161 c 0
 56 161 47 170 47 184 c 0
 47 186 48 189 48 191 c 0
 52 208 67 221 84 221 c 0
656 439 m 0
 671 439 681 430 681 416 c 0
 681 414 680 411 680 409 c 0
 676 392 661 379 644 379 c 0
 629 379 619 388 619 402 c 0
 619 404 620 407 620 409 c 0
 624 426 639 439 656 439 c 0
610 221 m 0
 625 221 634 212 634 198 c 0
 634 196 634 193 634 191 c 0
 630 174 614 161 597 161 c 0
 582 161 573 170 573 184 c 0
 573 186 574 189 574 191 c 0
 578 208 593 221 610 221 c 0
211 531 m 0
 226 531 235 522 235 508 c 0
 235 506 234 503 234 501 c 0
 230 484 215 471 198 471 c 0
 183 471 174 480 174 494 c 0
 174 496 174 499 174 501 c 0
 178 518 194 531 211 531 c 0
614 531 m 0
 629 531 638 522 638 508 c 0
 638 506 637 503 637 501 c 0
 633 484 618 471 601 471 c 0
 586 471 577 480 577 494 c 0
 577 496 577 499 577 501 c 0
 581 518 597 531 614 531 c 0
125 128 m 0
 140 128 150 119 150 105 c 0
 150 103 149 100 149 98 c 0
 145 81 129 68 112 68 c 0
 97 68 88 77 88 91 c 0
 88 93 89 96 89 98 c 0
 93 115 108 128 125 128 c 0
528 128 m 0
 543 128 553 119 553 105 c 0
 553 103 552 100 552 98 c 0
 548 81 532 68 515 68 c 0
 500 68 491 77 491 91 c 0
 491 93 492 96 492 98 c 0
 496 115 511 128 528 128 c 0
423 67 m 0
 438 67 448 58 448 44 c 0
 448 42 447 39 447 37 c 0
 443 20 427 7 410 7 c 0
 395 7 386 16 386 30 c 0
 386 32 387 35 387 37 c 0
 391 54 406 67 423 67 c 0
205 67 m 0
 220 67 230 58 230 44 c 0
 230 42 229 39 229 37 c 0
 225 20 209 7 192 7 c 0
 177 7 168 16 168 30 c 0
 168 32 169 35 169 37 c 0
 173 54 188 67 205 67 c 0
535 593 m 0
 550 593 559 584 559 570 c 0
 559 568 559 565 559 563 c 0
 555 546 539 533 522 533 c 0
 507 533 498 542 498 556 c 0
 498 558 499 561 499 563 c 0
 503 580 518 593 535 593 c 0
317 593 m 0
 332 593 341 584 341 570 c 0
 341 568 341 565 341 563 c 0
 337 546 321 533 304 533 c 0
 289 533 280 542 280 556 c 0
 280 558 281 561 281 563 c 0
 285 580 300 593 317 593 c 0
EndSplineSet
PickledDataWithLists: "(dp0
Vcom.fontlab.hintData
p1
(dp2
Vvhints
p3
(lp4
(dp5
Vposition
p6
L40L
sVwidth
p7
L10L
sa(dp8
g6
L76L
sg7
L10L
sa(dp9
g6
L90L
sg7
L10L
sa(dp10
g6
L132L
sg7
L10L
sa(dp11
g6
L180L
sg7
L10L
sa(dp12
g6
L238L
sg7
L10L
sa(dp13
g6
L325L
sg7
L10L
sa(dp14
g6
L385L
sg7
L10L
sa(dp15
g6
L472L
sg7
L10L
sa(dp16
g6
L528L
sg7
L10L
sa(dp17
g6
L581L
sg7
L10L
sa(dp18
g6
L620L
sg7
L10L
sa(dp19
g6
L631L
sg7
L10L
sa(dp20
g6
L670L
sg7
L10L
sasVhhints
p21
(lp22
(dp23
g6
L-20L
sg7
L10L
sa(dp24
g6
L16L
sg7
L10L
sa(dp25
g6
L30L
sg7
L10L
sa(dp26
g6
L69L
sg7
L10L
sa(dp27
g6
L122L
sg7
L10L
sa(dp28
g6
L178L
sg7
L10L
sa(dp29
g6
L265L
sg7
L10L
sa(dp30
g6
L325L
sg7
L10L
sa(dp31
g6
L410L
sg7
L10L
sa(dp32
g6
L468L
sg7
L10L
sa(dp33
g6
L518L
sg7
L10L
sa(dp34
g6
L560L
sg7
L10L
sa(dp35
g6
L574L
sg7
L10L
sa(dp36
g6
L610L
sg7
L10L
sass."
Colour: ff00
EndChar

StartChar: uni0E01
Encoding: 3585 3585 127
GlifName: uni0E_01
Width: 655
VWidth: 0
GlyphClass: 2
Flags: HMW
LayerCount: 2
Fore
SplineSet
25 0 m 1
 87 290 l 2
 97 336 126 369 171 385 c 1
 62 409 l 1
 99 514 213 621 387 621 c 0
 536 621 623 544 623 437 c 0
 623 422 621 407 618 391 c 2
 535 0 l 1
 385 0 l 1
 468 391 l 2
 471 404 472 415 472 425 c 0
 472 486 429 511 364 511 c 0
 307 511 259 487 229 439 c 1
 352 410 l 1
 324 350 l 1
 324 350 306 355 290 355 c 0
 255 355 245 330 240 305 c 2
 175 0 l 1
 25 0 l 1
EndSplineSet
PickledDataWithLists: "(dp0
Vcom.fontlab.hintData
p1
(dp2
Vvhints
p3
(lp4
(dp5
Vposition
p6
L91L
sVwidth
p7
L10L
sa(dp8
g6
L105L
sg7
L10L
sa(dp9
g6
L179L
sg7
L10L
sa(dp10
g6
L193L
sg7
L10L
sa(dp11
g6
L467L
sg7
L10L
sa(dp12
g6
L476L
sg7
L10L
sa(dp13
g6
L559L
sg7
L10L
sa(dp14
g6
L564L
sg7
L10L
sasVhhints
p15
(lp16
(dp17
g6
L-16L
sg7
L10L
sa(dp18
g6
L4L
sg7
L10L
sa(dp19
g6
L544L
sg7
L10L
sa(dp20
g6
L606L
sg7
L10L
sass."
EndChar

StartChar: uni0E02
Encoding: 3586 3586 128
GlifName: uni0E_02
Width: 635
VWidth: 0
GlyphClass: 2
Flags: HMW
LayerCount: 2
Fore
SplineSet
124 470 m 0
 123 467 123 464 123 461 c 0
 123 447 131 437 148 437 c 0
 168 437 182 451 186 470 c 0
 187 473 187 476 187 479 c 0
 187 493 179 503 162 503 c 0
 142 503 128 489 124 470 c 0
40 470 m 0
 56 546 139 615 265 615 c 0
 375 615 431 564 431 490 c 0
 431 479 430 467 427 455 c 0
 398 320 247 272 225 167 c 0
 224 160 223 154 223 148 c 0
 223 108 256 89 294 89 c 0
 337 89 383 110 399 184 c 2
 488 600 l 1
 638 600 l 1
 549 184 l 2
 526 74 420 -21 271 -21 c 0
 140 -21 69 40 69 122 c 0
 69 133 71 144 73 155 c 0
 108 321 295 351 319 465 c 0
 320 471 321 477 321 483 c 0
 321 515 299 533 259 538 c 1
 268 526 273 511 273 494 c 0
 273 486 272 479 270 470 c 0
 256 405 198 365 133 365 c 0
 76 365 37 395 37 446 c 0
 37 454 38 462 40 470 c 0
EndSplineSet
PickledDataWithLists: "(dp0
Vcom.fontlab.hintData
p1
(dp2
Vvhints
p3
(lp4
(dp5
Vposition
p6
L14L
sVwidth
p7
L10L
sa(dp8
g6
L547L
sg7
L10L
sasVhhints
p9
(lp10
(dp11
g6
L-19L
sg7
L10L
sa(dp12
g6
L432L
sg7
L10L
sa(dp13
g6
L584L
sg7
L10L
sa(dp14
g6
L594L
sg7
L10L
sass."
EndChar

StartChar: uni0E03
Encoding: 3587 3587 129
GlifName: uni0E_03
Width: 635
VWidth: 0
GlyphClass: 2
Flags: HMW
LayerCount: 2
Fore
SplineSet
132 506 m 0
 131 503 131 500 131 497 c 0
 131 483 139 473 156 473 c 0
 176 473 190 487 194 506 c 0
 195 509 195 512 195 515 c 0
 195 529 187 539 170 539 c 0
 150 539 136 525 132 506 c 0
320 461 m 1
 279 419 228 390 153 390 c 0
 85 390 45 424 45 479 c 0
 45 487 46 497 48 506 c 0
 62 571 120 611 185 611 c 0
 241 611 275 582 275 533 c 0
 275 525 274 515 272 506 c 0
 271 501 269 496 267 491 c 1
 300 520 330 560 353 600 c 1
 404 606 l 1
 419 593 435 560 435 514 c 0
 435 500 433 486 430 470 c 0
 401 335 247 272 225 167 c 0
 224 160 223 154 223 148 c 0
 223 108 256 89 294 89 c 0
 337 89 383 110 399 184 c 2
 488 600 l 1
 638 600 l 1
 549 184 l 2
 526 74 420 -21 271 -21 c 0
 140 -21 69 40 69 122 c 0
 69 133 71 144 73 155 c 0
 106 308 272 349 320 461 c 1
EndSplineSet
PickledDataWithLists: "(dp0
Vcom.fontlab.hintData
p1
(dp2
Vvhints
p3
(lp4
(dp5
Vposition
p6
L11L
sVwidth
p7
L10L
sa(dp8
g6
L224L
sg7
L10L
sa(dp9
g6
L230L
sg7
L10L
sa(dp10
g6
L297L
sg7
L10L
sasVhhints
p11
(lp12
(dp13
g6
L-24L
sg7
L10L
sa(dp14
g6
L400L
sg7
L10L
sa(dp15
g6
L584L
sg7
L10L
sa(dp16
g6
L603L
sg7
L10L
sass."
EndChar

StartChar: uni0E04
Encoding: 3588 3588 130
GlifName: uni0E_04
Width: 665
VWidth: 0
GlyphClass: 2
Flags: HMW
LayerCount: 2
Fore
SplineSet
344 348 m 0
 324 348 310 334 306 315 c 0
 305 312 305 309 305 306 c 0
 305 292 313 282 330 282 c 0
 350 282 364 296 368 315 c 0
 369 318 369 321 369 324 c 0
 369 338 361 348 344 348 c 0
359 420 m 0
 416 420 455 390 455 339 c 0
 455 331 454 323 452 315 c 0
 438 250 380 210 315 210 c 0
 283 210 256 220 240 237 c 1
 219 206 205 163 189 90 c 2
 170 0 l 1
 9 0 l 1
 9 0 33 69 43 115 c 0
 63 210 46 240 78 391 c 0
 105 520 234 621 402 621 c 0
 549 621 633 543 633 437 c 0
 633 422 631 407 628 391 c 2
 545 0 l 1
 395 0 l 1
 414 90 l 2
 431 170 443 199 484 391 c 0
 487 404 488 415 488 426 c 0
 488 487 445 511 379 511 c 0
 302 511 240 478 222 391 c 0
 216 362 211 337 206 315 c 1
 223 344 245 370 273 390 c 0
 298 408 327 420 359 420 c 0
EndSplineSet
PickledDataWithLists: "(dp0
Vcom.fontlab.hintData
p1
(dp2
Vvhints
p3
(lp4
(dp5
Vposition
p6
L59L
sVwidth
p7
L10L
sa(dp8
g6
L142L
sg7
L10L
sa(dp9
g6
L381L
sg7
L10L
sa(dp10
g6
L439L
sg7
L10L
sa(dp11
g6
L508L
sg7
L10L
sa(dp12
g6
L590L
sg7
L10L
sasVhhints
p13
(lp14
(dp15
g6
L-19L
sg7
L10L
sa(dp16
g6
L-4L
sg7
L10L
sa(dp17
g6
L363L
sg7
L10L
sa(dp18
g6
L551L
sg7
L10L
sa(dp19
g6
L608L
sg7
L10L
sass."
EndChar

StartChar: uni0E05
Encoding: 3589 3589 131
GlifName: uni0E_05
Width: 665
VWidth: 0
GlyphClass: 2
Flags: HMW
LayerCount: 2
Fore
SplineSet
344 348 m 0
 324 348 310 334 306 315 c 0
 305 312 305 309 305 306 c 0
 305 292 313 282 330 282 c 0
 350 282 364 296 368 315 c 0
 369 318 369 321 369 324 c 0
 369 338 361 348 344 348 c 0
359 420 m 0
 416 420 455 390 455 339 c 0
 455 331 454 323 452 315 c 0
 438 250 380 210 315 210 c 0
 283 210 256 220 240 237 c 1
 219 206 205 163 189 90 c 2
 170 0 l 1
 9 0 l 1
 9 0 33 69 43 115 c 0
 63 210 46 240 78 391 c 0
 94 466 146 615 311 615 c 1
 385 540 l 1
 491 615 l 1
 610 615 637 538 637 467 c 0
 637 439 632 412 628 391 c 2
 545 0 l 1
 395 0 l 1
 414 90 l 2
 431 170 443 199 484 391 c 0
 491 423 494 446 494 464 c 0
 494 494 485 506 472 510 c 1
 382 450 l 1
 366 450 l 1
 350 450 l 1
 284 510 l 1
 261 503 240 476 222 391 c 0
 216 362 211 337 206 315 c 1
 223 344 245 370 273 390 c 0
 298 408 327 420 359 420 c 0
EndSplineSet
PickledDataWithLists: "(dp0
Vcom.fontlab.hintData
p1
(dp2
Vvhints
p3
(lp4
(dp5
Vposition
p6
L60L
sVwidth
p7
L10L
sa(dp8
g6
L142L
sg7
L10L
sa(dp9
g6
L444L
sg7
L10L
sa(dp10
g6
L508L
sg7
L10L
sa(dp11
g6
L590L
sg7
L10L
sasVhhints
p12
(lp13
(dp14
g6
L-18L
sg7
L10L
sa(dp15
g6
L-4L
sg7
L10L
sa(dp16
g6
L363L
sg7
L10L
sa(dp17
g6
L469L
sg7
L10L
sa(dp18
g6
L549L
sg7
L10L
sa(dp19
g6
L606L
sg7
L10L
sass."
EndChar

StartChar: uni0E06
Encoding: 3590 3590 132
GlifName: uni0E_06
Width: 650
VWidth: 0
GlyphClass: 2
Flags: HMW
LayerCount: 2
Fore
SplineSet
142 506 m 0
 141 503 141 500 141 497 c 0
 141 483 149 473 166 473 c 0
 186 473 200 487 204 506 c 0
 205 509 205 512 205 515 c 0
 205 529 197 539 180 539 c 0
 160 539 146 525 142 506 c 0
648 600 m 1
 520 0 l 1
 382 0 l 1
 356 48 318 94 243 112 c 1
 243 106 241 100 240 94 c 0
 226 29 168 -11 103 -11 c 0
 46 -11 7 19 7 70 c 0
 7 78 8 86 10 94 c 0
 20 140 52 173 93 189 c 1
 141 315 286 357 330 460 c 1
 289 419 238 390 163 390 c 0
 95 390 55 424 55 479 c 0
 55 487 56 497 58 506 c 0
 72 571 130 611 195 611 c 0
 251 611 285 582 285 533 c 0
 285 525 284 515 282 506 c 0
 281 501 279 496 277 491 c 1
 310 520 340 560 363 600 c 1
 414 606 l 1
 429 593 445 560 445 514 c 0
 445 500 443 486 440 470 c 0
 414 350 290 287 248 200 c 1
 320 189 367 159 400 127 c 1
 405 161 412 197 419 230 c 2
 498 600 l 1
 648 600 l 1
156 94 m 0
 157 97 157 100 157 103 c 0
 157 117 149 127 132 127 c 0
 112 127 98 113 94 94 c 0
 93 91 93 88 93 85 c 0
 93 71 101 61 118 61 c 0
 138 61 152 75 156 94 c 0
EndSplineSet
PickledDataWithLists: "(dp0
Vcom.fontlab.hintData
p1
(dp2
Vvhints
p3
(lp4
(dp5
Vposition
p6
L11L
sVwidth
p7
L10L
sa(dp8
g6
L35L
sg7
L10L
sa(dp9
g6
L110L
sg7
L10L
sa(dp10
g6
L239L
sg7
L10L
sa(dp11
g6
L251L
sg7
L10L
sa(dp12
g6
L317L
sg7
L10L
sa(dp13
g6
L325L
sg7
L10L
sa(dp14
g6
L486L
sg7
L10L
sa(dp15
g6
L494L
sg7
L10L
sa(dp16
g6
L566L
sg7
L10L
sa(dp17
g6
L576L
sg7
L10L
sasVhhints
p18
(lp19
(dp20
g6
L-27L
sg7
L10L
sa(dp21
g6
L223L
sg7
L10L
sa(dp22
g6
L277L
sg7
L10L
sa(dp23
g6
L403L
sg7
L10L
sa(dp24
g6
L598L
sg7
L10L
sa(dp25
g6
L608L
sg7
L10L
sass."
EndChar

StartChar: uni0E07
Encoding: 3591 3591 133
GlifName: uni0E_07
Width: 525
VWidth: 0
GlyphClass: 2
Flags: HMW
AnchorPoint: "ThaiAbove.mark" 485 0 basechar 0
LayerCount: 2
Fore
SplineSet
3 318 m 1
 110 402 l 1
 293 127 l 1
 291 138 290 150 290 164 c 0
 290 178 292 194 295 210 c 2
 311 285 l 2
 324 344 343 367 360 404 c 1
 351 402 340 401 330 401 c 0
 273 401 235 431 235 482 c 0
 235 490 236 498 238 506 c 0
 252 571 310 611 375 611 c 0
 465 611 507 567 507 501 c 0
 507 489 506 475 503 461 c 0
 492 407 468 344 452 270 c 2
 395 0 l 1
 235 0 l 1
 3 318 l 1
322 506 m 0
 321 503 321 500 321 497 c 0
 321 483 329 473 346 473 c 0
 366 473 380 487 384 506 c 0
 385 509 385 512 385 515 c 0
 385 529 377 539 360 539 c 0
 340 539 326 525 322 506 c 0
EndSplineSet
PickledDataWithLists: "(dp0
Vcom.fontlab.hintData
p1
(dp2
Vvhints
p3
(lp4
(dp5
Vposition
p6
L41L
sVwidth
p7
L10L
sa(dp8
g6
L151L
sg7
L10L
sa(dp9
g6
L381L
sg7
L10L
sa(dp10
g6
L469L
sg7
L10L
sasVhhints
p11
(lp12
(dp13
g6
L-26L
sg7
L10L
sa(dp14
g6
L355L
sg7
L10L
sa(dp15
g6
L504L
sg7
L10L
sa(dp16
g6
L549L
sg7
L10L
sa(dp17
g6
L611L
sg7
L10L
sass."
EndChar

StartChar: uni0E08
Encoding: 3592 3592 134
GlifName: uni0E_08
Width: 590
VWidth: 0
GlyphClass: 2
Flags: HMW
AnchorPoint: "ThaiBelow.mark" 500 0 basechar 0
LayerCount: 2
Fore
SplineSet
215 255 m 0
 216 258 216 261 216 264 c 0
 216 278 208 288 191 288 c 0
 171 288 157 274 153 255 c 0
 152 252 152 249 152 246 c 0
 152 232 160 222 177 222 c 0
 197 222 211 236 215 255 c 0
434 90 m 2
 415 0 l 1
 255 0 l 1
 261 29 264 60 264 89 c 0
 264 124 260 156 253 181 c 1
 228 161 196 150 162 150 c 0
 105 150 67 180 67 231 c 0
 67 239 67 247 69 255 c 0
 83 320 142 360 207 360 c 0
 306 360 336 272 340 184 c 1
 362 265 390 306 412 409 c 0
 414 421 416 431 416 440 c 0
 416 492 379 511 324 511 c 0
 264 511 216 481 193 414 c 1
 45 424 l 1
 79 521 185 621 347 621 c 0
 485 621 566 550 566 451 c 0
 566 438 565 423 562 409 c 0
 531 265 456 194 434 90 c 2
EndSplineSet
PickledDataWithLists: "(dp0
Vcom.fontlab.hintData
p1
(dp2
Vvhints
p3
(lp4
(dp5
Vposition
p6
L31L
sVwidth
p7
L10L
sa(dp8
g6
L101L
sg7
L10L
sa(dp9
g6
L444L
sg7
L10L
sa(dp10
g6
L529L
sg7
L10L
sasVhhints
p11
(lp12
(dp13
g6
L-11L
sg7
L10L
sa(dp14
g6
L229L
sg7
L10L
sa(dp15
g6
L307L
sg7
L10L
sa(dp16
g6
L429L
sg7
L10L
sa(dp17
g6
L552L
sg7
L9L
sa(dp18
g6
L614L
sg7
L10L
sass."
EndChar

StartChar: uni0E09
Encoding: 3593 3593 135
GlifName: uni0E_09
Width: 645
VWidth: 0
GlyphClass: 2
Flags: HMW
LayerCount: 2
Fore
SplineSet
55 0 m 1
 78 109 l 2
 82 127 91 141 102 153 c 1
 63 162 37 190 37 231 c 0
 37 238 37 247 39 255 c 0
 53 320 112 360 177 360 c 0
 234 360 272 330 272 279 c 0
 272 271 271 263 269 255 c 0
 259 207 239 187 229 140 c 2
 225 123 l 1
 270 159 329 190 408 201 c 0
 409 204 409 207 410 210 c 2
 450 401 l 2
 453 413 454 424 454 434 c 0
 454 490 414 511 354 511 c 0
 288 511 236 476 211 405 c 1
 64 417 l 1
 99 518 209 621 377 621 c 0
 521 621 605 547 605 444 c 0
 605 430 603 416 600 401 c 2
 566 240 l 2
 561 218 548 202 532 189 c 1
 560 176 578 152 578 118 c 0
 578 110 577 102 575 94 c 0
 561 29 503 -11 438 -11 c 0
 381 -11 342 19 342 70 c 0
 342 78 343 86 345 94 c 0
 346 99 348 104 349 108 c 1
 283 88 236 45 193 0 c 1
 55 0 l 1
429 94 m 0
 428 91 428 88 428 85 c 0
 428 71 436 61 453 61 c 0
 473 61 487 75 491 94 c 0
 492 97 492 100 492 103 c 0
 492 117 484 127 467 127 c 0
 447 127 433 113 429 94 c 0
185 255 m 0
 186 258 186 261 186 264 c 0
 186 278 178 288 161 288 c 0
 141 288 127 274 123 255 c 0
 122 252 122 249 122 246 c 0
 122 232 130 222 147 222 c 0
 167 222 181 236 185 255 c 0
EndSplineSet
PickledDataWithLists: "(dp0
Vcom.fontlab.hintData
p1
(dp2
Vvhints
p3
(lp4
(dp5
Vposition
p6
L33L
sVwidth
p7
L10L
sa(dp8
g6
L87L
sg7
L10L
sa(dp9
g6
L156L
sg7
L10L
sa(dp10
g6
L410L
sg7
L10L
sa(dp11
g6
L426L
sg7
L10L
sa(dp12
g6
L480L
sg7
L10L
sa(dp13
g6
L498L
sg7
L10L
sa(dp14
g6
L570L
sg7
L10L
sa(dp15
g6
L640L
sg7
L10L
sasVhhints
p16
(lp17
(dp18
g6
L-19L
sg7
L10L
sa(dp19
g6
L29L
sg7
L10L
sa(dp20
g6
L231L
sg7
L10L
sa(dp21
g6
L279L
sg7
L10L
sa(dp22
g6
L318L
sg7
L10L
sa(dp23
g6
L431L
sg7
L10L
sa(dp24
g6
L557L
sg7
L10L
sa(dp25
g6
L616L
sg7
L10L
sass."
EndChar

StartChar: uni0E0A
Encoding: 3594 3594 136
GlifName: uni0E_0A_
Width: 640
VWidth: 0
GlyphClass: 2
Flags: HMW
LayerCount: 2
Fore
SplineSet
124 470 m 0
 123 467 123 464 123 461 c 0
 123 447 131 437 148 437 c 0
 168 437 182 451 186 470 c 0
 187 473 187 476 187 479 c 0
 187 493 179 503 162 503 c 0
 142 503 128 489 124 470 c 0
414 415 m 1
 367 309 245 261 225 167 c 0
 224 160 223 154 223 148 c 0
 223 108 256 89 294 89 c 0
 337 89 383 110 399 184 c 2
 437 360 l 2
 439 368 439 375 439 381 c 0
 439 398 432 409 414 415 c 1
587 360 m 2
 549 184 l 2
 526 74 420 -21 271 -21 c 0
 140 -21 69 40 69 122 c 0
 69 133 71 144 73 155 c 0
 108 321 295 351 319 465 c 0
 320 471 321 477 321 483 c 0
 321 515 299 533 259 538 c 1
 268 526 273 511 273 494 c 0
 273 486 272 479 270 470 c 0
 256 405 198 365 133 365 c 0
 76 365 37 395 37 446 c 0
 37 454 38 462 40 470 c 0
 56 546 139 615 265 615 c 0
 372 615 427 566 430 495 c 1
 498 509 527 552 543 627 c 1
 691 615 l 1
 675 541 616 482 530 455 c 1
 567 440 589 415 589 380 c 0
 589 374 588 367 587 360 c 2
EndSplineSet
PickledDataWithLists: "(dp0
Vcom.fontlab.hintData
p1
(dp2
Vvhints
p3
(lp4
(dp5
Vposition
p6
L44L
sVwidth
p7
L10L
sa(dp8
g6
L186L
sg7
L10L
sa(dp9
g6
L197L
sg7
L10L
sa(dp10
g6
L268L
sg7
L10L
sa(dp11
g6
L279L
sg7
L10L
sa(dp12
g6
L473L
sg7
L10L
sa(dp13
g6
L555L
sg7
L10L
sa(dp14
g6
L586L
sg7
L10L
sasVhhints
p15
(lp16
(dp17
g6
L-29L
sg7
L10L
sa(dp18
g6
L29L
sg7
L10L
sa(dp19
g6
L437L
sg7
L10L
sa(dp20
g6
L599L
sg7
L10L
sa(dp21
g6
L644L
sg7
L10L
sass."
EndChar

StartChar: uni0E0B
Encoding: 3595 3595 137
GlifName: uni0E_0B_
Width: 640
VWidth: 0
GlyphClass: 2
Flags: HMW
LayerCount: 2
Fore
SplineSet
132 506 m 0
 131 503 131 500 131 497 c 0
 131 483 139 473 156 473 c 0
 176 473 190 487 194 506 c 0
 195 509 195 512 195 515 c 0
 195 529 187 539 170 539 c 0
 150 539 136 525 132 506 c 0
530 455 m 1
 567 440 589 415 589 380 c 0
 589 374 588 367 587 360 c 2
 549 184 l 2
 526 74 420 -21 271 -21 c 0
 140 -21 69 40 69 122 c 0
 69 133 71 144 73 155 c 0
 106 308 272 349 320 461 c 1
 279 419 228 390 153 390 c 0
 85 390 45 424 45 479 c 0
 45 487 46 497 48 506 c 0
 62 571 120 611 185 611 c 0
 241 611 275 582 275 533 c 0
 275 525 274 515 272 506 c 0
 271 501 269 496 267 491 c 1
 300 520 330 560 353 600 c 1
 404 606 l 1
 419 593 435 558 435 512 c 0
 435 506 435 501 434 495 c 1
 500 509 527 554 543 627 c 1
 691 615 l 1
 675 541 616 482 530 455 c 1
437 360 m 2
 439 368 439 375 439 381 c 0
 439 399 431 411 410 416 c 1
 359 316 244 257 225 167 c 0
 224 160 223 154 223 148 c 0
 223 108 256 89 294 89 c 0
 337 89 383 110 399 184 c 2
 437 360 l 2
EndSplineSet
PickledDataWithLists: "(dp0
Vcom.fontlab.hintData
p1
(dp2
Vvhints
p3
(lp4
(dp5
Vposition
p6
L11L
sVwidth
p7
L10L
sa(dp8
g6
L199L
sg7
L10L
sa(dp9
g6
L226L
sg7
L10L
sa(dp10
g6
L278L
sg7
L10L
sa(dp11
g6
L296L
sg7
L10L
sa(dp12
g6
L474L
sg7
L10L
sa(dp13
g6
L556L
sg7
L10L
sa(dp14
g6
L586L
sg7
L10L
sasVhhints
p15
(lp16
(dp17
g6
L-24L
sg7
L10L
sa(dp18
g6
L34L
sg7
L10L
sa(dp19
g6
L398L
sg7
L10L
sa(dp20
g6
L603L
sg7
L10L
sa(dp21
g6
L608L
sg7
L10L
sa(dp22
g6
L644L
sg7
L10L
sass."
EndChar

StartChar: uni0E0C
Encoding: 3596 3596 138
GlifName: uni0E_0C_
Width: 950
VWidth: 0
GlyphClass: 2
Flags: HMW
LayerCount: 2
Fore
SplineSet
119 94 m 0
 118 91 118 88 118 85 c 0
 118 71 126 61 143 61 c 0
 163 61 177 75 181 94 c 0
 182 97 182 100 182 103 c 0
 182 117 174 127 157 127 c 0
 137 127 123 113 119 94 c 0
948 600 m 1
 820 0 l 1
 682 0 l 1
 659 47 633 92 569 111 c 1
 568 106 566 100 565 94 c 0
 551 29 493 -11 428 -11 c 0
 371 -11 332 19 332 70 c 0
 332 78 333 86 335 94 c 0
 346 148 389 185 440 196 c 1
 436 204 434 212 434 222 c 0
 434 227 435 234 436 240 c 2
 468 391 l 2
 471 404 472 415 472 425 c 0
 472 486 429 511 364 511 c 0
 307 511 259 487 229 439 c 1
 352 410 l 1
 324 350 l 1
 324 350 306 355 290 355 c 0
 255 355 245 330 240 305 c 2
 226 240 l 2
 222 222 214 208 203 196 c 1
 242 187 268 159 268 118 c 0
 268 111 267 102 265 94 c 0
 251 29 193 -11 128 -11 c 0
 71 -11 32 19 32 70 c 0
 32 78 33 86 35 94 c 0
 45 142 60 163 70 210 c 2
 87 290 l 2
 97 336 126 369 171 385 c 1
 62 409 l 1
 99 514 213 621 387 621 c 0
 536 621 623 544 623 437 c 0
 623 422 621 407 618 391 c 2
 580 210 l 2
 579 206 578 202 577 198 c 0
 636 186 674 158 700 128 c 1
 705 162 712 197 719 230 c 2
 798 600 l 1
 948 600 l 1
481 94 m 0
 482 97 482 100 482 103 c 0
 482 117 474 127 457 127 c 0
 437 127 423 113 419 94 c 0
 418 91 418 88 418 85 c 0
 418 71 426 61 443 61 c 0
 463 61 477 75 481 94 c 0
EndSplineSet
PickledDataWithLists: "(dp0
Vcom.fontlab.hintData
p1
(dp2
Vvhints
p3
(lp4
(dp5
Vposition
p6
L84L
sVwidth
p7
L10L
sa(dp8
g6
L93L
sg7
L10L
sa(dp9
g6
L114L
sg7
L10L
sa(dp10
g6
L166L
sg7
L10L
sa(dp11
g6
L196L
sg7
L10L
sa(dp12
g6
L343L
sg7
L10L
sa(dp13
g6
L414L
sg7
L10L
sa(dp14
g6
L502L
sg7
L10L
sa(dp15
g6
L507L
sg7
L10L
sa(dp16
g6
L576L
sg7
L10L
sa(dp17
g6
L780L
sg7
L10L
sa(dp18
g6
L789L
sg7
L10L
sa(dp19
g6
L861L
sg7
L10L
sa(dp20
g6
L871L
sg7
L10L
sasVhhints
p21
(lp22
(dp23
g6
L-26L
sg7
L10L
sa(dp24
g6
L-17L
sg7
L10L
sa(dp25
g6
L41L
sg7
L10L
sa(dp26
g6
L234L
sg7
L10L
sa(dp27
g6
L286L
sg7
L10L
sa(dp28
g6
L546L
sg7
L10L
sa(dp29
g6
L593L
sg7
L10L
sa(dp30
g6
L604L
sg7
L10L
sass."
EndChar

StartChar: uni0E0D
Encoding: 3597 3597 139
GlifName: uni0E_0D_
Width: 950
VWidth: 0
GlyphClass: 2
Flags: HMW
LayerCount: 2
Fore
SplineSet
119 94 m 0
 118 91 118 88 118 85 c 0
 118 71 126 61 143 61 c 0
 163 61 177 75 181 94 c 0
 182 97 182 100 182 103 c 0
 182 117 174 127 157 127 c 0
 137 127 123 113 119 94 c 0
387 621 m 0
 536 621 623 544 623 437 c 0
 623 422 621 407 618 391 c 2
 571 170 l 2
 569 160 568 150 568 142 c 0
 568 100 595 89 624 89 c 0
 658 89 697 105 711 170 c 2
 803 600 l 1
 953 600 l 1
 861 170 l 2
 840 69 741 -21 601 -21 c 0
 479 -21 417 47 417 131 c 0
 417 144 418 157 421 170 c 2
 468 391 l 2
 471 404 472 415 472 425 c 0
 472 486 429 511 364 511 c 0
 307 511 259 487 229 439 c 1
 352 410 l 1
 324 350 l 1
 324 350 306 355 290 355 c 0
 255 355 245 330 240 305 c 2
 226 240 l 2
 222 222 214 208 203 196 c 1
 242 187 268 159 268 118 c 0
 268 111 267 102 265 94 c 0
 251 29 193 -11 128 -11 c 0
 71 -11 32 19 32 70 c 0
 32 78 33 86 35 94 c 0
 45 142 60 163 70 210 c 2
 87 290 l 2
 97 336 126 369 171 385 c 1
 62 409 l 1
 99 514 213 621 387 621 c 0
474 -121 m 0
 456 -121 444 -133 440 -150 c 0
 439 -153 439 -156 439 -158 c 0
 439 -171 447 -179 462 -179 c 0
 480 -179 492 -167 496 -150 c 0
 497 -147 497 -144 497 -142 c 0
 497 -129 489 -121 474 -121 c 0
488 -58 m 0
 537 -58 570 -85 570 -129 c 0
 570 -136 570 -142 568 -150 c 0
 564 -168 556 -183 546 -196 c 1
 548 -196 551 -196 553 -196 c 2
 563 -196 l 2
 617 -196 663 -172 684 -74 c 1
 792 -86 l 1
 769 -196 678 -266 568 -266 c 2
 498 -266 l 2
 417 -266 365 -232 365 -174 c 0
 365 -166 366 -158 368 -150 c 0
 380 -93 431 -58 488 -58 c 0
EndSplineSet
PickledDataWithLists: "(dp0
Vcom.fontlab.hintData
p1
(dp2
Vvhints
p3
(lp4
(dp5
Vposition
p6
L81L
sVwidth
p7
L10L
sa(dp8
g6
L101L
sg7
L10L
sa(dp9
g6
L169L
sg7
L10L
sa(dp10
g6
L189L
sg7
L10L
sa(dp11
g6
L315L
sg7
L10L
sa(dp12
g6
L471L
sg7
L10L
sa(dp13
g6
L476L
sg7
L10L
sa(dp14
g6
L513L
sg7
L10L
sa(dp15
g6
L559L
sg7
L10L
sa(dp16
g6
L564L
sg7
L10L
sa(dp17
g6
L591L
sg7
L10L
sa(dp18
g6
L771L
sg7
L10L
sa(dp19
g6
L781L
sg7
L10L
sa(dp20
g6
L859L
sg7
L10L
sa(dp21
g6
L869L
sg7
L10L
sa(dp22
g6
L879L
sg7
L10L
sasVhhints
p23
(lp24
(dp25
g6
L-252L
sg7
L10L
sa(dp26
g6
L-197L
sg7
L10L
sa(dp27
g6
L-98L
sg7
L10L
sa(dp28
g6
L-19L
sg7
L10L
sa(dp29
g6
L43L
sg7
L10L
sa(dp30
g6
L56L
sg7
L10L
sa(dp31
g6
L544L
sg7
L10L
sa(dp32
g6
L595L
sg7
L10L
sa(dp33
g6
L606L
sg7
L10L
sass."
Substitution2: "ThaiRC.rd subtable" uni0E0D.rd
Colour: ff00ff
EndChar

StartChar: uni0E0D.rd
Encoding: 63642 63642 140
GlifName: uni0E_0D_.rd
Width: 950
VWidth: 0
GlyphClass: 2
Flags: HMW
LayerCount: 2
Fore
SplineSet
119 94 m 0
 118 91 118 88 118 85 c 0
 118 71 126 61 143 61 c 0
 163 61 177 75 181 94 c 0
 182 97 182 100 182 103 c 0
 182 117 174 127 157 127 c 0
 137 127 123 113 119 94 c 0
387 621 m 0
 536 621 623 544 623 437 c 0
 623 422 621 407 618 391 c 2
 571 170 l 2
 569 160 568 150 568 142 c 0
 568 100 595 89 624 89 c 0
 658 89 697 105 711 170 c 2
 803 600 l 1
 953 600 l 1
 861 170 l 2
 840 69 741 -21 601 -21 c 0
 479 -21 417 47 417 131 c 0
 417 144 418 157 421 170 c 2
 468 391 l 2
 471 404 472 415 472 425 c 0
 472 486 429 511 364 511 c 0
 307 511 259 487 229 439 c 1
 352 410 l 1
 324 350 l 1
 324 350 306 355 290 355 c 0
 255 355 245 330 240 305 c 2
 226 240 l 2
 222 222 214 208 203 196 c 1
 242 187 268 159 268 118 c 0
 268 111 267 102 265 94 c 0
 251 29 193 -11 128 -11 c 0
 71 -11 32 19 32 70 c 0
 32 78 33 86 35 94 c 0
 45 142 60 163 70 210 c 2
 87 290 l 2
 97 336 126 369 171 385 c 1
 62 409 l 1
 99 514 213 621 387 621 c 0
EndSplineSet
PickledDataWithLists: "(dp0
Vcom.fontlab.hintData
p1
(dp2
Vvhints
p3
(lp4
(dp5
Vposition
p6
L81L
sVwidth
p7
L10L
sa(dp8
g6
L101L
sg7
L10L
sa(dp9
g6
L169L
sg7
L10L
sa(dp10
g6
L189L
sg7
L10L
sa(dp11
g6
L315L
sg7
L10L
sa(dp12
g6
L471L
sg7
L10L
sa(dp13
g6
L476L
sg7
L10L
sa(dp14
g6
L559L
sg7
L10L
sa(dp15
g6
L564L
sg7
L10L
sa(dp16
g6
L771L
sg7
L10L
sa(dp17
g6
L781L
sg7
L10L
sa(dp18
g6
L859L
sg7
L10L
sa(dp19
g6
L869L
sg7
L10L
sasVhhints
p20
(lp21
(dp22
g6
L-19L
sg7
L10L
sa(dp23
g6
L43L
sg7
L10L
sa(dp24
g6
L56L
sg7
L10L
sa(dp25
g6
L544L
sg7
L10L
sa(dp26
g6
L595L
sg7
L10L
sa(dp27
g6
L606L
sg7
L10L
sass."
EndChar

StartChar: uni0E0E
Encoding: 3598 3598 141
GlifName: uni0E_0E_
Width: 665
VWidth: 0
GlyphClass: 2
Flags: HMW
LayerCount: 2
Fore
SplineSet
141 94 m 0
 142 97 142 100 142 103 c 0
 142 117 134 127 117 127 c 0
 97 127 83 113 79 94 c 0
 78 91 78 88 78 85 c 0
 78 71 86 61 103 61 c 0
 123 61 137 75 141 94 c 0
397 621 m 0
 546 621 633 544 633 437 c 0
 633 422 631 407 628 391 c 2
 531 -65 l 1
 495 -235 l 1
 360 -235 l 1
 321 -202 267 -169 219 -146 c 1
 219 -147 218 -149 218 -150 c 0
 210 -188 165 -250 87 -250 c 0
 27 -250 -4 -216 -4 -172 c 0
 -4 -165 -4 -158 -2 -150 c 0
 10 -92 62 -50 134 -50 c 0
 196 -50 291 -90 368 -140 c 1
 371 -118 375 -93 381 -65 c 2
 478 391 l 2
 481 404 482 415 482 425 c 0
 482 486 439 511 374 511 c 0
 317 511 271 487 241 440 c 1
 372 410 l 1
 344 350 l 1
 344 350 326 355 310 355 c 0
 275 355 265 330 260 305 c 2
 246 240 l 1
 240 210 l 2
 230 163 235 142 225 94 c 0
 211 29 153 -11 88 -11 c 0
 31 -11 -8 19 -8 70 c 0
 -8 78 -7 86 -5 94 c 0
 6 148 50 185 101 196 c 1
 97 204 94 213 94 224 c 0
 94 229 95 234 96 240 c 2
 107 290 l 2
 117 336 145 368 190 384 c 1
 72 409 l 1
 109 514 223 621 397 621 c 0
149 -119 m 1
 139 -117 132 -115 126 -115 c 0
 111 -115 89 -121 83 -150 c 0
 82 -154 82 -157 82 -160 c 0
 82 -178 95 -185 106 -185 c 0
 130 -185 146 -169 150 -150 c 0
 153 -137 152 -127 149 -119 c 1
EndSplineSet
PickledDataWithLists: "(dp0
Vcom.fontlab.hintData
p1
(dp2
Vvhints
p3
(lp4
(dp5
Vposition
p6
L26L
sVwidth
p7
L10L
sa(dp8
g6
L81L
sg7
L10L
sa(dp9
g6
L126L
sg7
L10L
sa(dp10
g6
L219L
sg7
L10L
sa(dp11
g6
L470L
sg7
L10L
sa(dp12
g6
L476L
sg7
L10L
sa(dp13
g6
L556L
sg7
L10L
sa(dp14
g6
L564L
sg7
L10L
sasVhhints
p15
(lp16
(dp17
g6
L-242L
sg7
L10L
sa(dp18
g6
L-235L
sg7
L10L
sa(dp19
g6
L-137L
sg7
L10L
sa(dp20
g6
L-87L
sg7
L10L
sa(dp21
g6
L-16L
sg7
L10L
sa(dp22
g6
L66L
sg7
L10L
sa(dp23
g6
L544L
sg7
L10L
sa(dp24
g6
L606L
sg7
L10L
sass."
EndChar

StartChar: uni0E0F
Encoding: 3599 3599 142
GlifName: uni0E_0F_
Width: 665
VWidth: 0
GlyphClass: 2
Flags: HMW
LayerCount: 2
Fore
SplineSet
141 94 m 0
 142 97 142 100 142 103 c 0
 142 117 134 127 117 127 c 0
 97 127 83 113 79 94 c 0
 78 91 78 88 78 85 c 0
 78 71 86 61 103 61 c 0
 123 61 137 75 141 94 c 0
397 621 m 0
 546 621 633 544 633 437 c 0
 633 422 631 407 628 391 c 2
 531 -65 l 1
 495 -235 l 1
 360 -235 l 1
 269 -148 l 1
 256 -163 239 -180 219 -195 c 0
 182 -222 131 -250 77 -250 c 0
 15 -250 -19 -218 -19 -172 c 0
 -19 -165 -19 -158 -17 -150 c 0
 -5 -95 44 -50 114 -50 c 0
 178 -50 203 -92 205 -128 c 1
 232 -99 251 -65 251 -65 c 2
 296 -65 l 1
 369 -137 l 1
 371 -116 375 -92 381 -65 c 2
 478 391 l 2
 481 404 482 415 482 425 c 0
 482 486 439 511 374 511 c 0
 317 511 271 487 241 440 c 1
 372 410 l 1
 344 350 l 1
 344 350 326 355 310 355 c 0
 275 355 265 330 260 305 c 2
 246 240 l 1
 240 210 l 2
 230 163 235 142 225 94 c 0
 211 29 153 -11 88 -11 c 0
 31 -11 -8 19 -8 70 c 0
 -8 78 -7 86 -5 94 c 0
 6 148 50 185 101 196 c 1
 97 204 94 213 94 224 c 0
 94 229 95 234 96 240 c 2
 107 290 l 2
 117 336 145 368 190 384 c 1
 72 409 l 1
 109 514 223 621 397 621 c 0
119 -182 m 1
 126 -174 132 -164 135 -150 c 0
 136 -147 136 -145 136 -142 c 0
 136 -127 126 -115 106 -115 c 0
 93 -115 74 -124 68 -150 c 0
 67 -154 67 -157 67 -160 c 0
 67 -180 83 -185 96 -185 c 0
 104 -185 111 -184 119 -182 c 1
EndSplineSet
PickledDataWithLists: "(dp0
Vcom.fontlab.hintData
p1
(dp2
Vvhints
p3
(lp4
(dp5
Vposition
p6
L26L
sVwidth
p7
L10L
sa(dp8
g6
L81L
sg7
L10L
sa(dp9
g6
L97L
sg7
L10L
sa(dp10
g6
L131L
sg7
L10L
sa(dp11
g6
L166L
sg7
L10L
sa(dp12
g6
L179L
sg7
L10L
sa(dp13
g6
L221L
sg7
L10L
sa(dp14
g6
L470L
sg7
L10L
sa(dp15
g6
L476L
sg7
L10L
sa(dp16
g6
L553L
sg7
L10L
sa(dp17
g6
L564L
sg7
L10L
sasVhhints
p18
(lp19
(dp20
g6
L-240L
sg7
L10L
sa(dp21
g6
L-234L
sg7
L10L
sa(dp22
g6
L-191L
sg7
L10L
sa(dp23
g6
L-88L
sg7
L10L
sa(dp24
g6
L-83L
sg7
L10L
sa(dp25
g6
L-16L
sg7
L10L
sa(dp26
g6
L66L
sg7
L10L
sa(dp27
g6
L544L
sg7
L10L
sa(dp28
g6
L606L
sg7
L10L
sass."
EndChar

StartChar: uni0E10
Encoding: 3600 3600 143
GlifName: uni0E_10
Width: 555
VWidth: 0
GlyphClass: 2
Flags: HMW
AnchorPoint: "ThaiTone.mark" 475 0 basechar 0
AnchorPoint: "ThaiAbove.mark" 515 0 basechar 0
LayerCount: 2
Fore
SplineSet
169 225 m 0
 170 228 170 231 170 234 c 0
 170 248 162 258 145 258 c 0
 125 258 111 244 107 225 c 0
 106 222 106 219 106 216 c 0
 106 202 114 192 131 192 c 0
 151 192 165 206 169 225 c 0
297 147 m 1
 310 188 330 234 339 276 c 0
 340 282 341 288 341 294 c 0
 341 359 249 381 56 381 c 1
 63 416 l 2
 89 536 201 621 337 621 c 0
 405 621 449 598 475 572 c 1
 478 577 482 582 485 586 c 2
 506 615 l 1
 611 594 l 1
 610 588 l 1
 490 470 l 1
 445 470 l 1
 432 491 404 521 341 521 c 0
 292 521 239 504 214 448 c 1
 381 439 491 408 491 321 c 0
 491 313 490 305 488 296 c 0
 472 223 404 137 388 60 c 2
 375 0 l 1
 215 0 l 1
 221 29 224 60 224 88 c 0
 224 114 222 139 217 159 c 1
 191 134 155 120 116 120 c 0
 59 120 20 150 20 201 c 0
 20 209 21 217 23 225 c 0
 37 290 95 330 160 330 c 0
 267 330 295 236 297 147 c 1
341 -65 m 1
 451 -65 l 1
 415 -235 l 1
 320 -235 l 1
 255 -152 l 1
 242 -166 227 -181 209 -195 c 0
 172 -222 121 -250 67 -250 c 0
 5 -250 -29 -218 -29 -172 c 0
 -29 -165 -29 -158 -27 -150 c 0
 -15 -95 34 -50 104 -50 c 0
 168 -50 193 -92 195 -128 c 1
 222 -99 241 -65 241 -65 c 2
 286 -65 l 1
 331 -124 l 1
 334 -106 337 -86 341 -65 c 1
109 -182 m 1
 116 -174 122 -164 125 -150 c 0
 126 -147 126 -145 126 -142 c 0
 126 -127 116 -115 96 -115 c 0
 83 -115 64 -124 58 -150 c 0
 57 -154 57 -157 57 -160 c 0
 57 -180 73 -185 86 -185 c 0
 94 -185 101 -184 109 -182 c 1
EndSplineSet
PickledDataWithLists: "(dp0
Vcom.fontlab.hintData
p1
(dp2
Vvhints
p3
(lp4
(dp5
Vposition
p6
L30L
sVwidth
p7
L10L
sa(dp8
g6
L80L
sg7
L10L
sa(dp9
g6
L89L
sg7
L10L
sa(dp10
g6
L110L
sg7
L10L
sa(dp11
g6
L149L
sg7
L10L
sa(dp12
g6
L160L
sg7
L10L
sa(dp13
g6
L434L
sg7
L10L
sa(dp14
g6
L504L
sg7
L10L
sa(dp15
g6
L510L
sg7
L10L
sa(dp16
g6
L516L
sg7
L10L
sa(dp17
g6
L569L
sg7
L10L
sasVhhints
p18
(lp19
(dp20
g6
L-237L
sg7
L10L
sa(dp21
g6
L-229L
sg7
L10L
sa(dp22
g6
L-189L
sg7
L10L
sa(dp23
g6
L-92L
sg7
L10L
sa(dp24
g6
L-87L
sg7
L10L
sa(dp25
g6
L-72L
sg7
L10L
sa(dp26
g6
L-9L
sg7
L10L
sa(dp27
g6
L197L
sg7
L10L
sa(dp28
g6
L215L
sg7
L10L
sa(dp29
g6
L272L
sg7
L10L
sa(dp30
g6
L366L
sg7
L10L
sa(dp31
g6
L420L
sg7
L10L
sa(dp32
g6
L558L
sg7
L10L
sa(dp33
g6
L612L
sg7
L10L
sa(dp34
g6
L652L
sg7
L10L
sass."
Substitution2: "ThaiRC.rd subtable" uni0E10.rd
Colour: ff00ff
EndChar

StartChar: uni0E10.rd
Encoding: 63646 63646 144
GlifName: uni0E_10.rd
Width: 555
VWidth: 0
GlyphClass: 2
Flags: HMW
AnchorPoint: "ThaiBelow.mark" 450 0 basechar 0
AnchorPoint: "ThaiTone.mark" 475 0 basechar 0
AnchorPoint: "ThaiAbove.mark" 515 0 basechar 0
LayerCount: 2
Fore
SplineSet
169 225 m 0
 170 228 170 231 170 234 c 0
 170 248 162 258 145 258 c 0
 125 258 111 244 107 225 c 0
 106 222 106 219 106 216 c 0
 106 202 114 192 131 192 c 0
 151 192 165 206 169 225 c 0
297 147 m 1
 310 188 330 234 339 276 c 0
 340 282 341 288 341 294 c 0
 341 359 249 381 56 381 c 1
 63 416 l 2
 89 536 201 621 337 621 c 0
 405 621 449 598 475 572 c 1
 478 577 482 582 485 586 c 2
 506 615 l 1
 611 594 l 1
 610 588 l 1
 490 470 l 1
 445 470 l 1
 432 491 404 521 341 521 c 0
 292 521 239 504 214 448 c 1
 381 439 491 408 491 321 c 0
 491 313 490 305 488 296 c 0
 472 223 404 137 388 60 c 2
 375 0 l 1
 215 0 l 1
 221 29 224 60 224 88 c 0
 224 114 222 139 217 159 c 1
 191 134 155 120 116 120 c 0
 59 120 20 150 20 201 c 0
 20 209 21 217 23 225 c 0
 37 290 95 330 160 330 c 0
 267 330 295 236 297 147 c 1
EndSplineSet
PickledDataWithLists: "(dp0
Vcom.fontlab.hintData
p1
(dp2
Vvhints
p3
(lp4
(dp5
Vposition
p6
L30L
sVwidth
p7
L10L
sa(dp8
g6
L89L
sg7
L10L
sa(dp9
g6
L110L
sg7
L10L
sa(dp10
g6
L430L
sg7
L10L
sa(dp11
g6
L510L
sg7
L10L
sa(dp12
g6
L569L
sg7
L10L
sasVhhints
p13
(lp14
(dp15
g6
L-9L
sg7
L10L
sa(dp16
g6
L197L
sg7
L10L
sa(dp17
g6
L215L
sg7
L10L
sa(dp18
g6
L272L
sg7
L10L
sa(dp19
g6
L366L
sg7
L10L
sa(dp20
g6
L420L
sg7
L10L
sa(dp21
g6
L558L
sg7
L10L
sa(dp22
g6
L612L
sg7
L10L
sa(dp23
g6
L652L
sg7
L10L
sass."
EndChar

StartChar: uni0E11
Encoding: 3601 3601 145
GlifName: uni0E_11
Width: 665
VWidth: 0
GlyphClass: 2
Flags: HMW
LayerCount: 2
Fore
SplineSet
55 0 m 1
 88 155 l 2
 121 309 274 349 320 461 c 1
 279 419 229 390 153 390 c 0
 85 390 45 424 45 479 c 0
 45 487 46 497 48 506 c 0
 62 571 120 611 185 611 c 0
 241 611 275 582 275 533 c 0
 275 525 274 515 272 506 c 0
 271 501 269 496 267 491 c 1
 300 520 330 560 353 600 c 1
 404 606 l 1
 417 595 431 569 434 532 c 1
 478 579 526 611 570 611 c 0
 633 611 648 570 648 530 c 0
 648 512 645 494 642 480 c 2
 540 0 l 1
 390 0 l 1
 486 452 l 2
 489 464 490 481 483 485 c 1
 465 475 439 450 413 419 c 1
 366 317 259 258 240 167 c 2
 205 0 l 1
 55 0 l 1
132 506 m 0
 131 503 131 500 131 497 c 0
 131 483 139 473 156 473 c 0
 176 473 190 487 194 506 c 0
 195 509 195 512 195 515 c 0
 195 529 187 539 170 539 c 0
 150 539 136 525 132 506 c 0
EndSplineSet
PickledDataWithLists: "(dp0
Vcom.fontlab.hintData
p1
(dp2
Vvhints
p3
(lp4
(dp5
Vposition
p6
L11L
sVwidth
p7
L10L
sa(dp8
g6
L161L
sg7
L10L
sa(dp9
g6
L235L
sg7
L10L
sa(dp10
g6
L283L
sg7
L10L
sa(dp11
g6
L524L
sg7
L10L
sa(dp12
g6
L529L
sg7
L10L
sa(dp13
g6
L606L
sg7
L10L
sa(dp14
g6
L608L
sg7
L10L
sasVhhints
p15
(lp16
(dp17
g6
L-15L
sg7
L10L
sa(dp18
g6
L-8L
sg7
L10L
sa(dp19
g6
L398L
sg7
L10L
sa(dp20
g6
L602L
sg7
L10L
sa(dp21
g6
L611L
sg7
L10L
sass."
EndChar

StartChar: uni0E12
Encoding: 3602 3602 146
GlifName: uni0E_12
Width: 960
VWidth: 0
GlyphClass: 2
Flags: HMW
LayerCount: 2
Fore
SplineSet
958 600 m 1
 830 0 l 1
 692 0 l 1
 669 47 643 92 579 111 c 1
 578 106 576 100 575 94 c 0
 561 29 503 -11 438 -11 c 0
 381 -11 342 19 342 70 c 0
 342 78 343 86 345 94 c 0
 357 150 402 186 455 196 c 1
 452 204 450 212 450 222 c 0
 450 228 451 233 452 240 c 2
 484 391 l 2
 491 423 494 446 494 464 c 0
 494 494 485 506 472 510 c 1
 382 450 l 1
 366 450 l 1
 350 450 l 1
 284 510 l 1
 260 504 234 476 216 391 c 0
 187 254 197 222 184 160 c 0
 181 145 177 131 173 118 c 1
 216 156 266 181 305 210 c 1
 254 213 219 243 219 291 c 0
 219 299 220 306 222 315 c 0
 236 380 294 420 359 420 c 0
 416 420 455 390 455 339 c 0
 455 331 454 323 452 315 c 0
 419 160 236 117 180 0 c 1
 9 0 l 1
 9 0 33 69 43 115 c 0
 63 210 46 240 78 391 c 0
 94 466 146 615 311 615 c 1
 385 540 l 1
 491 615 l 1
 610 615 637 538 637 467 c 0
 637 439 632 412 628 391 c 2
 590 210 l 2
 589 206 588 202 587 198 c 0
 646 186 684 158 710 128 c 1
 715 162 722 197 729 230 c 2
 808 600 l 1
 958 600 l 1
491 94 m 0
 492 97 492 100 492 103 c 0
 492 117 484 127 467 127 c 0
 447 127 433 113 429 94 c 0
 428 91 428 88 428 85 c 0
 428 71 436 61 453 61 c 0
 473 61 487 75 491 94 c 0
330 282 m 0
 350 282 364 296 368 315 c 0
 369 318 369 321 369 324 c 0
 369 338 361 348 344 348 c 0
 324 348 310 334 306 315 c 0
 305 312 305 309 305 306 c 0
 305 292 313 282 330 282 c 0
EndSplineSet
PickledDataWithLists: "(dp0
Vcom.fontlab.hintData
p1
(dp2
Vvhints
p3
(lp4
(dp5
Vposition
p6
L64L
sVwidth
p7
L10L
sa(dp8
g6
L146L
sg7
L10L
sa(dp9
g6
L322L
sg7
L10L
sa(dp10
g6
L328L
sg7
L10L
sa(dp11
g6
L375L
sg7
L10L
sa(dp12
g6
L445L
sg7
L10L
sa(dp13
g6
L535L
sg7
L10L
sa(dp14
g6
L605L
sg7
L10L
sa(dp15
g6
L781L
sg7
L10L
sa(dp16
g6
L789L
sg7
L10L
sa(dp17
g6
L861L
sg7
L10L
sa(dp18
g6
L871L
sg7
L10L
sasVhhints
p19
(lp20
(dp21
g6
L-19L
sg7
L10L
sa(dp22
g6
L-15L
sg7
L10L
sa(dp23
g6
L37L
sg7
L10L
sa(dp24
g6
L241L
sg7
L10L
sa(dp25
g6
L289L
sg7
L10L
sa(dp26
g6
L412L
sg7
L10L
sa(dp27
g6
L546L
sg7
L10L
sa(dp28
g6
L587L
sg7
L10L
sa(dp29
g6
L593L
sg7
L10L
sa(dp30
g6
L603L
sg7
L10L
sass."
EndChar

StartChar: uni0E13
Encoding: 3603 3603 147
GlifName: uni0E_13
Width: 960
VWidth: 0
GlyphClass: 2
Flags: HMW
LayerCount: 2
Fore
SplineSet
119 94 m 0
 118 91 118 88 118 85 c 0
 118 71 126 61 143 61 c 0
 163 61 177 75 181 94 c 0
 182 97 182 100 182 103 c 0
 182 117 174 127 157 127 c 0
 137 127 123 113 119 94 c 0
739 94 m 0
 738 91 738 88 738 85 c 0
 738 71 746 61 763 61 c 0
 783 61 797 75 801 94 c 0
 802 97 802 100 802 103 c 0
 802 117 794 127 777 127 c 0
 757 127 743 113 739 94 c 0
953 600 m 1
 876 240 l 2
 871 218 858 202 842 189 c 1
 870 176 888 152 888 118 c 0
 888 110 887 102 885 94 c 0
 871 29 813 -11 748 -11 c 0
 691 -11 652 19 652 70 c 0
 652 78 653 86 655 94 c 0
 656 98 658 102 659 106 c 1
 602 85 561 43 523 0 c 1
 385 0 l 1
 468 391 l 2
 471 404 472 415 472 425 c 0
 472 486 429 511 364 511 c 0
 307 511 259 487 229 439 c 1
 352 410 l 1
 324 350 l 1
 324 350 306 355 290 355 c 0
 255 355 245 330 240 305 c 2
 226 240 l 2
 222 222 214 208 203 196 c 1
 242 187 268 159 268 118 c 0
 268 111 267 102 265 94 c 0
 251 29 193 -11 128 -11 c 0
 71 -11 32 19 32 70 c 0
 32 78 33 86 35 94 c 0
 45 142 60 163 70 210 c 2
 87 290 l 2
 97 336 126 369 171 385 c 1
 62 409 l 1
 99 514 213 621 387 621 c 0
 536 621 623 544 623 437 c 0
 623 422 621 407 618 391 c 2
 584 230 l 2
 577 199 569 165 560 133 c 1
 600 164 651 191 717 201 c 0
 718 204 719 207 720 210 c 2
 803 600 l 1
 953 600 l 1
EndSplineSet
PickledDataWithLists: "(dp0
Vcom.fontlab.hintData
p1
(dp2
Vvhints
p3
(lp4
(dp5
Vposition
p6
L84L
sVwidth
p7
L10L
sa(dp8
g6
L104L
sg7
L10L
sa(dp9
g6
L166L
sg7
L10L
sa(dp10
g6
L186L
sg7
L10L
sa(dp11
g6
L311L
sg7
L10L
sa(dp12
g6
L454L
sg7
L10L
sa(dp13
g6
L469L
sg7
L10L
sa(dp14
g6
L540L
sg7
L10L
sa(dp15
g6
L551L
sg7
L10L
sa(dp16
g6
L709L
sg7
L10L
sa(dp17
g6
L780L
sg7
L10L
sa(dp18
g6
L816L
sg7
L10L
sa(dp19
g6
L865L
sg7
L10L
sa(dp20
g6
L935L
sg7
L10L
sasVhhints
p21
(lp22
(dp23
g6
L-17L
sg7
L10L
sa(dp24
g6
L29L
sg7
L10L
sa(dp25
g6
L41L
sg7
L10L
sa(dp26
g6
L54L
sg7
L10L
sa(dp27
g6
L241L
sg7
L10L
sa(dp28
g6
L289L
sg7
L10L
sa(dp29
g6
L546L
sg7
L10L
sa(dp30
g6
L594L
sg7
L10L
sa(dp31
g6
L604L
sg7
L10L
sass."
EndChar

StartChar: uni0E14
Encoding: 3604 3604 148
GlifName: uni0E_14
Width: 665
VWidth: 0
GlyphClass: 2
Flags: HMW
LayerCount: 2
Fore
SplineSet
330 282 m 0
 350 282 364 296 368 315 c 0
 369 318 369 321 369 324 c 0
 369 338 361 348 344 348 c 0
 324 348 310 334 306 315 c 0
 305 312 305 309 305 306 c 0
 305 292 313 282 330 282 c 0
395 0 m 1
 414 90 l 2
 431 170 443 199 484 391 c 0
 487 404 488 415 488 426 c 0
 488 487 445 511 379 511 c 0
 302 511 234 478 216 391 c 0
 187 254 197 222 184 160 c 0
 181 145 177 131 173 118 c 1
 216 156 266 181 305 210 c 1
 254 213 219 243 219 291 c 0
 219 299 220 306 222 315 c 0
 236 380 294 420 359 420 c 0
 416 420 455 390 455 339 c 0
 455 331 454 323 452 315 c 0
 419 160 236 117 180 0 c 1
 9 0 l 1
 9 0 33 69 43 115 c 0
 63 210 46 240 78 391 c 0
 105 520 234 621 402 621 c 0
 549 621 633 543 633 437 c 0
 633 422 631 407 628 391 c 2
 545 0 l 1
 395 0 l 1
EndSplineSet
PickledDataWithLists: "(dp0
Vcom.fontlab.hintData
p1
(dp2
Vvhints
p3
(lp4
(dp5
Vposition
p6
L60L
sVwidth
p7
L10L
sa(dp8
g6
L149L
sg7
L10L
sa(dp9
g6
L306L
sg7
L10L
sa(dp10
g6
L394L
sg7
L10L
sa(dp11
g6
L495L
sg7
L10L
sa(dp12
g6
L501L
sg7
L10L
sa(dp13
g6
L584L
sg7
L10L
sa(dp14
g6
L589L
sg7
L10L
sasVhhints
p15
(lp16
(dp17
g6
L-23L
sg7
L10L
sa(dp18
g6
L-15L
sg7
L10L
sa(dp19
g6
L40L
sg7
L10L
sa(dp20
g6
L140L
sg7
L10L
sa(dp21
g6
L547L
sg7
L10L
sa(dp22
g6
L609L
sg7
L10L
sass."
EndChar

StartChar: uni0E15
Encoding: 3605 3605 149
GlifName: uni0E_15
Width: 665
VWidth: 0
GlyphClass: 2
Flags: HMW
LayerCount: 2
Fore
SplineSet
330 282 m 0
 350 282 364 296 368 315 c 0
 369 318 369 321 369 324 c 0
 369 338 361 348 344 348 c 0
 324 348 310 334 306 315 c 0
 305 312 305 309 305 306 c 0
 305 292 313 282 330 282 c 0
395 0 m 1
 414 90 l 2
 431 170 443 199 484 391 c 0
 491 423 494 446 494 464 c 0
 494 494 485 506 472 510 c 1
 382 450 l 1
 366 450 l 1
 350 450 l 1
 284 510 l 1
 260 503 234 476 216 391 c 0
 187 254 197 222 184 160 c 0
 181 145 177 131 173 118 c 1
 216 156 266 181 305 210 c 1
 254 213 219 243 219 291 c 0
 219 299 220 306 222 315 c 0
 236 380 294 420 359 420 c 0
 416 420 455 390 455 339 c 0
 455 331 454 323 452 315 c 0
 419 160 236 117 180 0 c 1
 9 0 l 1
 9 0 33 69 43 115 c 0
 63 210 46 240 78 391 c 0
 94 466 146 615 311 615 c 1
 385 540 l 1
 491 615 l 1
 610 615 637 538 637 467 c 0
 637 439 632 412 628 391 c 2
 545 0 l 1
 395 0 l 1
EndSplineSet
PickledDataWithLists: "(dp0
Vcom.fontlab.hintData
p1
(dp2
Vvhints
p3
(lp4
(dp5
Vposition
p6
L64L
sVwidth
p7
L10L
sa(dp8
g6
L146L
sg7
L10L
sa(dp9
g6
L309L
sg7
L10L
sa(dp10
g6
L332L
sg7
L10L
sa(dp11
g6
L337L
sg7
L10L
sa(dp12
g6
L391L
sg7
L10L
sa(dp13
g6
L405L
sg7
L10L
sa(dp14
g6
L513L
sg7
L10L
sa(dp15
g6
L597L
sg7
L10L
sa(dp16
g6
L602L
sg7
L10L
sasVhhints
p17
(lp18
(dp19
g6
L-21L
sg7
L10L
sa(dp20
g6
L-13L
sg7
L10L
sa(dp21
g6
L36L
sg7
L10L
sa(dp22
g6
L133L
sg7
L10L
sa(dp23
g6
L412L
sg7
L10L
sa(dp24
g6
L546L
sg7
L10L
sa(dp25
g6
L590L
sg7
L10L
sa(dp26
g6
L603L
sg7
L10L
sass."
EndChar

StartChar: uni0E16
Encoding: 3606 3606 150
GlifName: uni0E_16
Width: 655
VWidth: 0
GlyphClass: 2
Flags: HMW
LayerCount: 2
Fore
SplineSet
119 94 m 0
 118 91 118 88 118 85 c 0
 118 71 126 61 143 61 c 0
 163 61 177 75 181 94 c 0
 182 97 182 100 182 103 c 0
 182 117 174 127 157 127 c 0
 137 127 123 113 119 94 c 0
203 196 m 1
 242 187 268 159 268 118 c 0
 268 111 267 102 265 94 c 0
 251 29 193 -11 128 -11 c 0
 71 -11 32 19 32 70 c 0
 32 78 33 86 35 94 c 0
 45 142 60 163 70 210 c 2
 87 290 l 2
 97 336 126 369 171 385 c 1
 62 409 l 1
 99 514 213 621 387 621 c 0
 536 621 623 544 623 437 c 0
 623 422 621 407 618 391 c 2
 535 0 l 1
 385 0 l 1
 468 391 l 2
 471 404 472 415 472 425 c 0
 472 486 429 511 364 511 c 0
 307 511 259 487 229 439 c 1
 352 410 l 1
 324 350 l 1
 324 350 306 355 290 355 c 0
 255 355 245 330 240 305 c 2
 226 240 l 2
 222 222 214 208 203 196 c 1
EndSplineSet
PickledDataWithLists: "(dp0
Vcom.fontlab.hintData
p1
(dp2
Vvhints
p3
(lp4
(dp5
Vposition
p6
L81L
sVwidth
p7
L10L
sa(dp8
g6
L86L
sg7
L10L
sa(dp9
g6
L111L
sg7
L10L
sa(dp10
g6
L169L
sg7
L10L
sa(dp11
g6
L199L
sg7
L10L
sa(dp12
g6
L315L
sg7
L10L
sa(dp13
g6
L465L
sg7
L10L
sa(dp14
g6
L476L
sg7
L10L
sa(dp15
g6
L556L
sg7
L10L
sa(dp16
g6
L564L
sg7
L10L
sasVhhints
p17
(lp18
(dp19
g6
L-19L
sg7
L10L
sa(dp20
g6
L43L
sg7
L10L
sa(dp21
g6
L56L
sg7
L10L
sa(dp22
g6
L544L
sg7
L10L
sa(dp23
g6
L606L
sg7
L10L
sass."
EndChar

StartChar: uni0E17
Encoding: 3607 3607 151
GlifName: uni0E_17
Width: 660
VWidth: 0
GlyphClass: 2
Flags: HMW
LayerCount: 2
Fore
SplineSet
195 0 m 1
 45 0 l 1
 122 360 l 2
 126 378 134 392 145 404 c 1
 106 413 80 441 80 482 c 0
 80 489 81 498 83 506 c 0
 97 571 155 611 220 611 c 0
 277 611 315 581 315 530 c 0
 315 522 315 514 313 506 c 0
 303 458 288 437 278 390 c 2
 272 360 l 1
 340 488 432 611 535 611 c 0
 619 611 640 555 640 510 c 0
 640 499 639 489 637 480 c 2
 535 0 l 1
 385 0 l 1
 481 452 l 2
 484 464 485 481 478 485 c 1
 386 438 249 177 211 75 c 1
 195 0 l 1
229 506 m 0
 230 509 230 512 230 515 c 0
 230 529 222 539 205 539 c 0
 185 539 171 525 167 506 c 0
 166 503 166 500 166 497 c 0
 166 483 174 473 191 473 c 0
 211 473 225 487 229 506 c 0
EndSplineSet
PickledDataWithLists: "(dp0
Vcom.fontlab.hintData
p1
(dp2
Vvhints
p3
(lp4
(dp5
Vposition
p6
L58L
sVwidth
p7
L10L
sa(dp8
g6
L104L
sg7
L10L
sa(dp9
g6
L479L
sg7
L10L
sa(dp10
g6
L484L
sg7
L10L
sa(dp11
g6
L561L
sg7
L10L
sa(dp12
g6
L566L
sg7
L10L
sasVhhints
p13
(lp14
(dp15
g6
L-13L
sg7
L10L
sa(dp16
g6
L-8L
sg7
L10L
sa(dp17
g6
L546L
sg7
L10L
sa(dp18
g6
L604L
sg7
L10L
sass."
EndChar

StartChar: uni0E18
Encoding: 3608 3608 152
GlifName: uni0E_18
Width: 585
VWidth: 0
GlyphClass: 2
Flags: HMW
AnchorPoint: "ThaiTone.mark" 505 0 basechar 0
LayerCount: 2
Fore
SplineSet
625 588 m 1
 505 470 l 1
 460 470 l 1
 447 491 419 521 356 521 c 0
 306 521 252 504 227 444 c 1
 404 437 535 407 535 318 c 0
 535 311 535 304 533 296 c 2
 509 184 l 2
 486 74 380 -21 231 -21 c 0
 102 -21 34 51 34 142 c 0
 34 156 36 170 39 184 c 2
 64 300 l 1
 214 300 l 1
 189 184 l 2
 186 172 185 162 185 153 c 0
 185 104 218 89 254 89 c 0
 297 89 343 110 359 184 c 2
 379 276 l 2
 380 281 380 286 380 290 c 0
 380 357 265 371 69 371 c 1
 78 416 l 2
 104 536 216 621 352 621 c 0
 420 621 464 597 490 571 c 1
 493 576 497 582 500 586 c 2
 521 615 l 1
 626 594 l 1
 625 588 l 1
EndSplineSet
PickledDataWithLists: "(dp0
Vcom.fontlab.hintData
p1
(dp2
Vvhints
p3
(lp4
(dp5
Vposition
p6
L64L
sVwidth
p7
L10L
sa(dp8
g6
L109L
sg7
L10L
sa(dp9
g6
L146L
sg7
L10L
sa(dp10
g6
L195L
sg7
L10L
sa(dp11
g6
L430L
sg7
L10L
sa(dp12
g6
L513L
sg7
L10L
sasVhhints
p13
(lp14
(dp15
g6
L-14L
sg7
L10L
sa(dp16
g6
L44L
sg7
L10L
sa(dp17
g6
L294L
sg7
L10L
sa(dp18
g6
L496L
sg7
L10L
sa(dp19
g6
L555L
sg7
L10L
sa(dp20
g6
L612L
sg7
L10L
sass."
EndChar

StartChar: uni0E19
Encoding: 3609 3609 153
GlifName: uni0E_19
Width: 650
VWidth: 0
GlyphClass: 2
Flags: HMW
LayerCount: 2
Fore
SplineSet
429 94 m 0
 428 91 428 88 428 85 c 0
 428 71 436 61 453 61 c 0
 473 61 487 75 491 94 c 0
 492 97 492 100 492 103 c 0
 492 117 484 127 467 127 c 0
 447 127 433 113 429 94 c 0
643 600 m 1
 566 240 l 2
 561 218 548 202 532 189 c 1
 560 176 578 152 578 118 c 0
 578 110 577 102 575 94 c 0
 561 29 503 -11 438 -11 c 0
 381 -11 342 19 342 70 c 0
 342 78 343 86 345 94 c 0
 346 99 347 104 349 109 c 1
 276 89 227 46 183 0 c 1
 45 0 l 1
 122 360 l 2
 126 378 134 392 145 404 c 1
 106 413 80 441 80 482 c 0
 80 489 81 498 83 506 c 0
 97 571 155 611 220 611 c 0
 277 611 315 581 315 530 c 0
 315 522 315 514 313 506 c 0
 303 458 288 437 278 390 c 2
 244 230 l 2
 237 198 229 163 220 130 c 1
 267 163 328 193 408 202 c 0
 409 205 409 207 410 210 c 2
 493 600 l 1
 643 600 l 1
229 506 m 0
 230 509 230 512 230 515 c 0
 230 529 222 539 205 539 c 0
 185 539 171 525 167 506 c 0
 166 503 166 500 166 497 c 0
 166 483 174 473 191 473 c 0
 211 473 225 487 229 506 c 0
EndSplineSet
PickledDataWithLists: "(dp0
Vcom.fontlab.hintData
p1
(dp2
Vvhints
p3
(lp4
(dp5
Vposition
p6
L64L
sVwidth
p7
L10L
sa(dp8
g6
L84L
sg7
L10L
sa(dp9
g6
L168L
sg7
L10L
sa(dp10
g6
L387L
sg7
L10L
sa(dp11
g6
L457L
sg7
L10L
sa(dp12
g6
L491L
sg7
L10L
sa(dp13
g6
L550L
sg7
L10L
sa(dp14
g6
L625L
sg7
L10L
sasVhhints
p15
(lp16
(dp17
g6
L-27L
sg7
L10L
sa(dp18
g6
L-20L
sg7
L10L
sa(dp19
g6
L22L
sg7
L10L
sa(dp20
g6
L248L
sg7
L10L
sa(dp21
g6
L307L
sg7
L10L
sa(dp22
g6
L589L
sg7
L10L
sa(dp23
g6
L598L
sg7
L10L
sass."
EndChar

StartChar: uni0E1A
Encoding: 3610 3610 154
GlifName: uni0E_1A_
Width: 700
VWidth: 0
GlyphClass: 2
Flags: HMW
LayerCount: 2
Fore
SplineSet
224 506 m 0
 225 509 225 512 225 515 c 0
 225 529 217 539 200 539 c 0
 180 539 166 525 162 506 c 0
 161 503 161 500 161 497 c 0
 161 483 169 473 186 473 c 0
 206 473 220 487 224 506 c 0
140 404 m 1
 101 413 75 441 75 482 c 0
 75 489 76 498 78 506 c 0
 92 571 150 611 215 611 c 0
 272 611 310 581 310 530 c 0
 310 522 310 514 308 506 c 0
 298 458 283 437 273 390 c 2
 232 196 l 2
 230 184 228 173 228 164 c 0
 228 110 267 89 324 89 c 0
 391 89 445 118 462 196 c 2
 548 600 l 1
 698 600 l 1
 612 196 l 2
 586 74 462 -21 301 -21 c 0
 159 -21 77 52 77 153 c 0
 77 167 79 181 82 196 c 2
 117 360 l 2
 121 378 129 392 140 404 c 1
EndSplineSet
PickledDataWithLists: "(dp0
Vcom.fontlab.hintData
p1
(dp2
Vvhints
p3
(lp4
(dp5
Vposition
p6
L81L
sVwidth
p7
L10L
sa(dp8
g6
L106L
sg7
L10L
sa(dp9
g6
L194L
sg7
L10L
sa(dp10
g6
L511L
sg7
L10L
sa(dp11
g6
L516L
sg7
L10L
sa(dp12
g6
L599L
sg7
L10L
sa(dp13
g6
L604L
sg7
L10L
sasVhhints
p14
(lp15
(dp16
g6
L-26L
sg7
L10L
sa(dp17
g6
L36L
sg7
L10L
sa(dp18
g6
L596L
sg7
L10L
sass."
EndChar

StartChar: uni0E1B
Encoding: 3611 3611 155
GlifName: uni0E_1B_
Width: 700
VWidth: 0
GlyphClass: 2
Flags: HMW
LayerCount: 2
Fore
SplineSet
224 506 m 0
 225 509 225 512 225 515 c 0
 225 529 217 539 200 539 c 0
 180 539 166 525 162 506 c 0
 161 503 161 500 161 497 c 0
 161 483 169 473 186 473 c 0
 206 473 220 487 224 506 c 0
140 404 m 1
 101 413 75 441 75 482 c 0
 75 489 76 498 78 506 c 0
 92 571 150 611 215 611 c 0
 272 611 310 581 310 530 c 0
 310 522 310 514 308 506 c 0
 298 458 283 437 273 390 c 2
 232 196 l 2
 230 184 228 173 228 164 c 0
 228 110 267 89 324 89 c 0
 391 89 445 118 462 196 c 2
 592 810 l 1
 742 810 l 1
 612 196 l 2
 586 74 462 -21 301 -21 c 0
 159 -21 77 52 77 153 c 0
 77 167 79 181 82 196 c 2
 117 360 l 2
 121 378 129 392 140 404 c 1
EndSplineSet
PickledDataWithLists: "(dp0
Vcom.fontlab.hintData
p1
(dp2
Vvhints
p3
(lp4
(dp5
Vposition
p6
L81L
sVwidth
p7
L10L
sa(dp8
g6
L106L
sg7
L10L
sa(dp9
g6
L194L
sg7
L10L
sa(dp10
g6
L521L
sg7
L10L
sa(dp11
g6
L526L
sg7
L10L
sa(dp12
g6
L609L
sg7
L10L
sa(dp13
g6
L614L
sg7
L10L
sasVhhints
p14
(lp15
(dp16
g6
L-26L
sg7
L10L
sa(dp17
g6
L36L
sg7
L10L
sa(dp18
g6
L600L
sg7
L10L
sa(dp19
g6
L836L
sg7
L10L
sass."
EndChar

StartChar: uni0E1C
Encoding: 3612 3612 156
GlifName: uni0E_1C_
Width: 715
VWidth: 0
GlyphClass: 2
Flags: HMW
LayerCount: 2
Fore
SplineSet
490 235 m 2
 568 600 l 1
 713 600 l 1
 585 0 l 1
 445 0 l 1
 354 255 l 1
 155 0 l 1
 15 0 l 1
 72 270 l 2
 88 344 82 407 93 461 c 0
 112 549 188 611 295 611 c 0
 352 611 390 581 390 530 c 0
 390 522 390 514 388 506 c 0
 374 441 315 401 250 401 c 0
 237 401 225 403 214 406 c 1
 217 378 226 359 226 328 c 0
 226 316 225 302 221 285 c 2
 210 235 l 2
 206 218 201 201 195 185 c 1
 332 360 l 1
 377 360 l 1
 422 360 l 1
 483 185 l 1
 483 201 486 218 490 235 c 2
304 506 m 0
 305 509 305 512 305 515 c 0
 305 529 297 539 280 539 c 0
 260 539 246 525 242 506 c 0
 241 503 241 500 241 497 c 0
 241 483 249 473 266 473 c 0
 286 473 300 487 304 506 c 0
EndSplineSet
PickledDataWithLists: "(dp0
Vcom.fontlab.hintData
p1
(dp2
Vvhints
p3
(lp4
(dp5
Vposition
p6
L64L
sVwidth
p7
L10L
sa(dp8
g6
L148L
sg7
L10L
sa(dp9
g6
L372L
sg7
L10L
sa(dp10
g6
L559L
sg7
L10L
sa(dp11
g6
L643L
sg7
L10L
sa(dp12
g6
L653L
sg7
L10L
sasVhhints
p13
(lp14
(dp15
g6
L-14L
sg7
L10L
sa(dp16
g6
L-8L
sg7
L10L
sa(dp17
g6
L318L
sg7
L10L
sa(dp18
g6
L514L
sg7
L10L
sa(dp19
g6
L544L
sg7
L10L
sa(dp20
g6
L599L
sg7
L10L
sa(dp21
g6
L604L
sg7
L10L
sass."
EndChar

StartChar: uni0E1D
Encoding: 3613 3613 157
GlifName: uni0E_1D_
Width: 715
VWidth: 0
GlyphClass: 2
Flags: HMW
LayerCount: 2
Fore
SplineSet
490 235 m 2
 612 810 l 1
 757 810 l 1
 585 0 l 1
 445 0 l 1
 354 255 l 1
 155 0 l 1
 15 0 l 1
 72 270 l 2
 88 344 82 407 93 461 c 0
 112 549 188 611 295 611 c 0
 352 611 390 581 390 530 c 0
 390 522 390 514 388 506 c 0
 374 441 315 401 250 401 c 0
 237 401 225 403 214 406 c 1
 217 378 226 359 226 328 c 0
 226 316 225 302 221 285 c 2
 210 235 l 2
 206 218 201 201 195 185 c 1
 332 360 l 1
 377 360 l 1
 422 360 l 1
 483 185 l 1
 483 201 486 218 490 235 c 2
304 506 m 0
 305 509 305 512 305 515 c 0
 305 529 297 539 280 539 c 0
 260 539 246 525 242 506 c 0
 241 503 241 500 241 497 c 0
 241 483 249 473 266 473 c 0
 286 473 300 487 304 506 c 0
EndSplineSet
PickledDataWithLists: "(dp0
Vcom.fontlab.hintData
p1
(dp2
Vvhints
p3
(lp4
(dp5
Vposition
p6
L64L
sVwidth
p7
L10L
sa(dp8
g6
L148L
sg7
L10L
sa(dp9
g6
L372L
sg7
L10L
sa(dp10
g6
L559L
sg7
L10L
sa(dp11
g6
L643L
sg7
L10L
sa(dp12
g6
L653L
sg7
L10L
sasVhhints
p13
(lp14
(dp15
g6
L-14L
sg7
L10L
sa(dp16
g6
L-8L
sg7
L10L
sa(dp17
g6
L318L
sg7
L10L
sa(dp18
g6
L514L
sg7
L10L
sa(dp19
g6
L544L
sg7
L10L
sa(dp20
g6
L604L
sg7
L10L
sa(dp21
g6
L834L
sg7
L10L
sass."
EndChar

StartChar: uni0E1E
Encoding: 3614 3614 158
GlifName: uni0E_1E_
Width: 735
VWidth: 0
GlyphClass: 2
Flags: HMW
LayerCount: 2
Fore
SplineSet
733 600 m 1
 605 0 l 1
 475 0 l 1
 398 345 l 1
 175 0 l 1
 45 0 l 1
 122 360 l 2
 126 378 134 392 145 404 c 1
 106 413 80 441 80 482 c 0
 80 489 81 498 83 506 c 0
 97 571 155 611 220 611 c 0
 277 611 315 581 315 530 c 0
 315 522 315 514 313 506 c 0
 303 458 283 437 273 390 c 2
 255 305 l 2
 252 289 245 270 239 251 c 1
 395 495 l 1
 430 495 l 1
 465 495 l 1
 517 251 l 1
 519 270 522 289 525 305 c 2
 588 600 l 1
 733 600 l 1
229 506 m 0
 230 509 230 512 230 515 c 0
 230 529 222 539 205 539 c 0
 185 539 171 525 167 506 c 0
 166 503 166 500 166 497 c 0
 166 483 174 473 191 473 c 0
 211 473 225 487 229 506 c 0
EndSplineSet
PickledDataWithLists: "(dp0
Vcom.fontlab.hintData
p1
(dp2
Vvhints
p3
(lp4
(dp5
Vposition
p6
L58L
sVwidth
p7
L10L
sa(dp8
g6
L104L
sg7
L10L
sa(dp9
g6
L182L
sg7
L10L
sa(dp10
g6
L556L
sg7
L10L
sa(dp11
g6
L656L
sg7
L10L
sasVhhints
p12
(lp13
(dp14
g6
L-12L
sg7
L10L
sa(dp15
g6
L540L
sg7
L10L
sa(dp16
g6
L604L
sg7
L10L
sass."
EndChar

StartChar: uni0E1F
Encoding: 3615 3615 159
GlifName: uni0E_1F_
Width: 735
VWidth: 0
GlyphClass: 2
Flags: HMW
LayerCount: 2
Fore
SplineSet
777 810 m 1
 605 0 l 1
 475 0 l 1
 398 345 l 1
 175 0 l 1
 45 0 l 1
 122 360 l 2
 126 378 134 392 145 404 c 1
 106 413 80 441 80 482 c 0
 80 489 81 498 83 506 c 0
 97 571 155 611 220 611 c 0
 277 611 315 581 315 530 c 0
 315 522 315 514 313 506 c 0
 303 458 283 437 273 390 c 2
 255 305 l 2
 252 289 245 270 239 251 c 1
 395 495 l 1
 430 495 l 1
 465 495 l 1
 517 251 l 1
 519 270 522 289 525 305 c 2
 632 810 l 1
 777 810 l 1
229 506 m 0
 230 509 230 512 230 515 c 0
 230 529 222 539 205 539 c 0
 185 539 171 525 167 506 c 0
 166 503 166 500 166 497 c 0
 166 483 174 473 191 473 c 0
 211 473 225 487 229 506 c 0
EndSplineSet
PickledDataWithLists: "(dp0
Vcom.fontlab.hintData
p1
(dp2
Vvhints
p3
(lp4
(dp5
Vposition
p6
L58L
sVwidth
p7
L10L
sa(dp8
g6
L104L
sg7
L10L
sa(dp9
g6
L182L
sg7
L10L
sa(dp10
g6
L565L
sg7
L10L
sa(dp11
g6
L641L
sg7
L9L
sa(dp12
g6
L686L
sg7
L11L
sasVhhints
p13
(lp14
(dp15
g6
L-12L
sg7
L10L
sa(dp16
g6
L540L
sg7
L10L
sa(dp17
g6
L604L
sg7
L10L
sa(dp18
g6
L834L
sg7
L10L
sass."
EndChar

StartChar: uni0E20
Encoding: 3616 3616 160
GlifName: uni0E_20
Width: 665
VWidth: 0
GlyphClass: 2
Flags: HMW
LayerCount: 2
Fore
SplineSet
141 94 m 0
 142 97 142 100 142 103 c 0
 142 117 134 127 117 127 c 0
 97 127 83 113 79 94 c 0
 78 91 78 88 78 85 c 0
 78 71 86 61 103 61 c 0
 123 61 137 75 141 94 c 0
397 621 m 0
 546 621 633 544 633 437 c 0
 633 422 631 407 628 391 c 2
 545 0 l 1
 395 0 l 1
 478 391 l 2
 481 404 482 415 482 425 c 0
 482 486 439 511 374 511 c 0
 317 511 271 487 241 440 c 1
 372 410 l 1
 344 350 l 1
 344 350 326 355 310 355 c 0
 275 355 265 330 260 305 c 2
 246 240 l 1
 240 210 l 2
 230 163 235 142 225 94 c 0
 211 29 153 -11 88 -11 c 0
 31 -11 -8 19 -8 70 c 0
 -8 78 -7 86 -5 94 c 0
 6 148 50 185 101 196 c 1
 97 204 94 213 94 224 c 0
 94 229 95 234 96 240 c 2
 107 290 l 2
 117 336 145 368 190 384 c 1
 72 409 l 1
 109 514 223 621 397 621 c 0
EndSplineSet
PickledDataWithLists: "(dp0
Vcom.fontlab.hintData
p1
(dp2
Vvhints
p3
(lp4
(dp5
Vposition
p6
L26L
sVwidth
p7
L10L
sa(dp8
g6
L81L
sg7
L10L
sa(dp9
g6
L131L
sg7
L10L
sa(dp10
g6
L219L
sg7
L10L
sa(dp11
g6
L465L
sg7
L10L
sa(dp12
g6
L476L
sg7
L10L
sa(dp13
g6
L556L
sg7
L10L
sa(dp14
g6
L564L
sg7
L10L
sasVhhints
p15
(lp16
(dp17
g6
L-16L
sg7
L10L
sa(dp18
g6
L66L
sg7
L10L
sa(dp19
g6
L544L
sg7
L10L
sa(dp20
g6
L606L
sg7
L10L
sass."
EndChar

StartChar: uni0E21
Encoding: 3617 3617 161
GlifName: uni0E_21
Width: 645
VWidth: 0
GlyphClass: 2
Flags: HMW
LayerCount: 2
Fore
SplineSet
643 600 m 1
 515 0 l 1
 377 0 l 1
 353 46 316 91 247 110 c 1
 246 105 246 100 245 94 c 0
 231 29 173 -11 108 -11 c 0
 51 -11 12 19 12 70 c 0
 12 78 13 86 15 94 c 0
 26 145 65 181 113 194 c 1
 108 203 104 213 104 225 c 0
 104 230 105 235 106 240 c 2
 132 360 l 2
 136 378 144 392 155 404 c 1
 116 413 90 441 90 482 c 0
 90 489 91 498 93 506 c 0
 107 571 165 611 230 611 c 0
 287 611 325 581 325 530 c 0
 325 522 325 514 323 506 c 0
 313 458 298 437 288 390 c 2
 250 210 l 2
 249 206 248 203 247 199 c 0
 315 187 363 159 395 127 c 1
 400 161 407 197 414 230 c 2
 493 600 l 1
 643 600 l 1
161 94 m 0
 162 97 162 100 162 103 c 0
 162 117 154 127 137 127 c 0
 117 127 103 113 99 94 c 0
 98 91 98 88 98 85 c 0
 98 71 106 61 123 61 c 0
 143 61 157 75 161 94 c 0
239 506 m 0
 240 509 240 512 240 515 c 0
 240 529 232 539 215 539 c 0
 195 539 181 525 177 506 c 0
 176 503 176 500 176 497 c 0
 176 483 184 473 201 473 c 0
 221 473 235 487 239 506 c 0
EndSplineSet
PickledDataWithLists: "(dp0
Vcom.fontlab.hintData
p1
(dp2
Vvhints
p3
(lp4
(dp5
Vposition
p6
L25L
sVwidth
p7
L10L
sa(dp8
g6
L56L
sg7
L10L
sa(dp9
g6
L100L
sg7
L10L
sa(dp10
g6
L200L
sg7
L10L
sa(dp11
g6
L280L
sg7
L10L
sa(dp12
g6
L476L
sg7
L10L
sa(dp13
g6
L484L
sg7
L10L
sa(dp14
g6
L556L
sg7
L10L
sa(dp15
g6
L566L
sg7
L10L
sasVhhints
p16
(lp17
(dp18
g6
L-27L
sg7
L10L
sa(dp19
g6
L243L
sg7
L10L
sa(dp20
g6
L297L
sg7
L10L
sa(dp21
g6
L528L
sg7
L10L
sa(dp22
g6
L548L
sg7
L10L
sa(dp23
g6
L588L
sg7
L10L
sa(dp24
g6
L602L
sg7
L10L
sass."
EndChar

StartChar: uni0E22
Encoding: 3618 3618 162
GlifName: uni0E_22
Width: 645
VWidth: 0
GlyphClass: 2
Flags: HMW
LayerCount: 2
Fore
SplineSet
299 506 m 0
 300 509 300 512 300 515 c 0
 300 529 292 539 275 539 c 0
 255 539 241 525 237 506 c 0
 236 503 236 500 236 497 c 0
 236 483 244 473 261 473 c 0
 281 473 295 487 299 506 c 0
383 506 m 0
 369 441 310 401 245 401 c 0
 224 401 205 405 190 413 c 1
 204 373 259 360 352 360 c 1
 351 359 l 1
 333 272 l 1
 333 271 l 1
 240 271 191 242 180 190 c 0
 178 180 177 170 177 162 c 0
 177 110 216 89 274 89 c 0
 341 89 395 118 412 196 c 2
 498 600 l 1
 648 600 l 1
 562 196 l 2
 536 74 412 -21 251 -21 c 0
 108 -21 25 48 25 145 c 0
 25 157 26 171 29 184 c 0
 43 251 89 291 143 311 c 1
 107 334 84 374 84 424 c 0
 84 436 85 448 88 461 c 0
 107 549 183 611 290 611 c 0
 347 611 385 581 385 530 c 0
 385 522 385 514 383 506 c 0
EndSplineSet
PickledDataWithLists: "(dp0
Vcom.fontlab.hintData
p1
(dp2
Vvhints
p3
(lp4
(dp5
Vposition
p6
L44L
sVwidth
p7
L10L
sa(dp8
g6
L114L
sg7
L10L
sa(dp9
g6
L126L
sg7
L10L
sa(dp10
g6
L196L
sg7
L10L
sa(dp11
g6
L335L
sg7
L10L
sa(dp12
g6
L352L
sg7
L10L
sa(dp13
g6
L474L
sg7
L10L
sa(dp14
g6
L562L
sg7
L10L
sasVhhints
p15
(lp16
(dp17
g6
L-26L
sg7
L10L
sa(dp18
g6
L36L
sg7
L10L
sa(dp19
g6
L517L
sg7
L10L
sa(dp20
g6
L546L
sg7
L10L
sa(dp21
g6
L596L
sg7
L10L
sa(dp22
g6
L604L
sg7
L10L
sass."
EndChar

StartChar: uni0E23
Encoding: 3619 3619 163
GlifName: uni0E_23
Width: 530
VWidth: 0
GlyphClass: 2
Flags: HMW
AnchorPoint: "ThaiBelow.mark" 440 0 basechar 0
AnchorPoint: "ThaiTone.mark" 450 0 basechar 0
AnchorPoint: "ThaiAbove.mark" 500 0 basechar 0
LayerCount: 2
Fore
SplineSet
219 94 m 0
 218 91 218 88 218 85 c 0
 218 71 226 61 243 61 c 0
 263 61 277 75 281 94 c 0
 282 97 282 100 282 103 c 0
 282 117 274 127 257 127 c 0
 237 127 223 113 219 94 c 0
580 588 m 1
 460 470 l 1
 415 470 l 1
 402 491 379 521 316 521 c 0
 266 521 214 503 191 443 c 1
 332 434 441 404 441 320 c 0
 441 313 440 304 438 296 c 2
 416 195 l 1
 401 120 l 2
 384 41 315 -11 228 -11 c 0
 171 -11 132 19 132 70 c 0
 132 78 133 86 135 94 c 0
 149 158 206 198 270 199 c 1
 269 206 271 213 272 220 c 2
 284 276 l 2
 285 282 286 288 286 293 c 0
 286 358 190 371 34 371 c 1
 43 416 l 2
 69 536 176 621 312 621 c 0
 379 621 420 598 446 573 c 1
 449 578 452 582 455 586 c 2
 476 615 l 1
 581 594 l 1
 580 588 l 1
EndSplineSet
PickledDataWithLists: "(dp0
Vcom.fontlab.hintData
p1
(dp2
Vvhints
p3
(lp4
(dp5
Vposition
p6
L31L
sVwidth
p7
L10L
sa(dp8
g6
L111L
sg7
L10L
sa(dp9
g6
L116L
sg7
L10L
sa(dp10
g6
L362L
sg7
L10L
sa(dp11
g6
L446L
sg7
L10L
sa(dp12
g6
L479L
sg7
L10L
sasVhhints
p13
(lp14
(dp15
g6
L-16L
sg7
L10L
sa(dp16
g6
L46L
sg7
L10L
sa(dp17
g6
L91L
sg7
L10L
sa(dp18
g6
L494L
sg7
L10L
sa(dp19
g6
L548L
sg7
L10L
sa(dp20
g6
L610L
sg7
L10L
sass."
EndChar

StartChar: uni0E24
Encoding: 3620 3620 164
GlifName: uni0E_24
Width: 655
VWidth: 0
GlyphClass: 2
Flags: HMW
LayerCount: 2
Fore
SplineSet
119 94 m 0
 118 91 118 88 118 85 c 0
 118 71 126 61 143 61 c 0
 163 61 177 75 181 94 c 0
 182 97 182 100 182 103 c 0
 182 117 174 127 157 127 c 0
 137 127 123 113 119 94 c 0
203 196 m 1
 242 187 268 159 268 118 c 0
 268 111 267 102 265 94 c 0
 251 29 193 -11 128 -11 c 0
 71 -11 32 19 32 70 c 0
 32 78 33 86 35 94 c 0
 45 142 60 163 70 210 c 2
 87 290 l 2
 97 336 126 369 171 385 c 1
 62 409 l 1
 99 514 213 621 387 621 c 0
 536 621 623 544 623 437 c 0
 623 422 621 407 618 391 c 2
 490 -210 l 1
 340 -210 l 1
 468 391 l 2
 471 404 472 415 472 425 c 0
 472 486 429 511 364 511 c 0
 307 511 259 487 229 439 c 1
 352 410 l 1
 324 350 l 1
 324 350 306 355 290 355 c 0
 255 355 245 330 240 305 c 2
 226 240 l 2
 222 222 214 208 203 196 c 1
EndSplineSet
PickledDataWithLists: "(dp0
Vcom.fontlab.hintData
p1
(dp2
Vvhints
p3
(lp4
(dp5
Vposition
p6
L81L
sVwidth
p7
L10L
sa(dp8
g6
L86L
sg7
L10L
sa(dp9
g6
L111L
sg7
L10L
sa(dp10
g6
L169L
sg7
L10L
sa(dp11
g6
L199L
sg7
L10L
sa(dp12
g6
L315L
sg7
L10L
sa(dp13
g6
L465L
sg7
L10L
sa(dp14
g6
L476L
sg7
L10L
sa(dp15
g6
L556L
sg7
L10L
sa(dp16
g6
L564L
sg7
L10L
sasVhhints
p17
(lp18
(dp19
g6
L-246L
sg7
L10L
sa(dp20
g6
L-19L
sg7
L10L
sa(dp21
g6
L43L
sg7
L10L
sa(dp22
g6
L56L
sg7
L10L
sa(dp23
g6
L544L
sg7
L10L
sa(dp24
g6
L606L
sg7
L10L
sass."
EndChar

StartChar: uni0E240E45.liga
Encoding: 63617 63617 165
GlifName: uni0E_240E_45.liga
Width: 950
VWidth: 0
GlyphClass: 3
Flags: HMW
LayerCount: 2
Fore
SplineSet
751 615 m 0
 867 615 921 549 921 470 c 0
 921 457 919 444 916 430 c 2
 780 -210 l 1
 630 -210 l 1
 766 430 l 2
 768 441 770 450 770 458 c 0
 770 497 744 505 722 505 c 0
 672 505 642 460 622 412 c 0
 622 405 619 398 618 391 c 2
 490 -210 l 1
 340 -210 l 1
 468 391 l 2
 471 404 472 415 472 425 c 0
 472 486 429 511 364 511 c 0
 307 511 259 487 229 439 c 1
 352 410 l 1
 324 350 l 1
 324 350 306 355 290 355 c 0
 255 355 245 330 240 305 c 2
 226 240 l 2
 222 222 214 208 203 196 c 1
 242 187 268 159 268 118 c 0
 268 111 267 102 265 94 c 0
 251 29 193 -11 128 -11 c 0
 71 -11 32 19 32 70 c 0
 32 78 33 86 35 94 c 0
 45 142 60 163 70 210 c 2
 87 290 l 2
 97 336 126 369 171 385 c 1
 62 409 l 1
 99 514 213 621 387 621 c 0
 477 621 543 593 582 548 c 1
 622 586 679 615 751 615 c 0
119 94 m 0
 118 91 118 88 118 85 c 0
 118 71 126 61 143 61 c 0
 163 61 177 75 181 94 c 0
 182 97 182 100 182 103 c 0
 182 117 174 127 157 127 c 0
 137 127 123 113 119 94 c 0
EndSplineSet
PickledDataWithLists: "(dp0
Vcom.fontlab.hintData
p1
(dp2
Vvhints
p3
(lp4
(dp5
Vposition
p6
L81L
sVwidth
p7
L10L
sa(dp8
g6
L86L
sg7
L10L
sa(dp9
g6
L111L
sg7
L10L
sa(dp10
g6
L169L
sg7
L10L
sa(dp11
g6
L199L
sg7
L10L
sa(dp12
g6
L315L
sg7
L10L
sa(dp13
g6
L465L
sg7
L10L
sa(dp14
g6
L476L
sg7
L10L
sa(dp15
g6
L556L
sg7
L10L
sa(dp16
g6
L563L
sg7
L10L
sa(dp17
g6
L756L
sg7
L10L
sa(dp18
g6
L782L
sg7
L10L
sa(dp19
g6
L844L
sg7
L10L
sa(dp20
g6
L870L
sg7
L10L
sasVhhints
p21
(lp22
(dp23
g6
L-245L
sg7
L10L
sa(dp24
g6
L-19L
sg7
L10L
sa(dp25
g6
L43L
sg7
L10L
sa(dp26
g6
L56L
sg7
L10L
sa(dp27
g6
L544L
sg7
L10L
sa(dp28
g6
L606L
sg7
L10L
sass."
Ligature2: "Thai.liga subtable" uni0E24 uni200D uni0E45
Ligature2: "Thai.liga subtable" uni0E24 uni0E45
Colour: ff00ff
EndChar

StartChar: uni0E25
Encoding: 3621 3621 166
GlifName: uni0E_25
Width: 635
VWidth: 0
GlyphClass: 2
Flags: HMW
LayerCount: 2
Fore
SplineSet
211 405 m 1
 64 417 l 1
 99 518 209 621 377 621 c 0
 521 621 605 547 605 444 c 0
 605 430 603 416 600 401 c 2
 515 0 l 1
 365 0 l 1
 384 90 l 1
 384 91 384 91 384 92 c 0
 384 160 329 260 230 260 c 0
 204 260 187 245 182 220 c 0
 180 212 177 205 174 199 c 1
 229 198 268 168 268 118 c 0
 268 110 267 102 265 94 c 0
 251 29 193 -11 128 -11 c 0
 62 -11 16 29 16 86 c 0
 16 94 16 102 18 110 c 2
 36 195 l 2
 51 265 99 360 242 360 c 0
 330 360 386 315 420 260 c 1
 450 401 l 2
 453 413 454 424 454 434 c 0
 454 490 414 511 354 511 c 0
 288 511 236 476 211 405 c 1
181 94 m 0
 182 97 182 100 182 103 c 0
 182 117 174 127 157 127 c 0
 137 127 123 113 119 94 c 0
 118 91 118 88 118 85 c 0
 118 71 126 61 143 61 c 0
 163 61 177 75 181 94 c 0
EndSplineSet
PickledDataWithLists: "(dp0
Vcom.fontlab.hintData
p1
(dp2
Vvhints
p3
(lp4
(dp5
Vposition
p6
L41L
sVwidth
p7
L10L
sa(dp8
g6
L91L
sg7
L10L
sa(dp9
g6
L179L
sg7
L10L
sa(dp10
g6
L504L
sg7
L10L
sa(dp11
g6
L589L
sg7
L10L
sasVhhints
p12
(lp13
(dp14
g6
L-16L
sg7
L10L
sa(dp15
g6
L-6L
sg7
L10L
sa(dp16
g6
L296L
sg7
L10L
sa(dp17
g6
L414L
sg7
L10L
sa(dp18
g6
L549L
sg7
L10L
sa(dp19
g6
L610L
sg7
L10L
sass."
EndChar

StartChar: uni0E26
Encoding: 3622 3622 167
GlifName: uni0E_26
Width: 670
VWidth: 0
GlyphClass: 2
Flags: HMW
LayerCount: 2
Fore
SplineSet
141 94 m 0
 142 97 142 100 142 103 c 0
 142 117 134 127 117 127 c 0
 97 127 83 113 79 94 c 0
 78 91 78 88 78 85 c 0
 78 71 86 61 103 61 c 0
 123 61 137 75 141 94 c 0
397 621 m 0
 546 621 633 544 633 437 c 0
 633 422 631 407 628 391 c 2
 500 -210 l 1
 350 -210 l 1
 478 391 l 2
 481 404 482 415 482 425 c 0
 482 486 439 511 374 511 c 0
 317 511 271 487 241 440 c 1
 372 410 l 1
 344 350 l 1
 344 350 326 355 310 355 c 0
 275 355 265 330 260 305 c 2
 246 240 l 1
 240 210 l 2
 230 163 235 142 225 94 c 0
 211 29 153 -11 88 -11 c 0
 31 -11 -8 19 -8 70 c 0
 -8 78 -7 86 -5 94 c 0
 6 148 50 185 101 196 c 1
 97 204 94 213 94 224 c 0
 94 229 95 234 96 240 c 2
 107 290 l 2
 117 336 145 368 190 384 c 1
 72 409 l 1
 109 514 223 621 397 621 c 0
EndSplineSet
PickledDataWithLists: "(dp0
Vcom.fontlab.hintData
p1
(dp2
Vvhints
p3
(lp4
(dp5
Vposition
p6
L26L
sVwidth
p7
L10L
sa(dp8
g6
L81L
sg7
L10L
sa(dp9
g6
L131L
sg7
L10L
sa(dp10
g6
L219L
sg7
L10L
sa(dp11
g6
L465L
sg7
L10L
sa(dp12
g6
L476L
sg7
L10L
sa(dp13
g6
L556L
sg7
L10L
sa(dp14
g6
L564L
sg7
L10L
sasVhhints
p15
(lp16
(dp17
g6
L-246L
sg7
L10L
sa(dp18
g6
L-16L
sg7
L10L
sa(dp19
g6
L66L
sg7
L10L
sa(dp20
g6
L544L
sg7
L10L
sa(dp21
g6
L606L
sg7
L10L
sass."
EndChar

StartChar: uni0E260E45.liga
Encoding: 63618 63618 168
GlifName: uni0E_260E_45.liga
Width: 960
VWidth: 0
GlyphClass: 3
Flags: HMW
LayerCount: 2
Fore
SplineSet
141 94 m 0
 142 97 142 100 142 103 c 0
 142 117 134 127 117 127 c 0
 97 127 83 113 79 94 c 0
 78 91 78 88 78 85 c 0
 78 71 86 61 103 61 c 0
 123 61 137 75 141 94 c 0
592 548 m 1
 632 586 689 615 761 615 c 0
 877 615 931 549 931 470 c 0
 931 457 929 444 926 430 c 2
 790 -210 l 1
 640 -210 l 1
 776 430 l 2
 778 441 780 450 780 458 c 0
 780 497 754 505 732 505 c 0
 682 505 651 460 631 411 c 0
 631 404 629 398 628 391 c 2
 500 -210 l 1
 350 -210 l 1
 478 391 l 2
 481 404 482 415 482 425 c 0
 482 486 439 511 374 511 c 0
 317 511 271 487 241 440 c 1
 372 410 l 1
 344 350 l 1
 344 350 326 355 310 355 c 0
 275 355 265 330 260 305 c 2
 246 240 l 1
 240 210 l 2
 230 163 235 142 225 94 c 0
 211 29 153 -11 88 -11 c 0
 31 -11 -8 19 -8 70 c 0
 -8 78 -7 86 -5 94 c 0
 6 148 50 185 101 196 c 1
 97 204 94 213 94 224 c 0
 94 229 95 234 96 240 c 2
 107 290 l 2
 117 336 145 368 190 384 c 1
 72 409 l 1
 109 514 223 621 397 621 c 0
 487 621 553 593 592 548 c 1
EndSplineSet
PickledDataWithLists: "(dp0
Vcom.fontlab.hintData
p1
(dp2
Vvhints
p3
(lp4
(dp5
Vposition
p6
L26L
sVwidth
p7
L10L
sa(dp8
g6
L81L
sg7
L10L
sa(dp9
g6
L131L
sg7
L10L
sa(dp10
g6
L219L
sg7
L10L
sa(dp11
g6
L465L
sg7
L10L
sa(dp12
g6
L476L
sg7
L10L
sa(dp13
g6
L556L
sg7
L10L
sa(dp14
g6
L563L
sg7
L10L
sa(dp15
g6
L756L
sg7
L10L
sa(dp16
g6
L782L
sg7
L10L
sa(dp17
g6
L844L
sg7
L10L
sa(dp18
g6
L870L
sg7
L10L
sasVhhints
p19
(lp20
(dp21
g6
L-245L
sg7
L10L
sa(dp22
g6
L-16L
sg7
L10L
sa(dp23
g6
L66L
sg7
L10L
sa(dp24
g6
L544L
sg7
L10L
sa(dp25
g6
L606L
sg7
L10L
sass."
Ligature2: "Thai.liga subtable" uni0E26 uni200D uni0E45
Ligature2: "Thai.liga subtable" uni0E26 uni0E45
Colour: ff00ff
EndChar

StartChar: uni0E27
Encoding: 3623 3623 169
GlifName: uni0E_27
Width: 535
VWidth: 0
GlyphClass: 2
Flags: HMW
AnchorPoint: "ThaiAbove.mark" 485 0 basechar 0
LayerCount: 2
Fore
SplineSet
436 120 m 2
 419 41 350 -11 263 -11 c 0
 206 -11 167 19 167 70 c 0
 167 78 168 86 170 94 c 0
 184 158 241 198 305 199 c 1
 304 206 306 213 307 220 c 2
 348 416 l 2
 351 428 352 438 352 447 c 0
 352 496 320 511 284 511 c 0
 240 511 202 488 181 433 c 1
 35 445 l 1
 66 528 159 621 307 621 c 0
 436 621 503 549 503 458 c 0
 503 444 501 430 498 416 c 2
 436 120 l 2
254 94 m 0
 253 91 253 88 253 85 c 0
 253 71 261 61 278 61 c 0
 298 61 312 75 316 94 c 0
 317 97 317 100 317 103 c 0
 317 117 309 127 292 127 c 0
 272 127 258 113 254 94 c 0
EndSplineSet
PickledDataWithLists: "(dp0
Vcom.fontlab.hintData
p1
(dp2
Vvhints
p3
(lp4
(dp5
Vposition
p6
L21L
sVwidth
p7
L10L
sa(dp8
g6
L168L
sg7
L10L
sa(dp9
g6
L255L
sg7
L10L
sa(dp10
g6
L411L
sg7
L10L
sa(dp11
g6
L499L
sg7
L10L
sasVhhints
p12
(lp13
(dp14
g6
L-15L
sg7
L10L
sa(dp15
g6
L46L
sg7
L10L
sa(dp16
g6
L136L
sg7
L10L
sa(dp17
g6
L394L
sg7
L10L
sa(dp18
g6
L552L
sg7
L9L
sa(dp19
g6
L614L
sg7
L10L
sass."
EndChar

StartChar: uni0E28
Encoding: 3624 3624 170
GlifName: uni0E_28
Width: 680
VWidth: 0
GlyphClass: 2
Flags: HMW
LayerCount: 2
Fore
SplineSet
344 348 m 0
 324 348 310 334 306 315 c 0
 305 312 305 309 305 306 c 0
 305 292 313 282 330 282 c 0
 350 282 364 296 368 315 c 0
 369 318 369 321 369 324 c 0
 369 338 361 348 344 348 c 0
395 0 m 1
 414 90 l 2
 431 170 443 199 484 391 c 0
 487 404 488 417 488 428 c 0
 488 435 488 440 487 446 c 1
 463 433 438 419 416 406 c 1
 440 392 455 370 455 339 c 0
 455 332 454 323 452 315 c 0
 438 250 380 210 315 210 c 0
 283 210 256 220 240 237 c 1
 219 206 205 163 189 90 c 2
 170 0 l 1
 9 0 l 1
 9 0 33 69 43 115 c 0
 63 210 46 240 78 391 c 0
 105 520 234 621 402 621 c 0
 472 621 527 604 566 574 c 1
 602 606 652 640 717 645 c 1
 714 515 l 1
 676 515 648 509 623 498 c 1
 630 479 633 459 633 437 c 0
 633 422 631 407 628 391 c 2
 545 0 l 1
 395 0 l 1
449 497 m 1
 431 507 407 511 379 511 c 0
 302 511 240 478 222 391 c 0
 216 362 211 337 206 315 c 1
 223 344 245 370 273 390 c 0
 288 401 304 410 322 415 c 1
 361 441 406 470 449 497 c 1
EndSplineSet
PickledDataWithLists: "(dp0
Vcom.fontlab.hintData
p1
(dp2
Vvhints
p3
(lp4
(dp5
Vposition
p6
L59L
sVwidth
p7
L10L
sa(dp8
g6
L142L
sg7
L10L
sa(dp9
g6
L439L
sg7
L10L
sa(dp10
g6
L508L
sg7
L10L
sa(dp11
g6
L590L
sg7
L10L
sa(dp12
g6
L637L
sg7
L10L
sasVhhints
p13
(lp14
(dp15
g6
L-18L
sg7
L10L
sa(dp16
g6
L-4L
sg7
L10L
sa(dp17
g6
L551L
sg7
L10L
sa(dp18
g6
L608L
sg7
L10L
sa(dp19
g6
L654L
sg7
L10L
sass."
EndChar

StartChar: uni0E29
Encoding: 3625 3625 171
GlifName: uni0E_29
Width: 710
VWidth: 0
GlyphClass: 2
Flags: HMW
LayerCount: 2
Fore
SplineSet
353 345 m 0
 352 343 353 340 353 338 c 0
 353 327 360 319 373 319 c 0
 389 319 400 330 403 345 c 0
 404 347 404 350 404 352 c 0
 404 363 397 371 384 371 c 0
 368 371 356 360 353 345 c 0
224 506 m 0
 225 509 225 512 225 515 c 0
 225 529 217 539 200 539 c 0
 180 539 166 525 162 506 c 0
 161 503 161 500 161 497 c 0
 161 483 169 473 186 473 c 0
 206 473 220 487 224 506 c 0
448 302 m 1
 456 304 464 305 470 305 c 0
 475 305 480 306 485 306 c 1
 548 600 l 1
 698 600 l 1
 643 345 l 1
 667 354 689 363 704 370 c 1
 713 295 l 1
 689 286 660 276 627 268 c 1
 612 196 l 2
 586 74 462 -21 301 -21 c 0
 159 -21 77 52 77 153 c 0
 77 167 79 181 82 196 c 2
 117 360 l 2
 121 378 129 392 140 404 c 1
 101 413 75 441 75 482 c 0
 75 489 76 498 78 506 c 0
 92 571 150 611 215 611 c 0
 272 611 310 581 310 530 c 0
 310 522 310 514 308 506 c 0
 298 458 283 437 273 390 c 2
 232 196 l 2
 230 184 228 173 228 164 c 0
 228 110 267 89 324 89 c 0
 391 89 445 118 462 196 c 2
 471 242 l 1
 451 241 431 240 411 240 c 0
 330 240 286 269 286 322 c 0
 286 329 286 337 288 345 c 0
 299 396 345 428 396 428 c 0
 440 428 470 404 470 364 c 0
 470 358 469 352 468 345 c 0
 464 328 458 314 448 302 c 1
EndSplineSet
PickledDataWithLists: "(dp0
Vcom.fontlab.hintData
p1
(dp2
Vvhints
p3
(lp4
(dp5
Vposition
p6
L84L
sVwidth
p7
L10L
sa(dp8
g6
L109L
sg7
L10L
sa(dp9
g6
L191L
sg7
L10L
sa(dp10
g6
L312L
sg7
L10L
sa(dp11
g6
L375L
sg7
L10L
sa(dp12
g6
L524L
sg7
L10L
sa(dp13
g6
L529L
sg7
L10L
sa(dp14
g6
L606L
sg7
L10L
sa(dp15
g6
L708L
sg7
L10L
sasVhhints
p16
(lp17
(dp18
g6
L-24L
sg7
L10L
sa(dp19
g6
L34L
sg7
L10L
sa(dp20
g6
L391L
sg7
L10L
sa(dp21
g6
L439L
sg7
L10L
sa(dp22
g6
L561L
sg7
L10L
sa(dp23
g6
L599L
sg7
L10L
sa(dp24
g6
L609L
sg7
L10L
sa(dp25
g6
L629L
sg7
L10L
sass."
EndChar

StartChar: uni0E2A
Encoding: 3626 3626 172
GlifName: uni0E_2A_
Width: 650
VWidth: 0
GlyphClass: 2
Flags: HMW
LayerCount: 2
Fore
SplineSet
211 405 m 1
 64 417 l 1
 99 518 209 621 377 621 c 0
 445 621 499 604 538 576 c 1
 574 608 623 640 687 645 c 1
 684 515 l 1
 648 515 621 510 596 500 c 1
 602 483 605 465 605 445 c 0
 605 431 603 416 600 401 c 2
 515 0 l 1
 365 0 l 1
 384 90 l 1
 384 91 384 91 384 92 c 0
 384 160 329 260 230 260 c 0
 204 260 187 245 182 220 c 0
 180 212 177 205 174 199 c 1
 229 198 268 168 268 118 c 0
 268 110 267 102 265 94 c 0
 251 29 193 -11 128 -11 c 0
 62 -11 16 29 16 86 c 0
 16 94 16 102 18 110 c 2
 36 195 l 2
 50 263 96 354 227 360 c 1
 278 398 353 447 425 494 c 1
 408 506 383 511 354 511 c 0
 288 511 236 476 211 405 c 1
181 94 m 0
 182 97 182 100 182 103 c 0
 182 117 174 127 157 127 c 0
 137 127 123 113 119 94 c 0
 118 91 118 88 118 85 c 0
 118 71 126 61 143 61 c 0
 163 61 177 75 181 94 c 0
454 438 m 1
 402 408 351 376 310 349 c 1
 360 333 396 299 420 260 c 1
 450 401 l 2
 452 413 454 423 454 432 c 0
 454 434 454 436 454 438 c 1
EndSplineSet
PickledDataWithLists: "(dp0
Vcom.fontlab.hintData
p1
(dp2
Vvhints
p3
(lp4
(dp5
Vposition
p6
L54L
sVwidth
p7
L10L
sa(dp8
g6
L94L
sg7
L10L
sa(dp9
g6
L136L
sg7
L10L
sa(dp10
g6
L176L
sg7
L10L
sa(dp11
g6
L504L
sg7
L10L
sa(dp12
g6
L586L
sg7
L10L
sa(dp13
g6
L616L
sg7
L10L
sasVhhints
p14
(lp15
(dp16
g6
L-14L
sg7
L10L
sa(dp17
g6
L-4L
sg7
L10L
sa(dp18
g6
L294L
sg7
L10L
sa(dp19
g6
L370L
sg7
L10L
sa(dp20
g6
L429L
sg7
L10L
sa(dp21
g6
L548L
sg7
L10L
sa(dp22
g6
L606L
sg7
L10L
sa(dp23
g6
L654L
sg7
L10L
sass."
EndChar

StartChar: uni0E2B
Encoding: 3627 3627 173
GlifName: uni0E_2B_
Width: 660
VWidth: 0
GlyphClass: 2
Flags: HMW
LayerCount: 2
Fore
SplineSet
517 506 m 0
 516 503 516 500 516 497 c 0
 516 483 524 473 541 473 c 0
 561 473 575 487 579 506 c 0
 580 509 580 512 580 515 c 0
 580 529 572 539 555 539 c 0
 535 539 521 525 517 506 c 0
433 506 m 0
 447 571 505 611 570 611 c 0
 627 611 665 581 665 530 c 0
 665 522 665 514 663 506 c 0
 654 464 627 433 591 416 c 1
 603 405 613 391 613 373 c 0
 613 369 613 365 612 360 c 2
 535 0 l 1
 385 0 l 1
 460 353 l 1
 355 317 248 202 213 84 c 1
 195 0 l 1
 45 0 l 1
 122 360 l 2
 126 378 134 392 145 404 c 1
 106 413 80 441 80 482 c 0
 80 489 81 498 83 506 c 0
 97 571 155 611 220 611 c 0
 277 611 315 581 315 530 c 0
 315 522 315 514 313 506 c 0
 303 458 288 437 278 390 c 2
 262 313 l 1
 313 367 373 413 441 439 c 1
 433 450 430 465 430 481 c 0
 430 489 431 497 433 506 c 0
229 506 m 0
 230 509 230 512 230 515 c 0
 230 529 222 539 205 539 c 0
 185 539 171 525 167 506 c 0
 166 503 166 500 166 497 c 0
 166 483 174 473 191 473 c 0
 211 473 225 487 229 506 c 0
EndSplineSet
PickledDataWithLists: "(dp0
Vcom.fontlab.hintData
p1
(dp2
Vvhints
p3
(lp4
(dp5
Vposition
p6
L84L
sVwidth
p7
L10L
sa(dp8
g6
L166L
sg7
L10L
sa(dp9
g6
L191L
sg7
L11L
sa(dp10
g6
L320L
sg7
L10L
sa(dp11
g6
L395L
sg7
L10L
sa(dp12
g6
L493L
sg7
L10L
sa(dp13
g6
L525L
sg7
L10L
sa(dp14
g6
L600L
sg7
L10L
sa(dp15
g6
L638L
sg7
L10L
sasVhhints
p16
(lp17
(dp18
g6
L-24L
sg7
L10L
sa(dp19
g6
L-12L
sg7
L10L
sa(dp20
g6
L553L
sg7
L10L
sa(dp21
g6
L589L
sg7
L10L
sa(dp22
g6
L602L
sg7
L10L
sass."
EndChar

StartChar: uni0E2C
Encoding: 3628 3628 174
GlifName: uni0E_2C_
Width: 760
VWidth: 0
GlyphClass: 2
Flags: HMW
AnchorPoint: "ThaiBelow.mark" 660 0 basechar 0
AnchorPoint: "ThaiTone.mark" 660 0 basechar 0
AnchorPoint: "ThaiAbove.mark" 660 0 basechar 0
LayerCount: 2
Fore
SplineSet
525 305 m 2
 543 390 l 2
 547 407 555 422 565 433 c 1
 520 440 491 468 491 512 c 0
 491 519 492 528 494 536 c 0
 508 601 566 641 631 641 c 0
 687 641 727 611 727 560 c 0
 727 558 727 555 727 553 c 1
 737 573 745 598 754 630 c 1
 837 620 l 1
 808 530 760 481 702 451 c 1
 700 442 697 432 694 420 c 2
 605 0 l 1
 475 0 l 1
 392 315 l 1
 175 0 l 1
 45 0 l 1
 122 360 l 2
 126 378 134 392 145 404 c 1
 106 413 80 441 80 482 c 0
 80 489 81 498 83 506 c 0
 97 571 155 611 220 611 c 0
 277 611 315 581 315 530 c 0
 315 522 315 514 313 506 c 0
 303 458 283 437 273 390 c 2
 255 305 l 2
 250 283 241 256 233 232 c 1
 389 465 l 1
 424 465 l 1
 459 465 l 1
 515 232 l 1
 517 256 520 283 525 305 c 2
640 536 m 0
 641 539 641 542 641 545 c 0
 641 559 633 569 616 569 c 0
 596 569 582 555 578 536 c 0
 577 533 577 530 577 527 c 0
 577 513 585 503 602 503 c 0
 622 503 636 517 640 536 c 0
229 506 m 0
 230 509 230 512 230 515 c 0
 230 529 222 539 205 539 c 0
 185 539 171 525 167 506 c 0
 166 503 166 500 166 497 c 0
 166 483 174 473 191 473 c 0
 211 473 225 487 229 506 c 0
EndSplineSet
PickledDataWithLists: "(dp0
Vcom.fontlab.hintData
p1
(dp2
Vvhints
p3
(lp4
(dp5
Vposition
p6
L58L
sVwidth
p7
L10L
sa(dp8
g6
L104L
sg7
L10L
sa(dp9
g6
L185L
sg7
L10L
sa(dp10
g6
L367L
sg7
L10L
sa(dp11
g6
L430L
sg7
L10L
sa(dp12
g6
L587L
sg7
L10L
sa(dp13
g6
L661L
sg7
L10L
sa(dp14
g6
L760L
sg7
L10L
sasVhhints
p15
(lp16
(dp17
g6
L-18L
sg7
L10L
sa(dp18
g6
L-13L
sg7
L10L
sa(dp19
g6
L329L
sg7
L10L
sa(dp20
g6
L391L
sg7
L10L
sa(dp21
g6
L439L
sg7
L10L
sa(dp22
g6
L561L
sg7
L10L
sa(dp23
g6
L604L
sg7
L10L
sa(dp24
g6
L609L
sg7
L10L
sa(dp25
g6
L629L
sg7
L10L
sass."
EndChar

StartChar: uni0E2D
Encoding: 3629 3629 175
GlifName: uni0E_2D_
Width: 635
VWidth: 0
GlyphClass: 2
Flags: HMW
LayerCount: 2
Fore
SplineSet
211 405 m 1
 64 417 l 1
 99 518 209 621 377 621 c 0
 521 621 605 547 605 444 c 0
 605 430 603 416 600 401 c 2
 556 192 l 2
 531 74 413 -21 256 -21 c 0
 118 -21 41 52 41 149 c 0
 41 163 43 177 46 192 c 2
 59 255 l 2
 73 320 132 360 197 360 c 0
 254 360 292 330 292 279 c 0
 292 271 291 263 289 255 c 0
 277 200 234 163 182 153 c 1
 188 107 232 89 279 89 c 0
 338 89 390 116 406 192 c 2
 450 401 l 2
 453 413 454 424 454 434 c 0
 454 490 414 511 354 511 c 0
 288 511 236 476 211 405 c 1
205 255 m 0
 206 258 206 261 206 264 c 0
 206 278 198 288 181 288 c 0
 161 288 147 274 143 255 c 0
 142 252 142 249 142 246 c 0
 142 232 150 222 167 222 c 0
 187 222 201 236 205 255 c 0
EndSplineSet
PickledDataWithLists: "(dp0
Vcom.fontlab.hintData
p1
(dp2
Vvhints
p3
(lp4
(dp5
Vposition
p6
L50L
sVwidth
p7
L10L
sa(dp8
g6
L61L
sg7
L10L
sa(dp9
g6
L149L
sg7
L10L
sa(dp10
g6
L289L
sg7
L10L
sa(dp11
g6
L481L
sg7
L10L
sa(dp12
g6
L569L
sg7
L10L
sasVhhints
p13
(lp14
(dp15
g6
L-19L
sg7
L10L
sa(dp16
g6
L43L
sg7
L10L
sa(dp17
g6
L215L
sg7
L10L
sa(dp18
g6
L230L
sg7
L10L
sa(dp19
g6
L292L
sg7
L10L
sa(dp20
g6
L414L
sg7
L10L
sa(dp21
g6
L549L
sg7
L9L
sa(dp22
g6
L611L
sg7
L10L
sass."
EndChar

StartChar: uni0E2E
Encoding: 3630 3630 176
GlifName: uni0E_2E_
Width: 640
VWidth: 0
GlyphClass: 2
Flags: HMW
LayerCount: 2
Fore
SplineSet
200 255 m 0
 201 258 201 261 201 264 c 0
 201 278 193 288 176 288 c 0
 156 288 142 274 138 255 c 0
 137 252 137 249 137 246 c 0
 137 232 145 222 162 222 c 0
 182 222 196 236 200 255 c 0
223 481 m 0
 223 471 234 455 327 455 c 0
 382 455 421 465 450 482 c 1
 433 515 397 535 344 535 c 0
 267 535 223 509 223 481 c 0
590 487 m 1
 596 474 600 455 600 436 c 0
 600 428 599 419 597 411 c 2
 551 192 l 2
 526 74 408 -21 251 -21 c 0
 113 -21 36 52 36 149 c 0
 36 163 38 177 41 192 c 2
 54 255 l 2
 68 320 127 360 192 360 c 0
 249 360 287 330 287 279 c 0
 287 271 286 263 284 255 c 0
 273 201 230 164 179 153 c 1
 185 106 226 89 274 89 c 0
 333 89 385 116 401 192 c 2
 424 300 l 2
 437 362 449 373 457 409 c 1
 419 392 372 380 311 380 c 0
 176 380 82 413 82 472 c 0
 82 476 82 481 83 485 c 0
 95 541 188 621 362 621 c 0
 453 621 503 592 530 564 c 1
 541 582 548 603 553 627 c 1
 691 615 l 1
 680 562 643 518 590 487 c 1
EndSplineSet
PickledDataWithLists: "(dp0
Vcom.fontlab.hintData
p1
(dp2
Vvhints
p3
(lp4
(dp5
Vposition
p6
L54L
sVwidth
p7
L10L
sa(dp8
g6
L64L
sg7
L10L
sa(dp9
g6
L136L
sg7
L10L
sa(dp10
g6
L146L
sg7
L10L
sa(dp11
g6
L286L
sg7
L10L
sa(dp12
g6
L484L
sg7
L10L
sa(dp13
g6
L566L
sg7
L10L
sa(dp14
g6
L616L
sg7
L10L
sasVhhints
p15
(lp16
(dp17
g6
L-18L
sg7
L10L
sa(dp18
g6
L40L
sg7
L10L
sa(dp19
g6
L216L
sg7
L10L
sa(dp20
g6
L233L
sg7
L10L
sa(dp21
g6
L289L
sg7
L10L
sa(dp22
g6
L363L
sg7
L10L
sa(dp23
g6
L420L
sg7
L10L
sa(dp24
g6
L552L
sg7
L10L
sa(dp25
g6
L610L
sg7
L10L
sa(dp26
g6
L654L
sg7
L10L
sass."
EndChar

StartChar: uni0E2F
Encoding: 3631 3631 177
GlifName: uni0E_2F_
Width: 495
VWidth: 0
GlyphClass: 2
Flags: HMW
LayerCount: 2
Fore
SplineSet
88 87 m 1
 219 101 251 122 260 165 c 2
 295 330 l 2
 305 377 329 397 347 433 c 1
 302 407 248 390 183 390 c 0
 115 390 70 425 70 481 c 0
 70 489 71 497 73 506 c 0
 87 571 145 611 210 611 c 0
 267 611 305 581 305 530 c 0
 305 522 305 514 303 506 c 0
 301 495 297 484 292 475 c 1
 346 499 382 544 411 594 c 1
 478 600 l 1
 486 593 489 580 489 563 c 0
 489 540 483 509 475 470 c 2
 410 165 l 2
 383 38 226 -7 87 -21 c 1
 88 87 l 1
157 506 m 0
 156 503 156 500 156 497 c 0
 156 483 164 473 181 473 c 0
 201 473 215 487 219 506 c 0
 220 509 220 512 220 515 c 0
 220 529 212 539 195 539 c 0
 175 539 161 525 157 506 c 0
EndSplineSet
PickledDataWithLists: "(dp0
Vcom.fontlab.hintData
p1
(dp2
Vvhints
p3
(lp4
(dp5
Vposition
p6
L31L
sVwidth
p7
L10L
sa(dp8
g6
L119L
sg7
L10L
sa(dp9
g6
L153L
sg7
L10L
sa(dp10
g6
L356L
sg7
L10L
sa(dp11
g6
L356L
sg7
L10L
sa(dp12
g6
L434L
sg7
L10L
sa(dp13
g6
L439L
sg7
L10L
sasVhhints
p14
(lp15
(dp16
g6
L-16L
sg7
L10L
sa(dp17
g6
L394L
sg7
L10L
sa(dp18
g6
L456L
sg7
L10L
sa(dp19
g6
L589L
sg7
L10L
sa(dp20
g6
L596L
sg7
L10L
sass."
EndChar

StartChar: uni0E30
Encoding: 3632 3632 178
GlifName: uni0E_30
Width: 540
VWidth: 0
GlyphClass: 2
Flags: HMW
LayerCount: 2
Fore
SplineSet
167 460 m 0
 166 457 166 454 166 451 c 0
 166 437 174 427 191 427 c 0
 211 427 225 441 229 460 c 0
 230 463 230 466 230 469 c 0
 230 483 222 493 205 493 c 0
 185 493 171 479 167 460 c 0
103 160 m 0
 102 157 102 154 102 151 c 0
 102 137 110 127 127 127 c 0
 147 127 161 141 165 160 c 0
 166 163 166 166 166 169 c 0
 166 183 158 193 141 193 c 0
 121 193 107 179 103 160 c 0
81 427 m 0
 80 437 80 448 83 460 c 0
 97 525 155 565 220 565 c 0
 277 565 315 535 315 484 c 0
 315 476 315 468 313 460 c 0
 309 441 301 424 290 409 c 1
 294 410 298 410 302 410 c 2
 312 410 l 2
 368 410 409 466 426 545 c 1
 548 530 l 1
 526 425 439 335 301 335 c 2
 226 335 l 2
 134 335 86 373 81 427 c 0
17 127 m 0
 16 137 16 148 19 160 c 0
 33 225 91 265 156 265 c 0
 213 265 252 235 252 184 c 0
 252 176 251 168 249 160 c 0
 245 141 237 124 226 109 c 1
 230 110 234 110 238 110 c 2
 248 110 l 2
 304 110 345 166 362 245 c 1
 484 230 l 1
 462 125 375 35 237 35 c 2
 162 35 l 2
 70 35 22 73 17 127 c 0
EndSplineSet
PickledDataWithLists: "(dp0
Vcom.fontlab.hintData
p1
(dp2
Vvhints
p3
(lp4
(dp5
Vposition
p6
L51L
sVwidth
p7
L10L
sa(dp8
g6
L60L
sg7
L10L
sa(dp9
g6
L139L
sg7
L10L
sa(dp10
g6
L144L
sg7
L10L
sa(dp11
g6
L154L
sg7
L10L
sa(dp12
g6
L450L
sg7
L10L
sasVhhints
p13
(lp14
(dp15
g6
L60L
sg7
L10L
sa(dp16
g6
L122L
sg7
L10L
sa(dp17
g6
L228L
sg7
L10L
sa(dp18
g6
L360L
sg7
L10L
sa(dp19
g6
L421L
sg7
L10L
sa(dp20
g6
L536L
sg7
L10L
sass."
EndChar

StartChar: uni0E31
Encoding: 3633 3633 179
GlifName: uni0E_31
Width: 0
VWidth: 0
GlyphClass: 4
Flags: HMW
AnchorPoint: "ThaiExtendedAbove.mkmk" -60 0 basemark 0
AnchorPoint: "ThaiAbove.mark" -60 0 mark 0
LayerCount: 2
Fore
SplineSet
58 886 m 1
 166 874 l 1
 143 764 53 694 -57 694 c 2
 -127 694 l 2
 -208 694 -260 728 -260 786 c 0
 -260 794 -260 802 -258 810 c 0
 -246 867 -195 902 -138 902 c 0
 -89 902 -55 875 -55 831 c 0
 -55 824 -56 818 -58 810 c 0
 -62 792 -70 777 -80 764 c 1
 -78 764 -75 764 -73 764 c 2
 -63 764 l 2
 -9 764 37 788 58 886 c 1
-152 839 m 0
 -170 839 -182 827 -186 810 c 0
 -187 807 -187 804 -187 802 c 0
 -187 789 -179 781 -164 781 c 0
 -146 781 -134 793 -130 810 c 0
 -129 813 -129 816 -129 818 c 0
 -129 831 -137 839 -152 839 c 0
EndSplineSet
PickledDataWithLists: "(dp0
Vcom.fontlab.hintData
p1
(dp2
Vvhints
p3
(lp4
(dp5
Vposition
p6
L-391L
sVwidth
p7
L10L
sa(dp8
g6
L-313L
sg7
L10L
sa(dp9
g6
L-306L
sg7
L10L
sa(dp10
g6
L55L
sg7
L10L
sasVhhints
p11
(lp12
(dp13
g6
L717L
sg7
L10L
sa(dp14
g6
L772L
sg7
L10L
sa(dp15
g6
L882L
sg7
L10L
sa(dp16
g6
L952L
sg7
L10L
sass."
Substitution2: "Thai.sl subtable" uni0E31.sl
EndChar

StartChar: uni0E32
Encoding: 3634 3634 180
GlifName: uni0E_32
Width: 485
VWidth: 0
GlyphClass: 2
Flags: HMW
LayerCount: 2
Fore
SplineSet
38 462 m 1
 65 535 148 621 282 621 c 0
 399 621 457 554 457 474 c 0
 457 462 456 449 453 436 c 2
 360 0 l 1
 210 0 l 1
 303 436 l 2
 305 447 306 456 306 464 c 0
 306 503 281 511 259 511 c 0
 231 511 203 497 186 450 c 1
 38 462 l 1
EndSplineSet
PickledDataWithLists: "(dp0
Vcom.fontlab.hintData
p1
(dp2
Vvhints
p3
(lp4
(dp5
Vposition
p6
L15L
sVwidth
p7
L10L
sa(dp8
g6
L291L
sg7
L10L
sa(dp9
g6
L312L
sg7
L10L
sa(dp10
g6
L379L
sg7
L10L
sa(dp11
g6
L400L
sg7
L10L
sasVhhints
p12
(lp13
(dp14
g6
L-25L
sg7
L10L
sa(dp15
g6
L399L
sg7
L10L
sa(dp16
g6
L545L
sg7
L10L
sa(dp17
g6
L606L
sg7
L10L
sass."
EndChar

StartChar: uni0E33
Encoding: 3635 3635 181
GlifName: uni0E_33
Width: 485
VWidth: 0
GlyphClass: 2
Flags: HMW
LayerCount: 2
Fore
SplineSet
41 780 m 0
 27 715 -32 675 -97 675 c 0
 -154 675 -192 705 -192 756 c 0
 -192 764 -191 772 -189 780 c 0
 -175 845 -117 885 -52 885 c 0
 5 885 43 855 43 804 c 0
 43 796 43 788 41 780 c 0
-43 780 m 0
 -42 783 -42 786 -42 789 c 0
 -42 803 -50 813 -67 813 c 0
 -87 813 -101 799 -105 780 c 0
 -106 777 -106 774 -106 771 c 0
 -106 757 -98 747 -81 747 c 0
 -61 747 -47 761 -43 780 c 0
38 462 m 1
 65 535 148 621 282 621 c 0
 399 621 457 554 457 474 c 0
 457 462 456 449 453 436 c 2
 360 0 l 1
 210 0 l 1
 303 436 l 2
 305 447 306 456 306 464 c 0
 306 503 281 511 259 511 c 0
 231 511 203 497 186 450 c 1
 38 462 l 1
EndSplineSet
PickledDataWithLists: "(dp0
Vcom.fontlab.hintData
p1
(dp2
Vvhints
p3
(lp4
(dp5
Vposition
p6
L-282L
sVwidth
p7
L10L
sa(dp8
g6
L-218L
sg7
L10L
sa(dp9
g6
L-122L
sg7
L10L
sa(dp10
g6
L-58L
sg7
L10L
sa(dp11
g6
L15L
sg7
L10L
sa(dp12
g6
L291L
sg7
L10L
sa(dp13
g6
L312L
sg7
L10L
sa(dp14
g6
L379L
sg7
L10L
sa(dp15
g6
L400L
sg7
L10L
sasVhhints
p16
(lp17
(dp18
g6
L-25L
sg7
L10L
sa(dp19
g6
L399L
sg7
L10L
sa(dp20
g6
L545L
sg7
L10L
sa(dp21
g6
L606L
sg7
L10L
sa(dp22
g6
L703L
sg7
L10L
sa(dp23
g6
L747L
sg7
L10L
sa(dp24
g6
L863L
sg7
L10L
sa(dp25
g6
L907L
sg7
L10L
sass."
MultipleSubs2: "ThaiDecomp subtable" uni0E4D uni200D uni0E32
Colour: ff00ff
EndChar

StartChar: uni0E34
Encoding: 3636 3636 182
GlifName: uni0E_34
Width: 0
VWidth: 0
GlyphClass: 4
Flags: HMW
AnchorPoint: "ThaiExtendedAbove.mkmk" -60 0 basemark 0
AnchorPoint: "ThaiAbove.mark" -60 0 mark 0
LayerCount: 2
Fore
SplineSet
-308 778 m 1
 -107 741 l 1
 -126 779 -163 820 -231 820 c 0
 -259 820 -288 809 -308 778 c 1
-4 685 m 1
 -19 665 l 1
 -444 735 l 1
 -428 810 -356 900 -219 900 c 0
 -29 900 -6 707 -4 685 c 1
EndSplineSet
PickledDataWithLists: "(dp0
Vcom.fontlab.hintData
p1
(dp2
Vvhints
p3
(lp4
(dp5
Vposition
p6
L-534L
sVwidth
p7
L10L
sa(dp8
g6
L-456L
sg7
L10L
sasVhhints
p9
(lp10
(dp11
g6
L682L
sg7
L10L
sa(dp12
g6
L871L
sg7
L9L
sa(dp13
g6
L919L
sg7
L10L
sass."
Substitution2: "Thai.sl subtable" uni0E34.sl
EndChar

StartChar: uni0E35
Encoding: 3637 3637 183
GlifName: uni0E_35
Width: 0
VWidth: 0
GlyphClass: 4
Flags: HMW
AnchorPoint: "ThaiExtendedAbove.mkmk" -60 0 basemark 0
AnchorPoint: "ThaiAbove.mark" -60 0 mark 0
LayerCount: 2
Fore
SplineSet
-70 845 m 2
 -58 905 l 1
 48 885 l 1
 3 675 l 1
 -15 660 l 1
 -445 730 l 1
 -429 805 -357 895 -230 895 c 0
 -145 895 -96 845 -69 793 c 1
 -71 805 -72 816 -72 826 c 0
 -72 833 -71 839 -70 845 c 2
-309 773 m 1
 -90 732 l 1
 -112 770 -154 815 -232 815 c 0
 -260 815 -289 804 -309 773 c 1
EndSplineSet
PickledDataWithLists: "(dp0
Vcom.fontlab.hintData
p1
(dp2
Vvhints
p3
(lp4
(dp5
Vposition
p6
L-530L
sVwidth
p7
L10L
sa(dp8
g6
L-460L
sg7
L10L
sa(dp9
g6
L-189L
sg7
L10L
sa(dp10
g6
L-175L
sg7
L10L
sa(dp11
g6
L-116L
sg7
L10L
sasVhhints
p12
(lp13
(dp14
g6
L691L
sg7
L10L
sa(dp15
g6
L861L
sg7
L10L
sa(dp16
g6
L909L
sg7
L10L
sa(dp17
g6
L929L
sg7
L10L
sass."
Substitution2: "Thai.sl subtable" uni0E35.sl
EndChar

StartChar: uni0E36
Encoding: 3638 3638 184
GlifName: uni0E_36
Width: 0
VWidth: 0
GlyphClass: 4
Flags: HMW
AnchorPoint: "ThaiExtendedAbove.mkmk" -60 0 basemark 0
AnchorPoint: "ThaiAbove.mark" -60 0 mark 0
LayerCount: 2
Fore
SplineSet
-99 785 m 0
 -100 782 -100 779 -100 776 c 0
 -100 762 -92 752 -75 752 c 0
 -55 752 -41 766 -37 785 c 0
 -36 788 -36 791 -36 794 c 0
 -36 808 -44 818 -61 818 c 0
 -81 818 -95 804 -99 785 c 0
-307 775 m 1
 -186 758 l 1
 -186 766 -185 775 -183 785 c 0
 -182 791 -181 797 -179 802 c 1
 -192 810 -209 815 -232 815 c 0
 -259 815 -288 804 -307 775 c 1
-445 730 m 1
 -429 805 -357 895 -230 895 c 0
 -186 895 -158 880 -136 860 c 1
 -111 879 -79 890 -46 890 c 0
 11 890 50 860 50 809 c 0
 50 801 49 793 47 785 c 0
 33 720 -25 680 -90 680 c 0
 -114 680 -136 685 -152 696 c 1
 -445 730 l 1
EndSplineSet
PickledDataWithLists: "(dp0
Vcom.fontlab.hintData
p1
(dp2
Vvhints
p3
(lp4
(dp5
Vposition
p6
L-544L
sVwidth
p7
L10L
sa(dp8
g6
L-466L
sg7
L10L
sa(dp9
g6
L-208L
sg7
L10L
sa(dp10
g6
L-134L
sg7
L10L
sa(dp11
g6
L-84L
sg7
L10L
sasVhhints
p12
(lp13
(dp14
g6
L689L
sg7
L10L
sa(dp15
g6
L723L
sg7
L10L
sa(dp16
g6
L824L
sg7
L21L
sa(dp17
g6
L861L
sg7
L10L
sa(dp18
g6
L892L
sg7
L10L
sa(dp19
g6
L909L
sg7
L10L
sass."
Substitution2: "Thai.sl subtable" uni0E36.sl
EndChar

StartChar: uni0E37
Encoding: 3639 3639 185
GlifName: uni0E_37
Width: 0
VWidth: 0
GlyphClass: 4
Flags: HMW
AnchorPoint: "ThaiExtendedAbove.mkmk" -60 0 basemark 0
AnchorPoint: "ThaiAbove.mark" -60 0 mark 0
LayerCount: 2
Fore
SplineSet
-160 895 m 2
 -152 930 l 1
 -67 910 l 1
 -104 734 l 1
 -66 726 l 1
 -68 733 -69 741 -69 749 c 0
 -69 754 -68 760 -67 765 c 2
 -38 905 l 1
 48 885 l 1
 3 675 l 1
 -15 660 l 1
 -445 730 l 1
 -429 805 -367 895 -240 895 c 0
 -202 895 -175 883 -156 865 c 1
 -159 877 -161 888 -160 895 c 2
-310 773 m 1
 -135 740 l 1
 -152 783 -190 815 -242 815 c 0
 -270 815 -293 804 -310 773 c 1
EndSplineSet
PickledDataWithLists: "(dp0
Vcom.fontlab.hintData
p1
(dp2
Vvhints
p3
(lp4
(dp5
Vposition
p6
L-554L
sVwidth
p7
L10L
sa(dp8
g6
L-476L
sg7
L10L
sa(dp9
g6
L-280L
sg7
L10L
sa(dp10
g6
L-218L
sg7
L10L
sa(dp11
g6
L-159L
sg7
L10L
sa(dp12
g6
L-148L
sg7
L10L
sa(dp13
g6
L-100L
sg7
L10L
sasVhhints
p14
(lp15
(dp16
g6
L698L
sg7
L10L
sa(dp17
g6
L861L
sg7
L10L
sa(dp18
g6
L909L
sg7
L10L
sa(dp19
g6
L922L
sg7
L10L
sa(dp20
g6
L932L
sg7
L10L
sass."
Substitution2: "Thai.sl subtable" uni0E37.sl
EndChar

StartChar: uni0E38
Encoding: 3640 3640 186
GlifName: uni0E_38
Width: 0
VWidth: 0
GlyphClass: 4
Flags: HMW
AnchorPoint: "ThaiExtendedBelow.mkmk" -60 0 mark 0
AnchorPoint: "ThaiExtendedBelow.mkmk" -120 -280 basemark 0
AnchorPoint: "ThaiBelow.mark" -60 0 mark 0
LayerCount: 2
Fore
SplineSet
-266 -121 m 0
 -284 -121 -296 -133 -300 -150 c 0
 -301 -153 -301 -156 -301 -158 c 0
 -301 -171 -293 -179 -278 -179 c 0
 -260 -179 -248 -167 -244 -150 c 0
 -243 -147 -243 -144 -243 -142 c 0
 -243 -129 -251 -121 -266 -121 c 0
-197 -245 m 2
 -210 -305 l 1
 -310 -305 l 1
 -301 -265 l 2
 -299 -256 -295 -249 -290 -242 c 1
 -291 -242 l 0
 -340 -242 -374 -215 -374 -171 c 0
 -374 -164 -374 -158 -372 -150 c 0
 -360 -93 -309 -58 -252 -58 c 0
 -203 -58 -170 -85 -170 -129 c 0
 -170 -136 -170 -142 -172 -150 c 0
 -181 -192 -189 -207 -197 -245 c 2
EndSplineSet
PickledDataWithLists: "(dp0
Vcom.fontlab.hintData
p1
(dp2
Vvhints
p3
(lp4
(dp5
Vposition
p6
L-285L
sVwidth
p7
L10L
sa(dp8
g6
L-185L
sg7
L10L
sa(dp9
g6
L-104L
sg7
L10L
sasVhhints
p10
(lp11
(dp12
g6
L-322L
sg7
L10L
sa(dp13
g6
L-172L
sg7
L10L
sa(dp14
g6
L-98L
sg7
L10L
sass."
Substitution2: "ThaiBV.sd subtable" uni0E38.sd
EndChar

StartChar: uni0E39
Encoding: 3641 3641 187
GlifName: uni0E_39
Width: 0
VWidth: 0
GlyphClass: 4
Flags: HMW
AnchorPoint: "ThaiExtendedBelow.mkmk" -60 0 mark 0
AnchorPoint: "ThaiExtendedBelow.mkmk" -120 -280 basemark 0
AnchorPoint: "ThaiBelow.mark" -90 0 mark 0
LayerCount: 2
Fore
SplineSet
-426 -121 m 0
 -444 -121 -456 -133 -460 -150 c 0
 -461 -153 -461 -156 -461 -158 c 0
 -461 -171 -453 -179 -438 -179 c 0
 -420 -179 -408 -167 -404 -150 c 0
 -403 -147 -403 -144 -403 -142 c 0
 -403 -129 -411 -121 -426 -121 c 0
-456 -242 m 1
 -502 -240 -534 -214 -534 -171 c 0
 -534 -164 -534 -157 -532 -150 c 0
 -520 -93 -469 -58 -412 -58 c 0
 -363 -58 -330 -85 -330 -129 c 0
 -330 -136 -330 -142 -332 -150 c 0
 -339 -185 -352 -196 -356 -215 c 2
 -358 -225 l 2
 -360 -234 -357 -245 -327 -245 c 0
 -297 -245 -290 -234 -288 -225 c 2
 -254 -65 l 1
 -154 -65 l 1
 -190 -235 l 2
 -200 -283 -260 -310 -341 -310 c 0
 -414 -310 -458 -296 -458 -258 c 0
 -458 -254 -458 -249 -457 -245 c 2
 -456 -242 l 1
EndSplineSet
PickledDataWithLists: "(dp0
Vcom.fontlab.hintData
p1
(dp2
Vvhints
p3
(lp4
(dp5
Vposition
p6
L-401L
sVwidth
p7
L10L
sa(dp8
g6
L-115L
sg7
L10L
sasVhhints
p9
(lp10
(dp11
g6
L-331L
sg7
L10L
sa(dp12
g6
L-267L
sg7
L21L
sa(dp13
g6
L-154L
sg7
L10L
sa(dp14
g6
L-106L
sg7
L10L
sass."
Substitution2: "ThaiBV.sd subtable" uni0E39.sd
EndChar

StartChar: uni0E3A
Encoding: 3642 3642 188
GlifName: uni0E_3A_
Width: 0
VWidth: 0
GlyphClass: 4
Flags: HMW
AnchorPoint: "ThaiExtendedBelow.mkmk" -60 0 mark 0
AnchorPoint: "ThaiExtendedBelow.mkmk" -105 -210 basemark 0
AnchorPoint: "ThaiBelow.mark" -60 0 mark 0
LayerCount: 2
Fore
SplineSet
-337 -150 m 0
 -326 -96 -277 -62 -223 -62 c 0
 -176 -62 -145 -88 -145 -130 c 0
 -145 -136 -145 -143 -147 -150 c 0
 -158 -204 -207 -238 -261 -238 c 0
 -308 -238 -339 -212 -339 -170 c 0
 -339 -164 -339 -157 -337 -150 c 0
EndSplineSet
PickledDataWithLists: "(dp0
Vcom.fontlab.hintData
p1
(dp2
Vvhints
p3
(lp4
(dp5
Vposition
p6
L-229L
sVwidth
p7
L10L
sa(dp8
g6
L-81L
sg7
L10L
sasVhhints
p9
(lp10
(dp11
g6
L-231L
sg7
L10L
sa(dp12
g6
L-110L
sg7
L10L
sass."
Substitution2: "ThaiBV.sd subtable" uni0E3A.sd
EndChar

StartChar: uni0E3F
Encoding: 3647 3647 189
GlifName: uni0E_3F_
Width: 720
VWidth: 0
GlyphClass: 2
Flags: HMW
LayerCount: 2
Fore
SplineSet
369 464 m 1
 415 470 471 502 487 575 c 0
 489 583 490 591 490 598 c 0
 490 649 444 670 367 670 c 0
 349 670 331 670 317 669 c 1
 273 463 l 1
 302 464 334 464 369 464 c 1
535 440 m 1
 615 411 660 359 660 282 c 0
 660 267 658 251 655 235 c 0
 627 102 502 13 334 -5 c 1
 309 -120 l 1
 189 -120 l 1
 213 -9 l 1
 100 -7 15 0 15 0 c 2
 181 780 l 1
 181 780 272 788 383 789 c 1
 406 900 l 1
 526 900 l 1
 501 780 l 1
 596 760 659 707 659 626 c 0
 659 615 658 603 655 590 c 0
 640 519 594 471 535 440 c 1
199 113 m 1
 220 112 246 111 274 111 c 0
 376 111 468 136 489 235 c 0
 491 245 492 255 492 264 c 0
 492 338 416 354 325 354 c 0
 297 354 271 353 250 352 c 1
 199 113 l 1
EndSplineSet
PickledDataWithLists: "(dp0
Vcom.fontlab.hintData
p1
(dp2
Vvhints
p3
(lp4
(dp5
Vposition
p6
L26L
sVwidth
p7
L10L
sa(dp8
g6
L116L
sg7
L10L
sa(dp9
g6
L121L
sg7
L10L
sa(dp10
g6
L223L
sg7
L10L
sa(dp11
g6
L343L
sg7
L10L
sa(dp12
g6
L350L
sg7
L10L
sa(dp13
g6
L407L
sg7
L10L
sa(dp14
g6
L412L
sg7
L10L
sa(dp15
g6
L537L
sg7
L10L
sa(dp16
g6
L636L
sg7
L10L
sa(dp17
g6
L735L
sg7
L10L
sasVhhints
p18
(lp19
(dp20
g6
L-127L
sg7
L10L
sa(dp21
g6
L-22L
sg7
L10L
sa(dp22
g6
L49L
sg7
L10L
sa(dp23
g6
L395L
sg7
L10L
sa(dp24
g6
L634L
sg7
L10L
sa(dp25
g6
L661L
sg7
L10L
sa(dp26
g6
L916L
sg7
L10L
sass."
EndChar

StartChar: uni0E40
Encoding: 3648 3648 190
GlifName: uni0E_40
Width: 330
VWidth: 0
GlyphClass: 2
Flags: HMW
LayerCount: 2
Fore
SplineSet
119 94 m 0
 118 91 118 88 118 85 c 0
 118 71 126 61 143 61 c 0
 163 61 177 75 181 94 c 0
 182 97 182 100 182 103 c 0
 182 117 174 127 157 127 c 0
 137 127 123 113 119 94 c 0
203 196 m 1
 242 187 268 159 268 118 c 0
 268 111 267 102 265 94 c 0
 251 29 193 -11 128 -11 c 0
 71 -11 32 19 32 70 c 0
 32 78 33 86 35 94 c 0
 45 142 60 163 70 210 c 2
 153 600 l 1
 303 600 l 1
 226 240 l 2
 222 222 214 208 203 196 c 1
EndSplineSet
PickledDataWithLists: "(dp0
Vcom.fontlab.hintData
p1
(dp2
Vvhints
p3
(lp4
(dp5
Vposition
p6
L116L
sVwidth
p7
L10L
sa(dp8
g6
L121L
sg7
L10L
sa(dp9
g6
L204L
sg7
L10L
sa(dp10
g6
L209L
sg7
L10L
sa(dp11
g6
L244L
sg7
L10L
sasVhhints
p12
(lp13
(dp14
g6
L-30L
sg7
L10L
sa(dp15
g6
L586L
sg7
L10L
sass."
EndChar

